<?xml version="1.0" encoding="us-ascii" standalone="no"?><svg xmlns="http://www.w3.org/2000/svg" xmlns:xlink="http://www.w3.org/1999/xlink" contentStyleType="text/css" height="100px" preserveAspectRatio="none" style="width:315px;height:100px;background:#FFFFFF;" version="1.1" viewBox="0 0 315 100" width="315px" zoomAndPan="magnify"><defs/><g><line style="stroke:#333333;stroke-width:0.5;" x1="10" x2="10" y1="10" y2="70"/><line style="stroke:#333333;stroke-width:0.5;" x1="303" x2="303" y1="10" y2="70"/><rect fill="#FFD700" height="60" style="stroke:none;stroke-width:1.0;" width="60" x="118" y="10"/><line style="stroke:#333333;stroke-width:0.5;stroke-dasharray:3.0,5.0;" x1="48" x2="48" y1="10" y2="70"/><line style="stroke:#333333;stroke-width:0.5;stroke-dasharray:3.0,5.0;" x1="98" x2="98" y1="10" y2="70"/><line style="stroke:#333333;stroke-width:0.5;stroke-dasharray:3.0,5.0;" x1="148" x2="148" y1="10" y2="70"/><line style="stroke:#333333;stroke-width:0.5;stroke-dasharray:3.0,5.0;" x1="198" x2="198" y1="10" y2="70"/><line style="stroke:#333333;stroke-width:0.5;stroke-dasharray:3.0,5.0;" x1="248" x2="248" y1="10" y2="70"/><line style="stroke:#333333;stroke-width:0.5;stroke-dasharray:3.0,5.0;" x1="298" x2="298" y1="10" y2="70"/><line style="stroke:#333333;stroke-width:0.5;" x1="10" x2="303" y1="10" y2="10"/><text fill="#333333" font-family="sans-serif" font-size="14" font-weight="bold" lengthAdjust="spacing" textLength="27" x="15" y="30.7285">SCL</text><line style="stroke:#006400;stroke-width:2.0;" x1="48" x2="198" y1="18" y2="18"/><line style="stroke:#006400;stroke-width:2.0;" x1="198" x2="198" y1="18" y2="32"/><line style="stroke:#006400;stroke-width:2.0;" x1="198" x2="298" y1="32" y2="32"/><line style="stroke:#333333;stroke-width:0.5;" x1="10" x2="303" y1="40" y2="40"/><text fill="#333333" font-family="sans-serif" font-size="14" font-weight="bold" lengthAdjust="spacing" textLength="28" x="15" y="60.7285">SDA</text><line style="stroke:#006400;stroke-width:2.0;" x1="48" x2="148" y1="48" y2="48"/><line style="stroke:#006400;stroke-width:2.0;" x1="148" x2="148" y1="48" y2="62"/><line style="stroke:#006400;stroke-width:2.0;" x1="148" x2="298" y1="62" y2="62"/><line style="stroke:#333333;stroke-width:2.0;" x1="48" x2="48" y1="70" y2="75"/><line style="stroke:#333333;stroke-width:2.0;" x1="98" x2="98" y1="70" y2="75"/><line style="stroke:#333333;stroke-width:2.0;" x1="148" x2="148" y1="70" y2="75"/><line style="stroke:#333333;stroke-width:2.0;" x1="198" x2="198" y1="70" y2="75"/><line style="stroke:#333333;stroke-width:2.0;" x1="248" x2="248" y1="70" y2="75"/><line style="stroke:#333333;stroke-width:2.0;" x1="298" x2="298" y1="70" y2="75"/><line style="stroke:#333333;stroke-width:2.0;" x1="48" x2="298" y1="70" y2="70"/><text fill="#333333" font-family="sans-serif" font-size="11" lengthAdjust="spacing" textLength="6" x="45" y="87.4189">0</text><text fill="#333333" font-family="sans-serif" font-size="11" lengthAdjust="spacing" textLength="12" x="142" y="87.4189">10</text><text fill="#333333" font-family="sans-serif" font-size="11" lengthAdjust="spacing" textLength="12" x="192" y="87.4189">15</text><text fill="#333333" font-family="sans-serif" font-size="11" lengthAdjust="spacing" textLength="12" x="242" y="87.4189">20</text><line style="stroke:#696969;stroke-width:2.0;stroke-dasharray:4.0,4.0;" x1="118" x2="118" y1="10" y2="70"/><line style="stroke:#696969;stroke-width:2.0;stroke-dasharray:4.0,4.0;" x1="178" x2="178" y1="10" y2="70"/><!--SRC=[IyhCIoogL50ATlPHKaWiLW3IN4amCHT7Y9YB8nSNK48XirWX8pCzWmie06Sx671nSJaO6i04S_BBGNnJc0O8tmYe2gGy1uXB5CmLIl8L38qLbDtpSrAiSpBpKgrSCdFTYr8h0G00]--></g></svg>