<?xml version="1.0" encoding="us-ascii" standalone="no"?><svg xmlns="http://www.w3.org/2000/svg" xmlns:xlink="http://www.w3.org/1999/xlink" contentStyleType="text/css" height="141px" preserveAspectRatio="none" style="width:703px;height:141px;background:#FFFFFF;" version="1.1" viewBox="0 0 703 141" width="703px" zoomAndPan="magnify"><defs/><g><line style="stroke:#333333;stroke-width:0.5;" x1="10" x2="10" y1="10" y2="110.1875"/><line style="stroke:#333333;stroke-width:0.5;" x1="691.875" x2="691.875" y1="10" y2="110.1875"/><line style="stroke:#333333;stroke-width:0.5;stroke-dasharray:3.0,5.0;" x1="56.875" x2="56.875" y1="10" y2="110.1875"/><line style="stroke:#333333;stroke-width:0.5;stroke-dasharray:3.0,5.0;" x1="236.875" x2="236.875" y1="10" y2="110.1875"/><line style="stroke:#333333;stroke-width:0.5;stroke-dasharray:3.0,5.0;" x1="416.875" x2="416.875" y1="10" y2="110.1875"/><line style="stroke:#333333;stroke-width:0.5;stroke-dasharray:3.0,5.0;" x1="596.875" x2="596.875" y1="10" y2="110.1875"/><line style="stroke:#333333;stroke-width:0.5;" x1="10" x2="691.875" y1="10" y2="10"/><text fill="#333333" font-family="sans-serif" font-size="14" font-weight="bold" lengthAdjust="spacing" textLength="36.875" x="15" y="40.7754">&#25968;&#25454;0</text><line style="stroke:#006400;stroke-width:2.0;" x1="56.875" x2="56.875" y1="52.0938" y2="52.0938"/><line style="stroke:#006400;stroke-width:2.0;" x1="56.875" x2="146.875" y1="52.0938" y2="52.0938"/><line style="stroke:#006400;stroke-width:2.0;" x1="146.875" x2="146.875" y1="38.0938" y2="52.0938"/><line style="stroke:#006400;stroke-width:2.0;" x1="146.875" x2="195.475" y1="38.0938" y2="38.0938"/><line style="stroke:#006400;stroke-width:2.0;" x1="195.475" x2="195.475" y1="38.0938" y2="52.0938"/><line style="stroke:#006400;stroke-width:2.0;" x1="195.475" x2="285.475" y1="52.0938" y2="52.0938"/><line style="stroke:#006400;stroke-width:2.0;" x1="285.475" x2="285.475" y1="38.0938" y2="52.0938"/><line style="stroke:#006400;stroke-width:2.0;" x1="285.475" x2="285.475" y1="38.0938" y2="52.0938"/><line style="stroke:#006400;stroke-width:2.0;" x1="290.475" x2="290.475" y1="38.0938" y2="52.0938"/><line style="stroke:#006400;stroke-width:2.0;" x1="295.475" x2="295.475" y1="38.0938" y2="52.0938"/><line style="stroke:#006400;stroke-width:2.0;" x1="300.475" x2="300.475" y1="38.0938" y2="52.0938"/><line style="stroke:#006400;stroke-width:2.0;" x1="305.475" x2="305.475" y1="38.0938" y2="52.0938"/><line style="stroke:#006400;stroke-width:2.0;" x1="310.475" x2="310.475" y1="38.0938" y2="52.0938"/><line style="stroke:#006400;stroke-width:2.0;" x1="315.475" x2="315.475" y1="38.0938" y2="52.0938"/><line style="stroke:#006400;stroke-width:2.0;" x1="320.475" x2="320.475" y1="38.0938" y2="52.0938"/><line style="stroke:#006400;stroke-width:2.0;" x1="325.475" x2="325.475" y1="38.0938" y2="52.0938"/><line style="stroke:#006400;stroke-width:2.0;" x1="330.475" x2="330.475" y1="38.0938" y2="52.0938"/><line style="stroke:#006400;stroke-width:2.0;" x1="335.475" x2="335.475" y1="38.0938" y2="52.0938"/><line style="stroke:#006400;stroke-width:2.0;" x1="340.475" x2="340.475" y1="38.0938" y2="52.0938"/><line style="stroke:#006400;stroke-width:2.0;" x1="345.475" x2="345.475" y1="38.0938" y2="52.0938"/><line style="stroke:#006400;stroke-width:2.0;" x1="350.475" x2="350.475" y1="38.0938" y2="52.0938"/><line style="stroke:#006400;stroke-width:2.0;" x1="355.475" x2="355.475" y1="38.0938" y2="52.0938"/><line style="stroke:#006400;stroke-width:2.0;" x1="360.475" x2="360.475" y1="38.0938" y2="52.0938"/><line style="stroke:#006400;stroke-width:2.0;" x1="365.475" x2="365.475" y1="38.0938" y2="52.0938"/><line style="stroke:#006400;stroke-width:2.0;" x1="370.475" x2="370.475" y1="38.0938" y2="52.0938"/><line style="stroke:#006400;stroke-width:2.0;" x1="375.475" x2="375.475" y1="38.0938" y2="52.0938"/><line style="stroke:#006400;stroke-width:2.0;" x1="380.475" x2="380.475" y1="38.0938" y2="52.0938"/><line style="stroke:#006400;stroke-width:2.0;" x1="385.475" x2="385.475" y1="38.0938" y2="52.0938"/><line style="stroke:#006400;stroke-width:2.0;" x1="390.475" x2="390.475" y1="38.0938" y2="52.0938"/><line style="stroke:#006400;stroke-width:2.0;" x1="395.475" x2="395.475" y1="38.0938" y2="52.0938"/><line style="stroke:#006400;stroke-width:2.0;" x1="400.475" x2="400.475" y1="38.0938" y2="52.0938"/><line style="stroke:#006400;stroke-width:2.0;" x1="405.475" x2="405.475" y1="38.0938" y2="52.0938"/><line style="stroke:#006400;stroke-width:2.0;" x1="410.475" x2="410.475" y1="38.0938" y2="52.0938"/><line style="stroke:#006400;stroke-width:2.0;" x1="415.475" x2="415.475" y1="38.0938" y2="52.0938"/><line style="stroke:#006400;stroke-width:2.0;" x1="420.475" x2="420.475" y1="38.0938" y2="52.0938"/><line style="stroke:#006400;stroke-width:2.0;" x1="425.475" x2="425.475" y1="38.0938" y2="52.0938"/><line style="stroke:#006400;stroke-width:2.0;" x1="430.475" x2="430.475" y1="38.0938" y2="52.0938"/><line style="stroke:#006400;stroke-width:2.0;" x1="435.475" x2="435.475" y1="38.0938" y2="52.0938"/><line style="stroke:#006400;stroke-width:2.0;" x1="440.475" x2="440.475" y1="38.0938" y2="52.0938"/><line style="stroke:#006400;stroke-width:2.0;" x1="445.475" x2="445.475" y1="38.0938" y2="52.0938"/><line style="stroke:#006400;stroke-width:2.0;" x1="450.475" x2="450.475" y1="38.0938" y2="52.0938"/><line style="stroke:#006400;stroke-width:2.0;" x1="455.475" x2="455.475" y1="38.0938" y2="52.0938"/><line style="stroke:#006400;stroke-width:2.0;" x1="460.475" x2="460.475" y1="38.0938" y2="52.0938"/><line style="stroke:#006400;stroke-width:2.0;" x1="465.475" x2="465.475" y1="38.0938" y2="52.0938"/><line style="stroke:#006400;stroke-width:2.0;" x1="470.475" x2="470.475" y1="38.0938" y2="52.0938"/><line style="stroke:#006400;stroke-width:2.0;" x1="475.475" x2="475.475" y1="38.0938" y2="52.0938"/><line style="stroke:#006400;stroke-width:2.0;" x1="480.475" x2="480.475" y1="38.0938" y2="52.0938"/><line style="stroke:#006400;stroke-width:2.0;" x1="485.475" x2="485.475" y1="38.0938" y2="52.0938"/><line style="stroke:#006400;stroke-width:2.0;" x1="490.475" x2="490.475" y1="38.0938" y2="52.0938"/><line style="stroke:#006400;stroke-width:2.0;" x1="495.475" x2="495.475" y1="38.0938" y2="52.0938"/><line style="stroke:#006400;stroke-width:2.0;" x1="500.475" x2="500.475" y1="38.0938" y2="52.0938"/><line style="stroke:#006400;stroke-width:2.0;" x1="505.475" x2="505.475" y1="38.0938" y2="52.0938"/><line style="stroke:#006400;stroke-width:2.0;" x1="506.875" x2="506.875" y1="38.0938" y2="52.0938"/><line style="stroke:#006400;stroke-width:2.0;" x1="506.875" x2="686.875" y1="52.0938" y2="52.0938"/><line style="stroke:#8B0000;stroke-width:1.5;" x1="59.375" x2="144.375" y1="30.0938" y2="30.0938"/><polygon fill="#8B0000" points="67.375,34.0938,67.375,26.0938,59.375,30.0938" style="stroke:#8B0000;stroke-width:2.0;"/><polygon fill="#8B0000" points="136.375,34.0938,136.375,26.0938,144.375,30.0938" style="stroke:#8B0000;stroke-width:2.0;"/><text fill="#8B0000" font-family="sans-serif" font-size="12" lengthAdjust="spacing" textLength="52" x="75.875" y="22.457">50us&#26102;&#38553;</text><line style="stroke:#8B0000;stroke-width:1.5;" x1="149.375" x2="192.975" y1="30.0938" y2="30.0938"/><polygon fill="#8B0000" points="157.375,34.0938,157.375,26.0938,149.375,30.0938" style="stroke:#8B0000;stroke-width:2.0;"/><polygon fill="#8B0000" points="184.975,34.0938,184.975,26.0938,192.975,30.0938" style="stroke:#8B0000;stroke-width:2.0;"/><text fill="#8B0000" font-family="sans-serif" font-size="12" lengthAdjust="spacing" textLength="46" x="148.175" y="22.457">26-28us</text><line style="stroke:#8B0000;stroke-width:1.5;" x1="197.975" x2="504.375" y1="30.0938" y2="30.0938"/><polygon fill="#8B0000" points="205.975,34.0938,205.975,26.0938,197.975,30.0938" style="stroke:#8B0000;stroke-width:2.0;"/><polygon fill="#8B0000" points="496.375,34.0938,496.375,26.0938,504.375,30.0938" style="stroke:#8B0000;stroke-width:2.0;"/><text fill="#8B0000" font-family="sans-serif" font-size="12" lengthAdjust="spacing" textLength="37" x="332.675" y="22.457">&#19979;&#19968;bit</text><line style="stroke:#333333;stroke-width:0.5;" x1="10" x2="691.875" y1="60.0938" y2="60.0938"/><text fill="#333333" font-family="sans-serif" font-size="14" font-weight="bold" lengthAdjust="spacing" textLength="36.875" x="15" y="90.8691">&#25968;&#25454;1</text><line style="stroke:#006400;stroke-width:2.0;" x1="56.875" x2="56.875" y1="102.1875" y2="102.1875"/><line style="stroke:#006400;stroke-width:2.0;" x1="56.875" x2="146.875" y1="102.1875" y2="102.1875"/><line style="stroke:#006400;stroke-width:2.0;" x1="146.875" x2="146.875" y1="88.1875" y2="102.1875"/><line style="stroke:#006400;stroke-width:2.0;" x1="146.875" x2="272.875" y1="88.1875" y2="88.1875"/><line style="stroke:#006400;stroke-width:2.0;" x1="272.875" x2="272.875" y1="88.1875" y2="102.1875"/><line style="stroke:#006400;stroke-width:2.0;" x1="272.875" x2="362.875" y1="102.1875" y2="102.1875"/><line style="stroke:#006400;stroke-width:2.0;" x1="362.875" x2="362.875" y1="88.1875" y2="102.1875"/><line style="stroke:#006400;stroke-width:2.0;" x1="362.875" x2="362.875" y1="88.1875" y2="102.1875"/><line style="stroke:#006400;stroke-width:2.0;" x1="367.875" x2="367.875" y1="88.1875" y2="102.1875"/><line style="stroke:#006400;stroke-width:2.0;" x1="372.875" x2="372.875" y1="88.1875" y2="102.1875"/><line style="stroke:#006400;stroke-width:2.0;" x1="377.875" x2="377.875" y1="88.1875" y2="102.1875"/><line style="stroke:#006400;stroke-width:2.0;" x1="382.875" x2="382.875" y1="88.1875" y2="102.1875"/><line style="stroke:#006400;stroke-width:2.0;" x1="387.875" x2="387.875" y1="88.1875" y2="102.1875"/><line style="stroke:#006400;stroke-width:2.0;" x1="392.875" x2="392.875" y1="88.1875" y2="102.1875"/><line style="stroke:#006400;stroke-width:2.0;" x1="397.875" x2="397.875" y1="88.1875" y2="102.1875"/><line style="stroke:#006400;stroke-width:2.0;" x1="402.875" x2="402.875" y1="88.1875" y2="102.1875"/><line style="stroke:#006400;stroke-width:2.0;" x1="407.875" x2="407.875" y1="88.1875" y2="102.1875"/><line style="stroke:#006400;stroke-width:2.0;" x1="412.875" x2="412.875" y1="88.1875" y2="102.1875"/><line style="stroke:#006400;stroke-width:2.0;" x1="417.875" x2="417.875" y1="88.1875" y2="102.1875"/><line style="stroke:#006400;stroke-width:2.0;" x1="422.875" x2="422.875" y1="88.1875" y2="102.1875"/><line style="stroke:#006400;stroke-width:2.0;" x1="427.875" x2="427.875" y1="88.1875" y2="102.1875"/><line style="stroke:#006400;stroke-width:2.0;" x1="432.875" x2="432.875" y1="88.1875" y2="102.1875"/><line style="stroke:#006400;stroke-width:2.0;" x1="437.875" x2="437.875" y1="88.1875" y2="102.1875"/><line style="stroke:#006400;stroke-width:2.0;" x1="442.875" x2="442.875" y1="88.1875" y2="102.1875"/><line style="stroke:#006400;stroke-width:2.0;" x1="447.875" x2="447.875" y1="88.1875" y2="102.1875"/><line style="stroke:#006400;stroke-width:2.0;" x1="452.875" x2="452.875" y1="88.1875" y2="102.1875"/><line style="stroke:#006400;stroke-width:2.0;" x1="457.875" x2="457.875" y1="88.1875" y2="102.1875"/><line style="stroke:#006400;stroke-width:2.0;" x1="462.875" x2="462.875" y1="88.1875" y2="102.1875"/><line style="stroke:#006400;stroke-width:2.0;" x1="467.875" x2="467.875" y1="88.1875" y2="102.1875"/><line style="stroke:#006400;stroke-width:2.0;" x1="472.875" x2="472.875" y1="88.1875" y2="102.1875"/><line style="stroke:#006400;stroke-width:2.0;" x1="477.875" x2="477.875" y1="88.1875" y2="102.1875"/><line style="stroke:#006400;stroke-width:2.0;" x1="482.875" x2="482.875" y1="88.1875" y2="102.1875"/><line style="stroke:#006400;stroke-width:2.0;" x1="487.875" x2="487.875" y1="88.1875" y2="102.1875"/><line style="stroke:#006400;stroke-width:2.0;" x1="492.875" x2="492.875" y1="88.1875" y2="102.1875"/><line style="stroke:#006400;stroke-width:2.0;" x1="497.875" x2="497.875" y1="88.1875" y2="102.1875"/><line style="stroke:#006400;stroke-width:2.0;" x1="502.875" x2="502.875" y1="88.1875" y2="102.1875"/><line style="stroke:#006400;stroke-width:2.0;" x1="506.875" x2="506.875" y1="88.1875" y2="102.1875"/><line style="stroke:#006400;stroke-width:2.0;" x1="506.875" x2="686.875" y1="102.1875" y2="102.1875"/><line style="stroke:#8B0000;stroke-width:1.5;" x1="59.375" x2="144.375" y1="80.1875" y2="80.1875"/><polygon fill="#8B0000" points="67.375,84.1875,67.375,76.1875,59.375,80.1875" style="stroke:#8B0000;stroke-width:2.0;"/><polygon fill="#8B0000" points="136.375,84.1875,136.375,76.1875,144.375,80.1875" style="stroke:#8B0000;stroke-width:2.0;"/><text fill="#8B0000" font-family="sans-serif" font-size="12" lengthAdjust="spacing" textLength="52" x="75.875" y="72.5508">50us&#26102;&#38553;</text><line style="stroke:#8B0000;stroke-width:1.5;" x1="149.375" x2="270.375" y1="80.1875" y2="80.1875"/><polygon fill="#8B0000" points="157.375,84.1875,157.375,76.1875,149.375,80.1875" style="stroke:#8B0000;stroke-width:2.0;"/><polygon fill="#8B0000" points="262.375,84.1875,262.375,76.1875,270.375,80.1875" style="stroke:#8B0000;stroke-width:2.0;"/><text fill="#8B0000" font-family="sans-serif" font-size="12" lengthAdjust="spacing" textLength="28" x="195.875" y="72.5508">70us</text><line style="stroke:#8B0000;stroke-width:1.5;" x1="275.375" x2="504.375" y1="80.1875" y2="80.1875"/><polygon fill="#8B0000" points="283.375,84.1875,283.375,76.1875,275.375,80.1875" style="stroke:#8B0000;stroke-width:2.0;"/><polygon fill="#8B0000" points="496.375,84.1875,496.375,76.1875,504.375,80.1875" style="stroke:#8B0000;stroke-width:2.0;"/><text fill="#8B0000" font-family="sans-serif" font-size="12" lengthAdjust="spacing" textLength="37" x="371.375" y="72.5508">&#19979;&#19968;bit</text><line style="stroke:#333333;stroke-width:2.0;" x1="56.875" x2="56.875" y1="110.1875" y2="115.1875"/><line style="stroke:#333333;stroke-width:2.0;" x1="236.875" x2="236.875" y1="110.1875" y2="115.1875"/><line style="stroke:#333333;stroke-width:2.0;" x1="416.875" x2="416.875" y1="110.1875" y2="115.1875"/><line style="stroke:#333333;stroke-width:2.0;" x1="596.875" x2="596.875" y1="110.1875" y2="115.1875"/><line style="stroke:#333333;stroke-width:2.0;" x1="56.875" x2="596.875" y1="110.1875" y2="110.1875"/><text fill="#333333" font-family="sans-serif" font-size="11" lengthAdjust="spacing" textLength="6" x="53.875" y="127.6064">0</text><text fill="#333333" font-family="sans-serif" font-size="11" lengthAdjust="spacing" textLength="18" x="227.875" y="127.6064">100</text><text fill="#333333" font-family="sans-serif" font-size="11" lengthAdjust="spacing" textLength="18" x="407.875" y="127.6064">200</text><text fill="#333333" font-family="sans-serif" font-size="11" lengthAdjust="spacing" textLength="18" x="587.875" y="127.6064">300</text><!--SRC=[TP312e9048RlynI3rn96mLOaOj_0kpSDoGMfQ9EA2Bf7nuXwYEWKFP08lKMxQecWjt-_tM_-OICn3rSxD8hBipW_oC1GOW1HYrebzK5EmpH6YqWVBPTmARPnAe4J12WafeiD-By0VE3KF16pfBeeKy09n-O4kKCUEfJ9ulhwt6_Wzt3WFOE0CzOq1-fPvJFceJqoRJUJYZ9MKLkFpT-d_7sCn1guPLEphV-N5VQGgNR5LEvqjLmtxvKzrDiSD6K4rSmMLZPq_D0N]--></g></svg>