<?xml version="1.0" encoding="us-ascii" standalone="no"?><svg xmlns="http://www.w3.org/2000/svg" xmlns:xlink="http://www.w3.org/1999/xlink" contentStyleType="text/css" height="163px" preserveAspectRatio="none" style="width:753px;height:163px;background:#FFFFFF;" version="1.1" viewBox="0 0 753 163" width="753px" zoomAndPan="magnify"><defs/><g><line style="stroke:#333333;stroke-width:0.5;" x1="10" x2="10" y1="10" y2="132.7969"/><line style="stroke:#333333;stroke-width:0.5;" x1="736" x2="736" y1="10" y2="132.7969"/><rect fill="#B4D9FF" height="122.7969" style="stroke:none;stroke-width:1.0;" width="117" x="59" y="10"/><rect fill="#B4D9FF" height="122.7969" style="stroke:none;stroke-width:1.0;" width="78" x="581" y="10"/><line style="stroke:#333333;stroke-width:0.5;stroke-dasharray:3.0,5.0;" x1="59" x2="59" y1="10" y2="132.7969"/><line style="stroke:#333333;stroke-width:0.5;stroke-dasharray:3.0,5.0;" x1="209" x2="209" y1="10" y2="132.7969"/><line style="stroke:#333333;stroke-width:0.5;stroke-dasharray:3.0,5.0;" x1="359" x2="359" y1="10" y2="132.7969"/><line style="stroke:#333333;stroke-width:0.5;stroke-dasharray:3.0,5.0;" x1="509" x2="509" y1="10" y2="132.7969"/><line style="stroke:#333333;stroke-width:0.5;stroke-dasharray:3.0,5.0;" x1="659" x2="659" y1="10" y2="132.7969"/><line style="stroke:#333333;stroke-width:0.5;" x1="10" x2="736" y1="10" y2="10"/><text fill="#333333" font-family="sans-serif" font-size="14" font-weight="bold" lengthAdjust="spacing" textLength="39" x="15" y="40.7754">Level</text><line style="stroke:#006400;stroke-width:2.0;" x1="59" x2="59" y1="67.1875" y2="67.1875"/><line style="stroke:#006400;stroke-width:2.0;" x1="59" x2="131" y1="67.1875" y2="67.1875"/><line style="stroke:#006400;stroke-width:2.0;" x1="131" x2="131" y1="53.1875" y2="67.1875"/><line style="stroke:#006400;stroke-width:2.0;" x1="131" x2="176" y1="53.1875" y2="53.1875"/><line style="stroke:#006400;stroke-width:2.0;" x1="176" x2="176" y1="53.1875" y2="67.1875"/><line style="stroke:#006400;stroke-width:2.0;" x1="176" x2="296" y1="67.1875" y2="67.1875"/><line style="stroke:#006400;stroke-width:2.0;" x1="296" x2="296" y1="53.1875" y2="67.1875"/><line style="stroke:#006400;stroke-width:2.0;" x1="296" x2="416" y1="53.1875" y2="53.1875"/><line style="stroke:#006400;stroke-width:2.0;" x1="416" x2="416" y1="53.1875" y2="67.1875"/><line style="stroke:#006400;stroke-width:2.0;" x1="416" x2="431" y1="67.1875" y2="67.1875"/><line style="stroke:#006400;stroke-width:2.0;" x1="431" x2="431" y1="53.1875" y2="67.1875"/><line style="stroke:#006400;stroke-width:2.0;" x1="431" x2="431" y1="53.1875" y2="67.1875"/><line style="stroke:#006400;stroke-width:2.0;" x1="436" x2="436" y1="53.1875" y2="67.1875"/><line style="stroke:#006400;stroke-width:2.0;" x1="441" x2="441" y1="53.1875" y2="67.1875"/><line style="stroke:#006400;stroke-width:2.0;" x1="446" x2="446" y1="53.1875" y2="67.1875"/><line style="stroke:#006400;stroke-width:2.0;" x1="451" x2="451" y1="53.1875" y2="67.1875"/><line style="stroke:#006400;stroke-width:2.0;" x1="456" x2="456" y1="53.1875" y2="67.1875"/><line style="stroke:#006400;stroke-width:2.0;" x1="461" x2="461" y1="53.1875" y2="67.1875"/><line style="stroke:#006400;stroke-width:2.0;" x1="466" x2="466" y1="53.1875" y2="67.1875"/><line style="stroke:#006400;stroke-width:2.0;" x1="471" x2="471" y1="53.1875" y2="67.1875"/><line style="stroke:#006400;stroke-width:2.0;" x1="476" x2="476" y1="53.1875" y2="67.1875"/><line style="stroke:#006400;stroke-width:2.0;" x1="481" x2="481" y1="53.1875" y2="67.1875"/><line style="stroke:#006400;stroke-width:2.0;" x1="486" x2="486" y1="53.1875" y2="67.1875"/><line style="stroke:#006400;stroke-width:2.0;" x1="491" x2="491" y1="53.1875" y2="67.1875"/><line style="stroke:#006400;stroke-width:2.0;" x1="496" x2="496" y1="53.1875" y2="67.1875"/><line style="stroke:#006400;stroke-width:2.0;" x1="501" x2="501" y1="53.1875" y2="67.1875"/><line style="stroke:#006400;stroke-width:2.0;" x1="506" x2="506" y1="53.1875" y2="67.1875"/><line style="stroke:#006400;stroke-width:2.0;" x1="506" x2="581" y1="67.1875" y2="67.1875"/><line style="stroke:#006400;stroke-width:2.0;" x1="581" x2="581" y1="53.1875" y2="67.1875"/><line style="stroke:#006400;stroke-width:2.0;" x1="581" x2="731" y1="53.1875" y2="53.1875"/><line style="stroke:#8B0000;stroke-width:1.5;" x1="61.5" x2="128.5" y1="45.1875" y2="45.1875"/><polygon fill="#8B0000" points="69.5,49.1875,69.5,41.1875,61.5,45.1875" style="stroke:#8B0000;stroke-width:2.0;"/><polygon fill="#8B0000" points="120.5,49.1875,120.5,41.1875,128.5,45.1875" style="stroke:#8B0000;stroke-width:2.0;"/><text fill="#8B0000" font-family="sans-serif" font-size="12" lengthAdjust="spacing" textLength="32" x="79" y="37.5508">18ms</text><line style="stroke:#8B0000;stroke-width:1.5;" x1="133.5" x2="173.5" y1="45.1875" y2="45.1875"/><polygon fill="#8B0000" points="141.5,49.1875,141.5,41.1875,133.5,45.1875" style="stroke:#8B0000;stroke-width:2.0;"/><polygon fill="#8B0000" points="165.5,49.1875,165.5,41.1875,173.5,45.1875" style="stroke:#8B0000;stroke-width:2.0;"/><text fill="#8B0000" font-family="sans-serif" font-size="12" lengthAdjust="spacing" textLength="46" x="130.5" y="37.5508">20-40us</text><line style="stroke:#8B0000;stroke-width:1.5;" x1="178.5" x2="293.5" y1="45.1875" y2="45.1875"/><polygon fill="#8B0000" points="186.5,49.1875,186.5,41.1875,178.5,45.1875" style="stroke:#8B0000;stroke-width:2.0;"/><polygon fill="#8B0000" points="285.5,49.1875,285.5,41.1875,293.5,45.1875" style="stroke:#8B0000;stroke-width:2.0;"/><text fill="#8B0000" font-family="sans-serif" font-size="12" lengthAdjust="spacing" textLength="28" x="222" y="37.5508">80us</text><line style="stroke:#8B0000;stroke-width:1.5;" x1="298.5" x2="413.5" y1="45.1875" y2="45.1875"/><polygon fill="#8B0000" points="306.5,49.1875,306.5,41.1875,298.5,45.1875" style="stroke:#8B0000;stroke-width:2.0;"/><polygon fill="#8B0000" points="405.5,49.1875,405.5,41.1875,413.5,45.1875" style="stroke:#8B0000;stroke-width:2.0;"/><text fill="#8B0000" font-family="sans-serif" font-size="12" lengthAdjust="spacing" textLength="28" x="342" y="37.5508">80us</text><line style="stroke:#8B0000;stroke-width:1.5;" x1="508.5" x2="578.5" y1="45.1875" y2="45.1875"/><polygon fill="#8B0000" points="516.5,49.1875,516.5,41.1875,508.5,45.1875" style="stroke:#8B0000;stroke-width:2.0;"/><polygon fill="#8B0000" points="570.5,49.1875,570.5,41.1875,578.5,45.1875" style="stroke:#8B0000;stroke-width:2.0;"/><text fill="#8B0000" font-family="sans-serif" font-size="12" lengthAdjust="spacing" textLength="28" x="529.5" y="37.5508">50us</text><line style="stroke:#333333;stroke-width:0.5;" x1="10" x2="736" y1="75.1875" y2="75.1875"/><text fill="#333333" font-family="sans-serif" font-size="14" font-weight="bold" lengthAdjust="spacing" textLength="28.875" x="15" y="89.7207">&#29366;&#24577;</text><line style="stroke:#333333;stroke-width:0.5;" x1="10" x2="44.875" y1="93.7969" y2="93.7969"/><line style="stroke:#333333;stroke-width:0.5;" x1="44.875" x2="54.875" y1="93.7969" y2="75.1875"/><polygon fill="#E2E2F0" points="71,98.7969,164,98.7969,176,110.7969,164,122.7969,71,122.7969,59,110.7969" style="stroke:#006400;stroke-width:1.5;"/><polygon fill="#E2E2F0" points="188,98.7969,404,98.7969,416,110.7969,404,122.7969,188,122.7969,176,110.7969" style="stroke:#006400;stroke-width:1.5;"/><polygon fill="#E2E2F0" points="428,98.7969,494,98.7969,506,110.7969,494,122.7969,428,122.7969,416,110.7969" style="stroke:#006400;stroke-width:1.5;"/><polygon fill="#E2E2F0" points="518,98.7969,569,98.7969,581,110.7969,569,122.7969,518,122.7969,506,110.7969" style="stroke:#006400;stroke-width:1.5;"/><polygon fill="#E2E2F0" points="593,98.7969,731,98.7969,731,122.7969,593,122.7969,581,110.7969" style="stroke:#E2E2F0;stroke-width:1.5;"/><path d="M731,98.7969 L593,98.7969 L581,110.7969 L593,122.7969 L731,122.7969 " fill="#E2E2F0" style="stroke:#006400;stroke-width:1.5;"/><text fill="#333333" font-family="sans-serif" font-size="12" font-weight="bold" lengthAdjust="spacing" textLength="24.75" x="105.125" y="115.707">&#22797;&#20301;</text><text fill="#333333" font-family="sans-serif" font-size="12" font-weight="bold" lengthAdjust="spacing" textLength="72.5" x="259.75" y="115.707">DHT&#21709;&#24212;&#20449;&#21495;</text><text fill="#333333" font-family="sans-serif" font-size="12" font-weight="bold" lengthAdjust="spacing" textLength="72.5" x="424.75" y="115.707">DHT&#20256;&#36755;&#25968;&#25454;</text><text fill="#333333" font-family="sans-serif" font-size="12" font-weight="bold" lengthAdjust="spacing" textLength="47.75" x="519.625" y="115.707">DHT&#25289;&#20302;</text><text fill="#333333" font-family="sans-serif" font-size="12" font-weight="bold" lengthAdjust="spacing" textLength="49.5" x="593" y="115.707">&#20027;&#26426;&#25511;&#21046;</text><line style="stroke:#333333;stroke-width:2.0;" x1="59" x2="59" y1="132.7969" y2="137.7969"/><line style="stroke:#333333;stroke-width:2.0;" x1="209" x2="209" y1="132.7969" y2="137.7969"/><line style="stroke:#333333;stroke-width:2.0;" x1="359" x2="359" y1="132.7969" y2="137.7969"/><line style="stroke:#333333;stroke-width:2.0;" x1="509" x2="509" y1="132.7969" y2="137.7969"/><line style="stroke:#333333;stroke-width:2.0;" x1="659" x2="659" y1="132.7969" y2="137.7969"/><line style="stroke:#333333;stroke-width:2.0;" x1="59" x2="659" y1="132.7969" y2="132.7969"/><text fill="#333333" font-family="sans-serif" font-size="11" lengthAdjust="spacing" textLength="6" x="56" y="150.2158">0</text><text fill="#333333" font-family="sans-serif" font-size="11" lengthAdjust="spacing" textLength="18" x="200" y="150.2158">100</text><text fill="#333333" font-family="sans-serif" font-size="11" lengthAdjust="spacing" textLength="18" x="350" y="150.2158">200</text><text fill="#333333" font-family="sans-serif" font-size="11" lengthAdjust="spacing" textLength="18" x="500" y="150.2158">300</text><text fill="#333333" font-family="sans-serif" font-size="11" lengthAdjust="spacing" textLength="18" x="650" y="150.2158">400</text><line style="stroke:#696969;stroke-width:2.0;stroke-dasharray:4.0,4.0;" x1="59" x2="59" y1="10" y2="132.7969"/><line style="stroke:#696969;stroke-width:2.0;stroke-dasharray:4.0,4.0;" x1="176" x2="176" y1="10" y2="132.7969"/><text fill="#000000" font-family="sans-serif" font-size="12" lengthAdjust="spacing" textLength="24" x="62" y="24.457">&#20027;&#26426;</text><line style="stroke:#696969;stroke-width:2.0;stroke-dasharray:4.0,4.0;" x1="581" x2="581" y1="10" y2="132.7969"/><line style="stroke:#696969;stroke-width:2.0;stroke-dasharray:4.0,4.0;" x1="659" x2="659" y1="10" y2="132.7969"/><text fill="#000000" font-family="sans-serif" font-size="12" lengthAdjust="spacing" textLength="24" x="584" y="24.457">&#20027;&#26426;</text><!--SRC=[VP3DIiD058NtynINkAo5oHzDeqWM1LraLryWZLCxa2RIgJz51DtvG-gYkkj2GN0dhgfKgo-JH1_3EqcGKCJ5mCozvpkSCnqUUeCHA2uxO842dW2N-57eSy50-RgSPQTd-RHDXEy535HAvLCrAUpn8nO8ub3Y0XSGH8UaBI_fGvmiOaAScc4LgnxVxH7NeR1Utm37i6nGhRuWKg8lqwsjxNGIf_ERvFC-lNv1pB0Ahe6SHki6tHUIj6Z576MDKgQQgBEMH5NxvFtk-sEItJvdyHDog2z0JVy5fMU0PmWKXX6WzKh7s6bsksi13vdTultD0Hk13SdhMpQTL_GwfaN2m6_w7t5gQfdj6CEjIeSJ79f_1CwkBfB5kBBCA-VRmYmRFwRdC-oYDSikklnaKtRv0G00]--></g></svg>