<?xml version="1.0" encoding="us-ascii" standalone="no"?><svg xmlns="http://www.w3.org/2000/svg" xmlns:xlink="http://www.w3.org/1999/xlink" contentStyleType="text/css" height="163px" preserveAspectRatio="none" style="width:708px;height:163px;background:#FFFFFF;" version="1.1" viewBox="0 0 708 163" width="708px" zoomAndPan="magnify"><defs/><g><line style="stroke:#333333;stroke-width:0.5;" x1="10" x2="10" y1="10" y2="132.7969"/><line style="stroke:#333333;stroke-width:0.5;" x1="691" x2="691" y1="10" y2="132.7969"/><rect fill="#B4D9FF" height="122.7969" style="stroke:none;stroke-width:1.0;" width="72" x="59" y="10"/><rect fill="#B4D9FF" height="122.7969" style="stroke:none;stroke-width:1.0;" width="123" x="536" y="10"/><line style="stroke:#333333;stroke-width:0.5;stroke-dasharray:3.0,5.0;" x1="59" x2="59" y1="10" y2="132.7969"/><line style="stroke:#333333;stroke-width:0.5;stroke-dasharray:3.0,5.0;" x1="209" x2="209" y1="10" y2="132.7969"/><line style="stroke:#333333;stroke-width:0.5;stroke-dasharray:3.0,5.0;" x1="359" x2="359" y1="10" y2="132.7969"/><line style="stroke:#333333;stroke-width:0.5;stroke-dasharray:3.0,5.0;" x1="509" x2="509" y1="10" y2="132.7969"/><line style="stroke:#333333;stroke-width:0.5;stroke-dasharray:3.0,5.0;" x1="659" x2="659" y1="10" y2="132.7969"/><line style="stroke:#333333;stroke-width:0.5;" x1="10" x2="691" y1="10" y2="10"/><text fill="#333333" font-family="sans-serif" font-size="14" font-weight="bold" lengthAdjust="spacing" textLength="39" x="15" y="40.7754">Level</text><line style="stroke:#006400;stroke-width:2.0;" x1="59" x2="59" y1="67.1875" y2="67.1875"/><line style="stroke:#006400;stroke-width:2.0;" x1="59" x2="86" y1="67.1875" y2="67.1875"/><line style="stroke:#006400;stroke-width:2.0;" x1="86" x2="86" y1="53.1875" y2="67.1875"/><line style="stroke:#006400;stroke-width:2.0;" x1="86" x2="131" y1="53.1875" y2="53.1875"/><line style="stroke:#006400;stroke-width:2.0;" x1="131" x2="131" y1="53.1875" y2="67.1875"/><line style="stroke:#006400;stroke-width:2.0;" x1="131" x2="251" y1="67.1875" y2="67.1875"/><line style="stroke:#006400;stroke-width:2.0;" x1="251" x2="251" y1="53.1875" y2="67.1875"/><line style="stroke:#006400;stroke-width:2.0;" x1="251" x2="371" y1="53.1875" y2="53.1875"/><line style="stroke:#006400;stroke-width:2.0;" x1="371" x2="371" y1="53.1875" y2="67.1875"/><line style="stroke:#006400;stroke-width:2.0;" x1="371" x2="386" y1="67.1875" y2="67.1875"/><line style="stroke:#006400;stroke-width:2.0;" x1="386" x2="386" y1="53.1875" y2="67.1875"/><line style="stroke:#006400;stroke-width:2.0;" x1="386" x2="386" y1="53.1875" y2="67.1875"/><line style="stroke:#006400;stroke-width:2.0;" x1="391" x2="391" y1="53.1875" y2="67.1875"/><line style="stroke:#006400;stroke-width:2.0;" x1="396" x2="396" y1="53.1875" y2="67.1875"/><line style="stroke:#006400;stroke-width:2.0;" x1="401" x2="401" y1="53.1875" y2="67.1875"/><line style="stroke:#006400;stroke-width:2.0;" x1="406" x2="406" y1="53.1875" y2="67.1875"/><line style="stroke:#006400;stroke-width:2.0;" x1="411" x2="411" y1="53.1875" y2="67.1875"/><line style="stroke:#006400;stroke-width:2.0;" x1="416" x2="416" y1="53.1875" y2="67.1875"/><line style="stroke:#006400;stroke-width:2.0;" x1="421" x2="421" y1="53.1875" y2="67.1875"/><line style="stroke:#006400;stroke-width:2.0;" x1="426" x2="426" y1="53.1875" y2="67.1875"/><line style="stroke:#006400;stroke-width:2.0;" x1="431" x2="431" y1="53.1875" y2="67.1875"/><line style="stroke:#006400;stroke-width:2.0;" x1="436" x2="436" y1="53.1875" y2="67.1875"/><line style="stroke:#006400;stroke-width:2.0;" x1="441" x2="441" y1="53.1875" y2="67.1875"/><line style="stroke:#006400;stroke-width:2.0;" x1="446" x2="446" y1="53.1875" y2="67.1875"/><line style="stroke:#006400;stroke-width:2.0;" x1="451" x2="451" y1="53.1875" y2="67.1875"/><line style="stroke:#006400;stroke-width:2.0;" x1="456" x2="456" y1="53.1875" y2="67.1875"/><line style="stroke:#006400;stroke-width:2.0;" x1="461" x2="461" y1="53.1875" y2="67.1875"/><line style="stroke:#006400;stroke-width:2.0;" x1="461" x2="536" y1="67.1875" y2="67.1875"/><line style="stroke:#006400;stroke-width:2.0;" x1="536" x2="536" y1="53.1875" y2="67.1875"/><line style="stroke:#006400;stroke-width:2.0;" x1="536" x2="686" y1="53.1875" y2="53.1875"/><line style="stroke:#8B0000;stroke-width:1.5;" x1="61.5" x2="83.5" y1="45.1875" y2="45.1875"/><polygon fill="#8B0000" points="69.5,49.1875,69.5,41.1875,61.5,45.1875" style="stroke:#8B0000;stroke-width:2.0;"/><polygon fill="#8B0000" points="75.5,49.1875,75.5,41.1875,83.5,45.1875" style="stroke:#8B0000;stroke-width:2.0;"/><text fill="#8B0000" font-family="sans-serif" font-size="12" lengthAdjust="spacing" textLength="32" x="56.5" y="37.5508">18ms</text><line style="stroke:#8B0000;stroke-width:1.5;" x1="88.5" x2="128.5" y1="45.1875" y2="45.1875"/><polygon fill="#8B0000" points="96.5,49.1875,96.5,41.1875,88.5,45.1875" style="stroke:#8B0000;stroke-width:2.0;"/><polygon fill="#8B0000" points="120.5,49.1875,120.5,41.1875,128.5,45.1875" style="stroke:#8B0000;stroke-width:2.0;"/><text fill="#8B0000" font-family="sans-serif" font-size="12" lengthAdjust="spacing" textLength="46" x="85.5" y="37.5508">20-40us</text><line style="stroke:#8B0000;stroke-width:1.5;" x1="133.5" x2="248.5" y1="45.1875" y2="45.1875"/><polygon fill="#8B0000" points="141.5,49.1875,141.5,41.1875,133.5,45.1875" style="stroke:#8B0000;stroke-width:2.0;"/><polygon fill="#8B0000" points="240.5,49.1875,240.5,41.1875,248.5,45.1875" style="stroke:#8B0000;stroke-width:2.0;"/><text fill="#8B0000" font-family="sans-serif" font-size="12" lengthAdjust="spacing" textLength="28" x="177" y="37.5508">80us</text><line style="stroke:#8B0000;stroke-width:1.5;" x1="253.5" x2="368.5" y1="45.1875" y2="45.1875"/><polygon fill="#8B0000" points="261.5,49.1875,261.5,41.1875,253.5,45.1875" style="stroke:#8B0000;stroke-width:2.0;"/><polygon fill="#8B0000" points="360.5,49.1875,360.5,41.1875,368.5,45.1875" style="stroke:#8B0000;stroke-width:2.0;"/><text fill="#8B0000" font-family="sans-serif" font-size="12" lengthAdjust="spacing" textLength="28" x="297" y="37.5508">80us</text><line style="stroke:#8B0000;stroke-width:1.5;" x1="463.5" x2="533.5" y1="45.1875" y2="45.1875"/><polygon fill="#8B0000" points="471.5,49.1875,471.5,41.1875,463.5,45.1875" style="stroke:#8B0000;stroke-width:2.0;"/><polygon fill="#8B0000" points="525.5,49.1875,525.5,41.1875,533.5,45.1875" style="stroke:#8B0000;stroke-width:2.0;"/><text fill="#8B0000" font-family="sans-serif" font-size="12" lengthAdjust="spacing" textLength="28" x="484.5" y="37.5508">50us</text><line style="stroke:#333333;stroke-width:0.5;" x1="10" x2="691" y1="75.1875" y2="75.1875"/><text fill="#333333" font-family="sans-serif" font-size="14" font-weight="bold" lengthAdjust="spacing" textLength="28.875" x="15" y="89.7207">&#29366;&#24577;</text><line style="stroke:#333333;stroke-width:0.5;" x1="10" x2="44.875" y1="93.7969" y2="93.7969"/><line style="stroke:#333333;stroke-width:0.5;" x1="44.875" x2="54.875" y1="93.7969" y2="75.1875"/><polygon fill="#E2E2F0" points="71,98.7969,119,98.7969,131,110.7969,119,122.7969,71,122.7969,59,110.7969" style="stroke:#006400;stroke-width:1.5;"/><polygon fill="#E2E2F0" points="143,98.7969,359,98.7969,371,110.7969,359,122.7969,143,122.7969,131,110.7969" style="stroke:#006400;stroke-width:1.5;"/><polygon fill="#E2E2F0" points="383,98.7969,449,98.7969,461,110.7969,449,122.7969,383,122.7969,371,110.7969" style="stroke:#006400;stroke-width:1.5;"/><polygon fill="#E2E2F0" points="473,98.7969,524,98.7969,536,110.7969,524,122.7969,473,122.7969,461,110.7969" style="stroke:#006400;stroke-width:1.5;"/><polygon fill="#E2E2F0" points="548,98.7969,686,98.7969,686,122.7969,548,122.7969,536,110.7969" style="stroke:#E2E2F0;stroke-width:1.5;"/><path d="M686,98.7969 L548,98.7969 L536,110.7969 L548,122.7969 L686,122.7969 " fill="#E2E2F0" style="stroke:#006400;stroke-width:1.5;"/><text fill="#333333" font-family="sans-serif" font-size="12" font-weight="bold" lengthAdjust="spacing" textLength="24.75" x="82.625" y="115.707">&#22797;&#20301;</text><text fill="#333333" font-family="sans-serif" font-size="12" font-weight="bold" lengthAdjust="spacing" textLength="72.5" x="214.75" y="115.707">DHT&#21709;&#24212;&#20449;&#21495;</text><text fill="#333333" font-family="sans-serif" font-size="12" font-weight="bold" lengthAdjust="spacing" textLength="72.5" x="379.75" y="115.707">DHT&#20256;&#36755;&#25968;&#25454;</text><text fill="#333333" font-family="sans-serif" font-size="12" font-weight="bold" lengthAdjust="spacing" textLength="47.75" x="474.625" y="115.707">DHT&#25289;&#20302;</text><text fill="#333333" font-family="sans-serif" font-size="12" font-weight="bold" lengthAdjust="spacing" textLength="49.5" x="548" y="115.707">&#20027;&#26426;&#25511;&#21046;</text><line style="stroke:#333333;stroke-width:2.0;" x1="59" x2="59" y1="132.7969" y2="137.7969"/><line style="stroke:#333333;stroke-width:2.0;" x1="209" x2="209" y1="132.7969" y2="137.7969"/><line style="stroke:#333333;stroke-width:2.0;" x1="359" x2="359" y1="132.7969" y2="137.7969"/><line style="stroke:#333333;stroke-width:2.0;" x1="509" x2="509" y1="132.7969" y2="137.7969"/><line style="stroke:#333333;stroke-width:2.0;" x1="659" x2="659" y1="132.7969" y2="137.7969"/><line style="stroke:#333333;stroke-width:2.0;" x1="59" x2="659" y1="132.7969" y2="132.7969"/><text fill="#333333" font-family="sans-serif" font-size="11" lengthAdjust="spacing" textLength="6" x="56" y="150.2158">0</text><text fill="#333333" font-family="sans-serif" font-size="11" lengthAdjust="spacing" textLength="18" x="200" y="150.2158">100</text><text fill="#333333" font-family="sans-serif" font-size="11" lengthAdjust="spacing" textLength="18" x="350" y="150.2158">200</text><text fill="#333333" font-family="sans-serif" font-size="11" lengthAdjust="spacing" textLength="18" x="500" y="150.2158">300</text><text fill="#333333" font-family="sans-serif" font-size="11" lengthAdjust="spacing" textLength="18" x="650" y="150.2158">400</text><line style="stroke:#696969;stroke-width:2.0;stroke-dasharray:4.0,4.0;" x1="59" x2="59" y1="10" y2="132.7969"/><line style="stroke:#696969;stroke-width:2.0;stroke-dasharray:4.0,4.0;" x1="131" x2="131" y1="10" y2="132.7969"/><text fill="#000000" font-family="sans-serif" font-size="12" lengthAdjust="spacing" textLength="24" x="62" y="24.457">&#20027;&#26426;</text><line style="stroke:#696969;stroke-width:2.0;stroke-dasharray:4.0,4.0;" x1="536" x2="536" y1="10" y2="132.7969"/><line style="stroke:#696969;stroke-width:2.0;stroke-dasharray:4.0,4.0;" x1="659" x2="659" y1="10" y2="132.7969"/><text fill="#000000" font-family="sans-serif" font-size="12" lengthAdjust="spacing" textLength="24" x="539" y="24.457">&#20027;&#26426;</text><!--SRC=[IyhCIoogL53oIIrBpL5II2nMyE5ApizBpYnELL1wthNjMKCZM3IOgpWvCITLmT300CGrD3LGACYiICqfvd8muF9Ho2nMoCalvme6CPukwNsojvUBoq7Rq08YbP6Pdi7bus2WOADhf-1WQ66bO6YHMym5KcAChjl58-JfvDwdkwOysR_mQVzse3P32uW-4w0-8mDT4uFIOf1E2mCamu7AJA3A38s0wYpG524R_sJFWXVx9Z-Rkk5PxpgGyKPGZKO6S8qWCtE0k4J1GA4aNm5ej7AIIOfbMffrJcPUgfLBPgvxKMgbWfN2ansxdytPXQJU6EXQa0vWCE7N0WmTgDkgWOxJ0PbG2nGqnUBWPzsTJ_Rs8Kc2lGoMXHZsh6_vquvjGByOcK7zOWmAP5EGNm00]--></g></svg>