<svg width="400" height="187" xmlns="http://www.w3.org/2000/svg" xmlns:xlink="http://www.w3.org/1999/xlink" overflow="hidden"><defs><clipPath id="clip0"><rect x="455" y="59" width="400" height="187"/></clipPath><clipPath id="clip1"><rect x="583" y="107" width="255" height="126"/></clipPath><clipPath id="clip2"><rect x="583" y="107" width="255" height="126"/></clipPath><clipPath id="clip3"><rect x="583" y="107" width="255" height="126"/></clipPath></defs><g clip-path="url(#clip0)" transform="translate(-455 -59)"><rect x="455" y="60" width="400" height="181" fill="#4472C4" fill-opacity="0"/><path d="M455 122C455 108.745 465.745 98 479 98L831 98C844.255 98 855 108.745 855 122L855 218C855 231.255 844.255 242 831 242L479 242C465.745 242 455 231.255 455 218Z" fill="#FFFFFF" fill-rule="evenodd"/><path d="M479.004 98 710 98 673.152 242 479.004 242C465.747 242 455 231.255 455 217.999L455 122.001C455 108.745 465.747 98 479.004 98Z" fill="#A0CF7E" fill-rule="evenodd"/><text font-family="DengXian,DengXian_MSFontService,sans-serif" font-weight="700" font-size="32" transform="translate(496.59 160)">内向</text><text font-family="Bahnschrift SemiCondensed,Bahnschrift SemiCondensed_MSFontService,sans-serif" font-weight="700" font-stretch="semi-condensed" font-size="43" transform="translate(495.503 211)">63%</text><g clip-path="url(#clip1)"><g clip-path="url(#clip2)"><g clip-path="url(#clip3)"><path d="M167.095 13.5335C167.095 19.9002 161.933 25.0615 155.567 25.0615 149.2 25.0615 144.039 19.9002 144.039 13.5335 144.039 7.1668 149.2 2.00556 155.567 2.00556 161.933 2.00556 167.095 7.1668 167.095 13.5335Z" fill="#FFF7AE" transform="matrix(1 0 0 1.00207 583 107.055)"/><path d="M85.2729 5.90472 104.97 0 123.849 6.8963 110.785 15.2544 91.296 11.2113 85.2729 5.90472Z" fill="#D9EAF0" transform="matrix(1 0 0 1.00207 583 107.055)"/><path d="M32.9557 22.461 28.1322 17.8165 43.6489 12.4556 47.4009 16.9689 54.3867 16.6906 75.162 15.5359 83.6065 19.6813 53.184 26.7344 44.4773 24.0763 32.9557 22.461Z" fill="#D9EAF0" transform="matrix(1 0 0 1.00207 583 107.055)"/><path d="M43.6489 12.4556 44.4773 24.0763 54.3867 16.6906 43.6489 12.4556Z" fill="#B3D5E1" transform="matrix(1 0 0 1.00207 583 107.055)"/><path d="M176.147 13.2872 189.504 9.19293 192.873 9.82627 197.782 6.6564 212.208 10.5108 225.624 9.97021 214.335 16.5402 202.955 19.6749 194.366 14.2404 176.147 13.2872Z" fill="#D9EAF0" transform="matrix(1 0 0 1.00207 583 107.055)"/><path d="M214.604 14.8833 212.208 10.5108 202.955 19.6749 213.28 16.9209 214.604 14.8833Z" fill="#B3D5E1" transform="matrix(1 0 0 1.00207 583 107.055)"/><path d="M197.782 6.6564 196.599 12.254 189.504 9.19293 197.782 6.6564Z" fill="#B3D5E1" transform="matrix(1 0 0 1.00207 583 107.055)"/><path d="M123.849 6.8963 103.227 8.5724 85.2729 5.90472 91.296 11.2113 110.785 15.2544 123.849 6.8963Z" fill="#B3D5E1" transform="matrix(1 0 0 1.00207 583 107.055)"/><path d="M103.227 8.5724 110.785 15.2544 91.296 11.2113 103.227 8.5724Z" fill="#8DC1D2" transform="matrix(1 0 0 1.00207 583 107.055)"/><path d="M28.1322 17.8165 44.1574 19.595 39.0076 23.5773 31.753 24.0763 28.1322 17.8165Z" fill="#B3D5E1" transform="matrix(1 0 0 1.00207 583 107.055)"/><path d="M83.6065 19.6813 52.9345 28.2185 47.2985 25.8163 46.8891 22.2786 83.6065 19.6813Z" fill="#B3D5E1" transform="matrix(1 0 0 1.00207 583 107.055)"/><path d="M52.9345 28.2185 44.1574 19.595 31.753 24.0763 52.9345 28.2185Z" fill="#8DC1D2" transform="matrix(1 0 0 1.00207 583 107.055)"/><path d="M196.599 12.254 176.147 13.2872 195.671 16.5402 197.782 15.152 196.599 12.254Z" fill="#B3D5E1" transform="matrix(1 0 0 1.00207 583 107.055)"/><path d="M195.671 16.5402 202.955 19.6749 196.599 12.254 195.671 16.5402Z" fill="#8DC1D2" transform="matrix(1 0 0 1.00207 583 107.055)"/><path d="M225.624 9.97021 202.955 19.6749 215.193 18.8337 225.624 9.97021Z" fill="#8DC1D2" transform="matrix(1 0 0 1.00207 583 107.055)"/><path d="M155.515 46.5148 159.085 44.6308 159.632 42.2254 174.762 38.5022 180.657 51.1657 219.521 59.5078 228.64 57.096 234.25 64.1106 234.669 66.8455 237.676 68.3904 246.712 79.6881 188.139 76.4287 151.002 68.7167 123.142 68.7167 83.0851 74.0585 51.0665 70.8854 37.1812 74.7078 10.5556 81.409 14.7362 74.0585 19.1503 71.2149 18.8177 66.8775 26.8399 63.6085 30.496 63.6085 30.7007 62.0347 46.5884 59.7989 50.8682 54.8186 55.6246 53.2448 56.4211 48.3541 73.729 44.0295 94.0085 31.6955 94.7634 36.2504 99.4142 38.8733 115.529 48.0374 136.531 49.8638 146.914 50.4172 155.515 46.5148Z" fill="#DDDFE2" transform="matrix(1 0 0 1.00207 583 107.055)"/><path d="M99.4142 38.8733 90.5283 41.2882 94.0085 31.6955 99.4142 38.8733Z" fill="#CCCFD4" transform="matrix(1 0 0 1.00207 583 107.055)"/><path d="M90.5283 41.2882 87.1889 41.9024 83.7632 44.666 78.044 41.4066 75.533 46.5148 86.9426 46.7643 100.681 49.9758 90.5283 41.2882Z" fill="#CCCFD4" transform="matrix(1 0 0 1.00207 583 107.055)"/><path d="M56.4211 48.3541 62.4441 51.6039 68.6559 56.2484 83.0851 56.2803 76.2176 63.0071 65.614 59.5622 50.8682 54.8186 56.4211 48.3541Z" fill="#CCCFD4" transform="matrix(1 0 0 1.00207 583 107.055)"/><path d="M46.5884 59.7989 62.4441 66.7655 71.7075 64.8367 48.2581 57.8573 46.5884 59.7989Z" fill="#CCCFD4" transform="matrix(1 0 0 1.00207 583 107.055)"/><path d="M77.9992 52.1861 96.4427 54.0861 99.2287 51.4216 77.9992 52.1861Z" fill="#CCCFD4" transform="matrix(1 0 0 1.00207 583 107.055)"/><path d="M18.8177 66.8775 30.2177 71.6179 29.5108 76.6366 23.3406 75.0532 14.7362 74.0585 18.8177 66.8775Z" fill="#CCCFD4" transform="matrix(1 0 0 1.00207 583 107.055)"/><path d="M26.8399 63.6085 39.9896 67.7923 30.7007 62.0347 26.8399 63.6085Z" fill="#CCCFD4" transform="matrix(1 0 0 1.00207 583 107.055)"/><path d="M159.632 42.2254 180.657 51.1657 155.515 46.5148 159.632 42.2254Z" fill="#CCCFD4" transform="matrix(1 0 0 1.00207 583 107.055)"/><path d="M146.914 50.4172 173.098 55.5926 188.929 52.9409 173.428 58.9736 146.914 50.4172Z" fill="#CCCFD4" transform="matrix(1 0 0 1.00207 583 107.055)"/><path d="M136.531 49.8638 152.656 57.8797 138.255 59.5078 132.85 52.7554 136.531 49.8638Z" fill="#CCCFD4" transform="matrix(1 0 0 1.00207 583 107.055)"/><path d="M219.521 59.5078 175.251 63.0071 173.428 58.9736 219.521 59.5078Z" fill="#CCCFD4" transform="matrix(1 0 0 1.00207 583 107.055)"/><path d="M234.25 64.1106 206.313 67.7443 212.845 70.3768 229.798 69.6507 237.676 68.3904 234.25 64.1106Z" fill="#CCCFD4" transform="matrix(1 0 0 1.00207 583 107.055)"/><path d="M182.547 65.8155 173.428 58.9736 162.61 59.2199 154.278 60.6273 176.783 67.4628 182.547 65.8155Z" fill="#89909B" transform="matrix(1 0 0 1.00207 583 107.055)"/><path d="M166.343 59.5014 170.677 62.6649 171.749 64.5265 165.035 65.4477 160.182 59.2135 166.343 59.5014Z" fill="#787F8D" transform="matrix(1 0 0 1.00207 583 107.055)"/><path d="M168.534 59.3223 176.371 65.4477 177.158 65.4477 170.549 59.3766 168.534 59.3223Z" fill="#787F8D" transform="matrix(1 0 0 1.00207 583 107.055)"/><path d="M73.9465 64.9647 83.0851 56.2803 94.7634 55.9861 102.68 60.026 87.1538 63.7012 73.9465 64.9647Z" fill="#89909B" transform="matrix(1 0 0 1.00207 583 107.055)"/><path d="M94.7634 56.6418 87.5536 63.6085 101.992 61.7181 101.666 58.6601 94.7634 56.6418Z" fill="#787F8D" transform="matrix(1 0 0 1.00207 583 107.055)"/><path d="M88.7019 56.6418 80.0815 64.1106 82.3206 64.4529 85.1034 62.8152 90.5283 56.2803 88.7019 56.6418Z" fill="#787F8D" transform="matrix(1 0 0 1.00207 583 107.055)"/><path d="M152.656 57.8797 96.4427 54.0861 94.773 55.0233 83.0851 56.2803 100.681 59.8117 85.1034 62.8152 82.5605 64.9135 73.9465 64.9647 47.6983 64.5265 36.0808 68.7167 30.496 73.2204 23.3406 75.0532 0 86.658 15.5039 91.8814 21.0024 98.6241 32.1209 104.961 41.4514 107.385 43.9367 111.694 68.6559 110.949 86.2293 114.016 101.161 121.312 128.967 121.558 146.582 125.63 165.799 114.845 225.656 104.235 226.567 100.271 233.652 97.9076 241.166 91.9645 241.902 89.5272 247.873 86.658 255 81.0219 242.567 77.2763 240.443 74.4519 229.798 69.6507 182.547 65.8155 152.656 57.8797Z" fill="#A0CF7E" transform="matrix(1 0 0 1.00207 583 107.055)"/><path d="M0 86.658 29.5108 85.7144 67.5524 80.6925 77.9256 85.7975 44.6628 88.2605 8.91145 89.1881 0 86.658Z" fill="#86B264" transform="matrix(1 0 0 1.00207 583 107.055)"/><path d="M101.161 121.312 137.366 115.177 157.841 118.245 146.582 125.63 101.161 121.312Z" fill="#86B264" transform="matrix(1 0 0 1.00207 583 107.055)"/><path d="M80.0815 101.746 32.1209 104.961 43.9367 111.694 80.0815 101.746Z" fill="#86B264" transform="matrix(1 0 0 1.00207 583 107.055)"/><path d="M225.656 104.235 233.652 97.9076 184.793 96.3051 178.898 98.6241 225.656 104.235Z" fill="#86B264" transform="matrix(1 0 0 1.00207 583 107.055)"/><path d="M190.733 89.3544 181.22 83.261 205.427 81.0219 247.873 86.658 190.733 89.3544Z" fill="#86B264" transform="matrix(1 0 0 1.00207 583 107.055)"/><path d="M181.22 83.261 126.03 74.2408 93.2408 77.964 112.506 80.2255 181.22 83.261Z" fill="#86B264" transform="matrix(1 0 0 1.00207 583 107.055)"/><path d="M73.9465 64.9647 83.0851 66.6504 98.5378 68.8575 102.261 64.9391 85.1034 62.8152 73.9465 64.9647Z" fill="#86B264" transform="matrix(1 0 0 1.00207 583 107.055)"/><path d="M36.0808 68.7167 32.7574 70.3704 63.666 75.7378 80.0815 72.5839 36.0808 68.7167Z" fill="#86B264" transform="matrix(1 0 0 1.00207 583 107.055)"/><path d="M229.798 69.6507 151.012 75.1044 132.85 75.709 149.297 71.2309 229.798 69.6507Z" fill="#86B264" transform="matrix(1 0 0 1.00207 583 107.055)"/><path d="M223.666 77.964 205.427 81.0219 151.012 75.1044 198.131 71.8418 223.666 77.964Z" fill="#C0DB8E" transform="matrix(1 0 0 1.00207 583 107.055)"/><path d="M73.9465 64.9647 46.7547 63.4101 36.0808 68.7167 73.9465 64.9647Z" fill="#C0DB8E" transform="matrix(1 0 0 1.00207 583 107.055)"/><path d="M73.9465 64.9647 86.7955 72.2672 101.161 68.3553 73.9465 64.9647Z" fill="#C0DB8E" transform="matrix(1 0 0 1.00207 583 107.055)"/><path d="M170.677 62.6649 150.075 65.1022 125.103 63.0935 149.265 60.5282 162.636 60.5282 170.677 62.6649Z" fill="#C0DB8E" transform="matrix(1 0 0 1.00207 583 107.055)"/><path d="M166.631 67.4596 192.825 70.3768 149.297 71.2309 166.631 67.4596Z" fill="#C0DB8E" transform="matrix(1 0 0 1.00207 583 107.055)"/><path d="M43.9367 111.694 81.0571 97.9076 121.93 106.963 86.2293 114.016 43.9367 111.694Z" fill="#47AD82" transform="matrix(1 0 0 1.00207 583 107.055)"/><path d="M21.0024 98.6241 81.0571 97.9076 83.6608 91.4656 39.2955 87.8191 0 86.658 21.0024 98.6241Z" fill="#5BB68F" transform="matrix(1 0 0 1.00207 583 107.055)"/><path d="M247.873 86.658 130.032 89.2681 172.267 97.2711 241.166 91.9645 247.873 86.658Z" fill="#47AD82" transform="matrix(1 0 0 1.00207 583 107.055)"/><path d="M255 81.0219 223.666 77.964 198.131 71.8418 240.443 74.4519 255 81.0219Z" fill="#47AD82" transform="matrix(1 0 0 1.00207 583 107.055)"/><path d="M182.547 65.8155 101.992 70.2617 146.914 71.6179 182.547 65.8155Z" fill="#5BB68F" transform="matrix(1 0 0 1.00207 583 107.055)"/><path d="M23.3406 75.0532 63.666 75.7378 32.7574 70.3704 23.3406 75.0532Z" fill="#5BB68F" transform="matrix(1 0 0 1.00207 583 107.055)"/><path d="M100.681 59.8117 112.151 57.2143 125.103 62.1595 112.967 62.3834 100.681 59.8117Z" fill="#5BB68F" transform="matrix(1 0 0 1.00207 583 107.055)"/><path d="M83.0851 56.2803 115.1 55.3431 96.4427 54.0861 83.0851 56.2803Z" fill="#C0DB8E" transform="matrix(1 0 0 1.00207 583 107.055)"/><path d="M225.656 104.235 102.008 80.2447 107.958 68.1729 173.428 58.9736 152.656 57.8797 96.5162 66.596 63.666 75.7378 81.0571 97.9076 146.582 125.63 225.656 104.235Z" fill="#ABAFB8" transform="matrix(1 0 0 1.00207 583 107.055)"/><path d="M188.839 114.195 153.807 104.199 147.487 106.093 180.078 116.565 188.839 114.195Z" fill="#EEEFF1" transform="matrix(1 0 0 1.00207 583 107.055)"/><path d="M103.71 91.3216 109.365 90.4516 122.253 95.128 116.428 96.2475 103.71 91.3216Z" fill="#EEEFF1" transform="matrix(1 0 0 1.00207 583 107.055)"/><path d="M147.487 106.093 127.239 106.912 97.1592 96.2475 83.7632 85.0426 95.8061 85.8839 112.494 93.6534 136.976 100.543 147.487 106.093Z" fill="#1D2432" fill-opacity="0.1" transform="matrix(1 0 0 1.00207 583 107.055)"/><path d="M192.271 79.5538 202.472 83.4273 207.746 82.6693 210.286 81.6681 205.427 81.0219 192.271 79.5538Z" fill="#1D2432" fill-opacity="0.1" transform="matrix(1 0 0 1.00207 583 107.055)"/><path d="M65.1214 71.2692 71.9633 73.4283 77.7561 71.8162 72.3408 71.9058 65.1214 71.2692Z" fill="#1D2432" fill-opacity="0.1" transform="matrix(1 0 0 1.00207 583 107.055)"/><path d="M22.1411 87.3137 29.5108 85.7144 35.8921 87.7199 44.6628 88.2605 31.5707 89.3544 22.1411 87.3137Z" fill="#1D2432" fill-opacity="0.1" transform="matrix(1 0 0 1.00207 583 107.055)"/><path d="M48.0822 65.179 46.9211 60.6689 46.4253 65.8379 48.0822 65.179Z" fill="#D9E256" transform="matrix(1 0 0 1.00207 583 107.055)"/><path d="M45.9903 74.1992 48.0822 78.0376 44.6628 75.4147 45.1394 74.0585 45.9903 74.1992Z" fill="#D9E256" transform="matrix(1 0 0 1.00207 583 107.055)"/><path d="M24.1435 53.5391 26.3633 52.4228 24.1435 55.3175 24.1435 53.5391Z" fill="#D9E256" transform="matrix(1 0 0 1.00207 583 107.055)"/><path d="M18.3635 56.2803 14.8386 57.3263 19.9852 57.8797 18.3635 56.2803Z" fill="#D9E256" transform="matrix(1 0 0 1.00207 583 107.055)"/><path d="M31.2317 51.4216 28.58 48.2453 32.4152 50.8042 31.2317 51.4216Z" fill="#D9E256" transform="matrix(1 0 0 1.00207 583 107.055)"/><path d="M39.9384 46.7643 43.5049 45.085 40.4566 48.482 39.9384 46.7643Z" fill="#D9E256" transform="matrix(1 0 0 1.00207 583 107.055)"/><path d="M42.798 52.298 46.051 51.9845 42.0719 53.5711 42.798 52.298Z" fill="#D9E256" transform="matrix(1 0 0 1.00207 583 107.055)"/><path d="M34.9645 45.5201 31.2285 41.4162 32.9749 38.6813 34.9645 45.5201 37.6066 42.2542 41.3362 42.1007 36.519 47.1354 34.9645 45.5201Z" fill="#B3889D" transform="matrix(1 0 0 1.00207 583 107.055)"/><path d="M33.8642 42.7212 36.2823 39.0332 37.6066 42.2542 35.0317 46.7643 29.2645 45.3345 31.0877 43.5081 34.9645 45.5201 33.8642 42.7212Z" fill="#96637C" transform="matrix(1 0 0 1.00207 583 107.055)"/><path d="M19.2655 50.1517 18.8177 48.2133 21.1495 50.7115 20.529 51.9845 19.2655 50.1517Z" fill="#96637C" transform="matrix(1 0 0 1.00207 583 107.055)"/><path d="M19.7613 52.5155 18.517 51.6455 15.9677 52.298 20.8488 54.6586 19.7613 52.5155Z" fill="#96637C" transform="matrix(1 0 0 1.00207 583 107.055)"/><path d="M23.2446 50.2285 23.4461 51.815 21.8116 53.5711 20.6345 52.6211 23.2446 50.2285Z" fill="#96637C" transform="matrix(1 0 0 1.00207 583 107.055)"/><path d="M20.6345 52.6211 22.7137 49.0002 21.2839 47.9766 20.497 51.5719 19.2655 50.1517 16.5914 49.7487 20.353 54.2268 20.6345 52.6211Z" fill="#B3889D" transform="matrix(1 0 0 1.00207 583 107.055)"/><path d="M31.7307 60.365 25.762 58.513 24.1435 53.5391 20.6345 52.6211 18.3635 56.2803 23.3406 61.6861 25.5349 61.1039 30.7007 62.0347 31.7307 60.365Z" fill="#33A474" transform="matrix(1 0 0 1.00207 583 107.055)"/><path d="M30.7007 62.0347 23.7724 59.8756 23.3406 61.6861 30.7007 62.0347Z" fill="#28835C" transform="matrix(1 0 0 1.00207 583 107.055)"/><path d="M23.7724 59.8756 25.762 58.513 20.6345 52.6211 18.3635 56.2803 23.7724 59.8756Z" fill="#28835C" transform="matrix(1 0 0 1.00207 583 107.055)"/><path d="M25.762 58.513 30.7007 62.0347 31.398 60.0484 25.762 58.513Z" fill="#5BB68F" transform="matrix(1 0 0 1.00207 583 107.055)"/><path d="M84.4125 40.7605 85.2634 38.2463 85.5416 41.6337 84.4125 40.7605Z" fill="#D9E256" transform="matrix(1 0 0 1.00207 583 107.055)"/><path d="M86.9426 46.7643 89.46 45.6192 86.4117 45.5201 86.9426 46.7643Z" fill="#D9E256" transform="matrix(1 0 0 1.00207 583 107.055)"/><path d="M68.8479 36.2791 67.047 33.6403 70.3224 34.9645 69.8043 36.2791 68.8479 36.2791Z" fill="#D9E256" transform="matrix(1 0 0 1.00207 583 107.055)"/><path d="M70.2201 44.4357 66.58 44.0295 69.9674 46.1406 70.2201 44.4357Z" fill="#D9E256" transform="matrix(1 0 0 1.00207 583 107.055)"/><path d="M62.4441 51.6039 60.5473 48.7379 63.9667 51.4216 62.4441 51.6039Z" fill="#D9E256" transform="matrix(1 0 0 1.00207 583 107.055)"/><path d="M71.2724 55.1832 67.047 54.2268 65.243 51.4216 63.3142 52.298 62.8184 56.2803 65.8635 59.2135 70.7191 57.4351 71.2724 55.1832Z" fill="#33A474" transform="matrix(1 0 0 1.00207 583 107.055)"/><path d="M62.8184 56.2803 70.7191 57.4351 65.614 59.5622 62.8184 56.2803Z" fill="#28835C" transform="matrix(1 0 0 1.00207 583 107.055)"/><path d="M65.243 50.2445 67.047 54.2268 64.2002 53.9421 62.4441 51.6039 65.243 50.2445Z" fill="#5BB68F" transform="matrix(1 0 0 1.00207 583 107.055)"/><path d="M67.047 54.2268 62.8184 56.2803 62.4441 51.6039 67.047 54.2268Z" fill="#28835C" transform="matrix(1 0 0 1.00207 583 107.055)"/><path d="M74.663 30.9342 73.6682 26.2098 72.3312 29.8754 69.5324 29.2869 70.8374 32.0537 73.9465 31.7275 74.663 30.9342Z" fill="#96637C" transform="matrix(1 0 0 1.00207 583 107.055)"/><path d="M73.9465 31.7275 71.6659 27.2142 71.0037 31.011 73.9465 31.7275Z" fill="#B3889D" transform="matrix(1 0 0 1.00207 583 107.055)"/><path d="M75.9361 28.3337 73.9465 31.7275 74.5287 32.3128 76.7645 30.3233 75.9361 28.3337Z" fill="#B3889D" transform="matrix(1 0 0 1.00207 583 107.055)"/><path d="M77.1164 46.1406 82.0903 45.117 84.6396 41.9024 87.1889 41.9024 86.9426 46.7643 83.6608 47.1354 77.3659 52.298 77.1164 46.1406Z" fill="#33A474" transform="matrix(1 0 0 1.00207 583 107.055)"/><path d="M77.1164 48.7379 84.6396 45.6192 86.9426 46.7643 77.3051 52.6051 77.1164 48.7379Z" fill="#28835C" transform="matrix(1 0 0 1.00207 583 107.055)"/><path d="M227.831 62.2138 225.656 61.9644 227.767 63.3334 227.831 62.2138Z" fill="#D9E256" transform="matrix(1 0 0 1.00207 583 107.055)"/><path d="M239.051 58.6377 240.948 59.3862 238.684 59.5078 239.051 58.6377Z" fill="#D9E256" transform="matrix(1 0 0 1.00207 583 107.055)"/><path d="M234.669 53.1585 236.691 52.701 233.985 54.5978 234.669 53.1585Z" fill="#D9E256" transform="matrix(1 0 0 1.00207 583 107.055)"/><path d="M228.016 52.9761 226.545 51.1977 229.136 52.701 228.016 52.9761Z" fill="#D9E256" transform="matrix(1 0 0 1.00207 583 107.055)"/><path d="M231.871 50.4172 233.208 48.3797 232.539 51.6455 231.871 50.4172Z" fill="#D9E256" transform="matrix(1 0 0 1.00207 583 107.055)"/><path d="M236.432 59.012 237.922 56.0276 238.917 55.9253 237.676 60.1219 236.557 59.6549 236.432 59.012Z" fill="#33A474" transform="matrix(1 0 0 1.00207 583 107.055)"/><path d="M238.684 61.0783 239.995 57.3135 238.917 55.9253 237.51 59.7157 237.51 60.2563 238.684 61.0783Z" fill="#28835C" transform="matrix(1 0 0 1.00207 583 107.055)"/><path d="M231.893 61.4046 238.684 61.0783 237.51 59.7157 235.044 59.7157 232.235 60.4418 231.893 61.4046Z" fill="#33A474" transform="matrix(1 0 0 1.00207 583 107.055)"/><path d="M237.51 59.7157 236.432 59.012 232.235 59.4694 232.235 60.4418 237.51 59.7157Z" fill="#5BB68F" transform="matrix(1 0 0 1.00207 583 107.055)"/><path d="M190.358 55.4807 189.095 58.3691 192.37 55.9029 190.358 55.4807Z" fill="#D9E256" transform="matrix(1 0 0 1.00207 583 107.055)"/><path d="M206.313 63.2182 209.49 62.329 206.672 61.5805 206.313 63.2182Z" fill="#D9E256" transform="matrix(1 0 0 1.00207 583 107.055)"/><path d="M214.662 52.9186 215.954 55.4807 212.941 52.9186 214.662 52.9186Z" fill="#D9E256" transform="matrix(1 0 0 1.00207 583 107.055)"/><path d="M218.193 48.1941 221.053 49.3744 216.578 49.1473 218.193 48.1941Z" fill="#D9E256" transform="matrix(1 0 0 1.00207 583 107.055)"/><path d="M216.824 43.4058 218.734 39.4874 214.959 43.7992 216.824 43.4058Z" fill="#D9E256" transform="matrix(1 0 0 1.00207 583 107.055)"/><path d="M206.102 30.9726 210.567 29.418 206.672 33.0229 206.102 30.9726Z" fill="#D9E256" transform="matrix(1 0 0 1.00207 583 107.055)"/><path d="M188.724 48.5044 184.038 46.7004 186.92 49.3744 188.35 49.3744 188.724 48.5044Z" fill="#D9E256" transform="matrix(1 0 0 1.00207 583 107.055)"/><path d="M191.743 49.3137 194.11 48.6931 191.743 51.0953 191.743 49.3137Z" fill="#D9E256" transform="matrix(1 0 0 1.00207 583 107.055)"/><path d="M208.991 36.5542 212.256 36.164 208.06 38.8061 208.991 36.5542Z" fill="#D9E256" transform="matrix(1 0 0 1.00207 583 107.055)"/><path d="M194.814 34.0177 191.519 29.418 197.012 33.4579 194.814 34.0177Z" fill="#D9E256" transform="matrix(1 0 0 1.00207 583 107.055)"/><path d="M198.838 27.4701 195.415 25.6852 194.401 28.2729 199.289 31.6955 206.672 26.0179 204.448 24.6488 199.583 28.5448 198.838 27.4701Z" fill="#96637C" transform="matrix(1 0 0 1.00207 583 107.055)"/><path d="M197.469 24.5657 200.473 22.2466 201.698 24.5657 199.209 29.7891 197.469 24.5657Z" fill="#B3889D" transform="matrix(1 0 0 1.00207 583 107.055)"/><path d="M208.06 27.614 206.102 30.9726 200.972 32.0281 199.209 29.7891 208.06 27.614Z" fill="#B3889D" transform="matrix(1 0 0 1.00207 583 107.055)"/><path d="M206.275 49.6239 210.919 49.0002 213.344 42.2254 216.824 43.4058 213.856 52.4356 205.136 55.1576 206.275 49.6239Z" fill="#5BB68F" transform="matrix(1 0 0 1.00207 583 107.055)"/><path d="M207.497 55.1896 214.662 52.9186 214.463 50.7627 212.845 51.831 206.275 52.9186 207.497 55.1896Z" fill="#28835C" transform="matrix(1 0 0 1.00207 583 107.055)"/><path d="M198.873 80.3086 197.712 67.047 198.358 63.0071 197.204 61.2542 196.586 54.2332 196.557 34.9517 199.209 29.7891 202.657 32.7734 206.102 30.9726 208.991 36.5542 207.497 55.1896 204.017 78.8117 201.4 81.393 198.873 80.3086Z" fill="#33A474" transform="matrix(1 0 0 1.00207 583 107.055)"/><path d="M201.4 81.393 206.102 30.9726 199.209 29.7891 199.782 43.2618 200.287 43.7992 199.839 44.6308 200.293 55.3431 198.838 57.1504 200.473 59.5814 201.4 81.393Z" fill="#28835C" transform="matrix(1 0 0 1.00207 583 107.055)"/><path d="M207.497 55.1896 201.4 81.393 205.427 81.0219 207.497 55.1896Z" fill="#28835C" transform="matrix(1 0 0 1.00207 583 107.055)"/><path d="M199.209 29.7891 196.586 54.2332 194.814 34.0177 199.209 29.7891Z" fill="#5BB68F" transform="matrix(1 0 0 1.00207 583 107.055)"/><path d="M200.473 59.5814 197.712 67.047 197.204 61.2542 197.738 59.5814 200.473 59.5814Z" fill="#28835C" transform="matrix(1 0 0 1.00207 583 107.055)"/><path d="M200.473 59.5814 197.204 55.9861 190.358 55.4807 197.204 61.2542 200.473 59.5814Z" fill="#309B6E" transform="matrix(1 0 0 1.00207 583 107.055)"/><path d="M200.293 55.3431 193.448 53.2928 191.334 53.1585 190.358 55.4807 200.473 59.5814 200.293 55.3431Z" fill="#5BB68F" transform="matrix(1 0 0 1.00207 583 107.055)"/><path d="M193.448 53.2928 191.049 47.6951 188.724 48.5044 188.35 49.995 190.358 55.4807 193.448 53.2928Z" fill="#309B6E" transform="matrix(1 0 0 1.00207 583 107.055)"/><path d="M188.724 48.5044 190.358 55.4807 186.92 49.3744 188.724 48.5044Z" fill="#28835C" transform="matrix(1 0 0 1.00207 583 107.055)"/><path d="M212.845 51.831 210.919 49.0002 214.959 50.1837 212.845 51.831Z" fill="#28835C" transform="matrix(1 0 0 1.00207 583 107.055)"/><path d="M212.845 51.831 216.824 43.4058 218.193 48.1941 214.662 52.9186 212.845 51.831Z" fill="#33A474" transform="matrix(1 0 0 1.00207 583 107.055)"/><path d="M195.998 37.1268 190.899 36.4423 195.236 38.8061 195.998 37.1268Z" fill="#D9E256" transform="matrix(1 0 0 1.00207 583 107.055)"/><path d="M199.839 44.6308 203.105 42.6381 199.782 43.2618 199.839 44.6308Z" fill="#D9E256" transform="matrix(1 0 0 1.00207 583 107.055)"/><path d="M229.798 69.6507 233.208 53.3536 231.871 50.4172 228.016 52.9761 227.767 68.432 228.72 69.7243 229.798 69.6507Z" fill="#33A474" transform="matrix(1 0 0 1.00207 583 107.055)"/><path d="M231.871 50.4172 231.176 56.8721 230.783 57.2399 231.052 58.0236 229.798 69.6507 234.669 53.1585 231.871 50.4172Z" fill="#28835C" transform="matrix(1 0 0 1.00207 583 107.055)"/><path d="M228.016 52.9761 228.72 69.7243 227.181 69.8298 228.016 52.9761Z" fill="#28835C" transform="matrix(1 0 0 1.00207 583 107.055)"/><path d="M231.176 56.8721 229.446 56.0884 231.052 58.0236 231.176 56.8721Z" fill="#D9E256" transform="matrix(1 0 0 1.00207 583 107.055)"/><path d="M72.827 69.9194 69.8043 49.2945 68.8479 36.2791 70.3224 34.9645 72.392 35.2716 73.9465 31.7275 77.126 34.3919 78.044 48.3541 77.7561 71.8162 76.2176 72.2448 73.9465 72.0465 72.827 69.9194Z" fill="#33A474" transform="matrix(1 0 0 1.00207 583 107.055)"/><path d="M70.3224 34.9645 71.9282 48.3797 72.4751 48.7987 72.2128 49.9758 76.2176 72.2448 73.9465 31.7275 70.3224 34.9645Z" fill="#28835C" transform="matrix(1 0 0 1.00207 583 107.055)"/><path d="M69.8043 49.2945 73.9465 72.0465 72.3408 71.9058 69.8043 49.2945Z" fill="#28835C" transform="matrix(1 0 0 1.00207 583 107.055)"/><path d="M87.1889 41.9024 84.6396 45.6192 82.0903 45.117 84.4125 40.7605 87.1889 41.9024Z" fill="#5BB68F" transform="matrix(1 0 0 1.00207 583 107.055)"/><path d="M71.9282 48.3797 75.533 46.5148 72.2128 49.9758 71.9282 48.3797Z" fill="#D9E256" transform="matrix(1 0 0 1.00207 583 107.055)"/><path d="M73.9465 31.7275 78.044 48.3541 78.1751 33.3428 73.9465 31.7275Z" fill="#5BB68F" transform="matrix(1 0 0 1.00207 583 107.055)"/><path d="M35.8921 87.7199 39.1515 71.0005 40.9748 53.4495 39.9384 46.7643 36.8901 47.8199 34.9645 45.5201 31.2317 51.4216 29.5108 85.7144 31.2285 87.5824 35.8921 87.7199Z" fill="#33A474" transform="matrix(1 0 0 1.00207 583 107.055)"/><path d="M39.9384 46.7643 39.1515 71.0005 42.798 52.298 39.9384 46.7643Z" fill="#28835C" transform="matrix(1 0 0 1.00207 583 107.055)"/><path d="M35.5786 73.5371 39.11 71.2149 43.3866 70.5751 45.8623 67.7475 48.0822 65.179 50.446 67.2933 47.3945 72.9101 44.6628 75.4147 39.6058 74.2408 35.5786 73.5371Z" fill="#33A474" transform="matrix(1 0 0 1.00207 583 107.055)"/><path d="M35.7002 73.4923 37.7761 71.9122 43.3866 70.5751 44.6628 75.4147 38.2559 75.5874 35.7002 73.4923Z" fill="#28835C" transform="matrix(1 0 0 1.00207 583 107.055)"/><path d="M48.0822 65.179 46.6524 70.5751 43.3866 70.5751 45.4721 65.6012 48.0822 65.179Z" fill="#5BB68F" transform="matrix(1 0 0 1.00207 583 107.055)"/><path d="M43.3866 70.5751 35.7002 73.4923 37.0148 71.2149 43.3866 70.5751Z" fill="#5BB68F" transform="matrix(1 0 0 1.00207 583 107.055)"/><path d="M39.9384 46.7643 35.4411 54.2268 34.9645 45.5201 39.9384 46.7643Z" fill="#5BB68F" transform="matrix(1 0 0 1.00207 583 107.055)"/><path d="M35.4411 54.2268 35.5019 58.8808 35.8921 59.591 35.5275 60.6689 35.8921 87.7199 31.2285 87.5824 35.4411 54.2268Z" fill="#28835C" transform="matrix(1 0 0 1.00207 583 107.055)"/><path d="M48.0822 65.179 43.3866 70.5751 47.3945 72.9101 48.0822 65.179Z" fill="#28835C" transform="matrix(1 0 0 1.00207 583 107.055)"/><path d="M35.5019 58.8808 38.6302 58.513 35.5275 60.6689 35.5019 58.8808Z" fill="#D9E256" transform="matrix(1 0 0 1.00207 583 107.055)"/><path d="M212.845 97.2711 211.23 91.9901 214.547 97.2711 216.453 91.763 216.207 97.3351 219.437 91.9645 218.318 97.4054 221.302 94.8881 220.125 97.463 212.845 97.2711Z" fill="#2D9368" transform="matrix(1 0 0 1.00207 583 107.055)"/><path d="M227.456 87.1122 226.027 82.1383 228.723 87.0834 228.039 80.6701 230.543 87.0418 233.22 81.393 232.389 87.0002 235.146 83.7792 234.257 86.9618 227.456 87.1122Z" fill="#2D9368" transform="matrix(1 0 0 1.00207 583 107.055)"/><path d="M162.076 69.1485 160.461 65.8155 163.109 68.9822 162.668 64.5137 164.584 68.7423 166.154 66.1098 165.793 68.544 162.076 69.1485Z" fill="#2D9368" transform="matrix(1 0 0 1.00207 583 107.055)"/><path d="M50.6379 109.205 46.5884 101.538 53.0177 108.322 51.8118 98.2563 56.1012 107.177 56.7058 99.2639 58.7369 106.199 61.6989 100.982 61.3246 105.236 50.6379 109.205Z" fill="#2D9368" transform="matrix(1 0 0 1.00207 583 107.055)"/><path d="M49.6367 88.6699 47.6983 83.3122 51.4376 88.8171 51.0058 80.6925 53.5487 88.9898 57.7197 84.4413 56.4211 89.2265 49.6367 88.6699Z" fill="#2D9368" transform="matrix(1 0 0 1.00207 583 107.055)"/><path d="M13.9845 87.0706 12.6731 82.8548 15.6926 87.1218 15.5039 80.6925 17.6214 87.1793 21.1495 82.4517 19.9852 87.2497 13.9845 87.0706Z" fill="#2D9368" transform="matrix(1 0 0 1.00207 583 107.055)"/><path d="M57.7197 70.6199 56.4211 66.7016 58.9096 70.7223 58.4042 65.4797 60.5473 70.8662 62.4441 66.7655 62.0123 70.9974 57.7197 70.6199Z" fill="#2D9368" transform="matrix(1 0 0 1.00207 583 107.055)"/><path d="M93.2408 112.631 90.5283 107.548 95.3455 112.215 94.3411 105.559 97.978 111.694 100.681 106.72 99.9996 111.297 93.2408 112.631Z" fill="#2D9368" transform="matrix(1 0 0 1.00207 583 107.055)"/><path d="M198.355 96.7497 201.074 97.9972 203.137 96.9065 198.355 96.7497Z" fill="#1D2432" fill-opacity="0.1" transform="matrix(1 0 0 1.00207 583 107.055)"/><path d="M200.242 96.8105 199.459 92.23 200.45 91.7534 201.074 92.6043 200.242 96.8105Z" fill="#2B8B62" transform="matrix(1 0 0 1.00207 583 107.055)"/><path d="M199.459 92.23 198.173 89.8566 200.444 87.7103 203.767 88.7019 204.173 91.9645 201.074 92.6043 199.459 92.23Z" fill="#F4D75C" transform="matrix(1 0 0 1.00207 583 107.055)"/><path d="M199.878 90.2597 201.518 89.2841 202.27 90.2597 201.192 91.2992 199.878 90.2597Z" fill="#AF7546" transform="matrix(1 0 0 1.00207 583 107.055)"/><path d="M230.815 100.153 229.798 99.5518 227.514 100.489 229.772 100.978 230.815 100.153Z" fill="#1D2432" fill-opacity="0.1" transform="matrix(1 0 0 1.00207 583 107.055)"/><path d="M229.772 100.978 230.047 96.8105 228.307 96.8105 229.772 100.978Z" fill="#2B8B62" transform="matrix(1 0 0 1.00207 583 107.055)"/><path d="M230.047 96.8105 228.633 97.7413 225.86 95.4895 227.604 93.0105 231.416 94.2996 230.047 96.8105Z" fill="#F4D75C" transform="matrix(1 0 0 1.00207 583 107.055)"/><path d="M227.808 95.3743 228.307 94.2996 229.51 95.1152 228.432 96.3051 227.808 95.3743Z" fill="#AF7546" transform="matrix(1 0 0 1.00207 583 107.055)"/><path d="M215.177 89.2841 216.734 88.7691 215.177 88.478 213.59 88.881 215.177 89.2841Z" fill="#1D2432" fill-opacity="0.1" transform="matrix(1 0 0 1.00207 583 107.055)"/><path d="M215.177 89.2841 214.745 87.3937 215.768 86.8979 215.177 89.2841Z" fill="#2B8B62" transform="matrix(1 0 0 1.00207 583 107.055)"/><path d="M214.745 87.3937 213.405 86.5236 214.073 84.9083 215.644 84.3805 216.578 85.9607 215.65 87.3713 214.745 87.3937Z" fill="#F4D75C" transform="matrix(1 0 0 1.00207 583 107.055)"/><path d="M214.547 86.0886 215.084 85.4041 215.487 86.0886 214.991 86.658 214.547 86.0886Z" fill="#AF7546" transform="matrix(1 0 0 1.00207 583 107.055)"/><path d="M207.218 87.56 208.795 88.4108 210.017 87.496 207.218 87.56Z" fill="#1D2432" fill-opacity="0.1" transform="matrix(1 0 0 1.00207 583 107.055)"/><path d="M208.092 87.5408 209.502 85.1866 208.991 84.3805 208.418 84.8443 208.092 87.5408Z" fill="#2B8B62" transform="matrix(1 0 0 1.00207 583 107.055)"/><path d="M208.418 84.8443 209.502 85.1866 211.23 83.8911 210.286 81.6681 207.746 82.6693 208.418 84.8443Z" fill="#F4D75C" transform="matrix(1 0 0 1.00207 583 107.055)"/><path d="M208.795 83.1522 209.832 82.9507 210.017 83.728 209.24 84.099 208.795 83.1522Z" fill="#AF7546" transform="matrix(1 0 0 1.00207 583 107.055)"/><path d="M222.607 78.1399 223.848 78.6933 225.23 78.1144 223.666 77.964 222.607 78.1399Z" fill="#1D2432" fill-opacity="0.1" transform="matrix(1 0 0 1.00207 583 107.055)"/><path d="M223.666 77.964 224.619 75.7026 223.541 74.9861 223.666 77.964Z" fill="#2B8B62" transform="matrix(1 0 0 1.00207 583 107.055)"/><path d="M224.619 75.7026 223.541 75.4275 222.607 74.0905 224.226 72.4431 225.86 73.5531 225.656 75.0852 224.619 75.7026Z" fill="#F4D75C" transform="matrix(1 0 0 1.00207 583 107.055)"/><path d="M223.912 74.2152 224.235 73.6234 224.782 74.2152 224.235 74.679 223.912 74.2152Z" fill="#AF7546" transform="matrix(1 0 0 1.00207 583 107.055)"/><path d="M115.337 118.91 118.683 119.94 121.741 117.826 115.337 118.91Z" fill="#1D2432" fill-opacity="0.1" transform="matrix(1 0 0 1.00207 583 107.055)"/><path d="M118.635 118.35 116.649 112.964 118.03 111.486 119 112.11 118.635 118.35Z" fill="#2B8B62" transform="matrix(1 0 0 1.00207 583 107.055)"/><path d="M116.649 112.964 119 112.11 121.93 109.746 119 105.559 113.552 106.534 112.737 111.31 116.649 112.964Z" fill="#F4D75C" transform="matrix(1 0 0 1.00207 583 107.055)"/><path d="M115.107 110.283 116.569 107.692 118.712 109.042 116.911 110.949 115.107 110.283Z" fill="#AF7546" transform="matrix(1 0 0 1.00207 583 107.055)"/><path d="M83.2578 113.853 86.6964 112.039 89.3033 113.408 87.4384 114.608 86.2293 114.016 83.2578 113.853Z" fill="#1D2432" fill-opacity="0.1" transform="matrix(1 0 0 1.00207 583 107.055)"/><path d="M86.2293 114.016 87.4384 108.876 85.3241 107.385 86.2293 114.016Z" fill="#2B8B62" transform="matrix(1 0 0 1.00207 583 107.055)"/><path d="M87.4384 108.876 89.6775 105.962 85.7591 103.281 82.5893 107.385 85.6056 109.432 87.4384 108.876Z" fill="#F4D75C" transform="matrix(1 0 0 1.00207 583 107.055)"/><path d="M84.8059 106.72 86.5492 105.767 87.2529 106.72 85.7591 107.923 84.8059 106.72Z" fill="#AF7546" transform="matrix(1 0 0 1.00207 583 107.055)"/><path d="M78.4822 108.399 81.86 109.567 77.6953 110.699 74.164 109.205 72.0593 109.551 74.2312 107.385 78.4822 108.399Z" fill="#1D2432" fill-opacity="0.1" transform="matrix(1 0 0 1.00207 583 107.055)"/><path d="M77.9 109.468 79.1539 102.594 81.4953 102.894 77.9 109.468Z" fill="#2B8B62" transform="matrix(1 0 0 1.00207 583 107.055)"/><path d="M79.1539 102.594 80.8684 104.039 85.161 101.231 84.4349 97.8053 79.5026 95.9245 77.0172 99.4078 79.1539 102.594Z" fill="#F4D75C" transform="matrix(1 0 0 1.00207 583 107.055)"/><path d="M79.6177 100.294 80.5485 98.477 82.5605 99.6157 81.3226 101.487 79.6177 100.294Z" fill="#AF7546" transform="matrix(1 0 0 1.00207 583 107.055)"/><path d="M74.164 109.205 73.1373 105.559 74.3208 105.021 74.164 109.205Z" fill="#2B8B62" transform="matrix(1 0 0 1.00207 583 107.055)"/><path d="M73.1373 105.559 71.7075 104.43 73.262 102.514 75.6866 103.732 74.2824 106.029 73.1373 105.559Z" fill="#F4D75C" transform="matrix(1 0 0 1.00207 583 107.055)"/><path d="M73.0157 104.273 73.4507 103.531 74.3208 104.119 73.6682 104.929 73.0157 104.273Z" fill="#AF7546" transform="matrix(1 0 0 1.00207 583 107.055)"/><path d="M66.692 112.945 69.2349 111.486 72.0593 113.239 66.692 112.945Z" fill="#1D2432" fill-opacity="0.1" transform="matrix(1 0 0 1.00207 583 107.055)"/><path d="M69.8394 113.117 68.1857 108.668 66.692 109.567 69.8394 113.117Z" fill="#2B8B62" transform="matrix(1 0 0 1.00207 583 107.055)"/><path d="M66.692 109.567 68.384 109.205 69.3468 106.963 66.692 105.559 64.4977 107.923 66.692 109.567Z" fill="#F4D75C" transform="matrix(1 0 0 1.00207 583 107.055)"/><path d="M66.7975 108.399 66.4457 107.696 67.3157 107.053 67.6867 108.131 66.7975 108.399Z" fill="#AF7546" transform="matrix(1 0 0 1.00207 583 107.055)"/><path d="M65.8347 103.56 70.9718 101.653 68.9758 104.039 65.8347 103.56Z" fill="#1D2432" fill-opacity="0.1" transform="matrix(1 0 0 1.00207 583 107.055)"/><path d="M68.6559 102.514 66.4457 97.0216 68.1441 96.5642 68.6559 102.514Z" fill="#2B8B62" transform="matrix(1 0 0 1.00207 583 107.055)"/><path d="M70.2585 94.3283 67.1078 91.8814 63.666 93.1672 63.7908 96.5642 66.8711 98.0772 70.2585 94.3283Z" fill="#F4D75C" transform="matrix(1 0 0 1.00207 583 107.055)"/><path d="M65.4509 94.5746 66.4457 93.3496 67.5524 95.1984 65.9883 95.9021 65.4509 94.5746Z" fill="#AF7546" transform="matrix(1 0 0 1.00207 583 107.055)"/><path d="M35.8921 98.4194 38.4318 99.8588 40.9748 98.3874 35.8921 98.4194Z" fill="#1D2432" fill-opacity="0.1" transform="matrix(1 0 0 1.00207 583 107.055)"/><path d="M38.2591 98.4194 40.1815 94.6258 39.7497 93.0009 38.7133 93.8294 38.2591 98.4194Z" fill="#2B8B62" transform="matrix(1 0 0 1.00207 583 107.055)"/><path d="M40.1815 94.6258 41.8288 93.9541 42.798 91.3856 39.1515 89.3544 37.1812 91.7534 38.7133 93.8294 40.1815 94.6258Z" fill="#F4D75C" transform="matrix(1 0 0 1.00207 583 107.055)"/><path d="M39.1515 91.5903 39.545 92.793 40.7861 92.4635 40.1815 91.1361 39.1515 91.5903Z" fill="#AF7546" transform="matrix(1 0 0 1.00207 583 107.055)"/><path d="M159.632 91.424 174.448 94.2996 186.565 93.7974 173.54 90.1637 159.632 91.424Z" fill="#1D2432" fill-opacity="0.1" transform="matrix(1 0 0 1.00207 583 107.055)"/><path d="M188.414 74.9861 192.825 70.3768 192.39 73.7578 190.733 77.5354 189.751 76.7485 188.414 74.9861Z" fill="#886822" transform="matrix(1 0 0 1.00207 583 107.055)"/><path d="M189.556 75.7761 192.39 73.7578 191.724 77.2763 189.994 76.5534 189.556 75.7761Z" fill="#71561C" transform="matrix(1 0 0 1.00207 583 107.055)"/><path d="M168.07 76.4287 165.025 76.627 162.869 77.3051 161.51 79.3682 165.153 79.1155 166.947 78.5686 168.07 76.4287Z" fill="#D8A537" transform="matrix(1 0 0 1.00207 583 107.055)"/><path d="M164.987 76.6398 163.742 72.7758 161.51 73.6298 160.828 75.5266 161.51 79.3682 164.987 76.6398Z" fill="#947125" transform="matrix(1 0 0 1.00207 583 107.055)"/><path d="M163.742 72.7758 159.811 71.0229 158.193 74.6054 160.828 75.5266 163.742 72.7758Z" fill="#B68B2E" transform="matrix(1 0 0 1.00207 583 107.055)"/><path d="M171.246 83.3282 171.246 84.8827 175.878 87.7583 177.647 85.8871 174.998 83.4273 171.246 83.3282Z" fill="#9F7928" transform="matrix(1 0 0 1.00207 583 107.055)"/><path d="M181.664 91.0273 178.968 89.6423 179.988 87.7967 182.343 89.5272 181.664 91.0273Z" fill="#9F7928" transform="matrix(1 0 0 1.00207 583 107.055)"/><path d="M181.498 86.0854 181.664 91.0273 183.12 91.827 185.09 85.7879 183.897 85.1258 181.498 86.0854Z" fill="#B68B2E" transform="matrix(1 0 0 1.00207 583 107.055)"/><path d="M178.168 82.9891 178.75 81.0155 182.976 81.0859 182.976 84.227 181.498 86.0854 179.585 85.3209 178.168 82.9891Z" fill="#886822" transform="matrix(1 0 0 1.00207 583 107.055)"/><path d="M185.653 85.7176 181.498 86.0854 182.976 81.0859 183.136 80.2159 185.653 85.7176Z" fill="#FFF7AE" transform="matrix(1 0 0 1.00207 583 107.055)"/><path d="M171.246 83.3282 178.75 86.3285 178.168 82.9891 175.836 81.409 171.246 83.3282Z" fill="#E1CE7F" transform="matrix(1 0 0 1.00207 583 107.055)"/><path d="M180.538 73.1213 172.497 71.6979 169.183 74.9829 168.988 80.3182 171.246 83.3282 175.98 80.2159 180.538 73.1213Z" fill="#D8A537" transform="matrix(1 0 0 1.00207 583 107.055)"/><path d="M183.897 76.0448 180.538 73.1213 174.669 79.7329 180.401 79.6849 183.897 76.0448Z" fill="#B68B2E" transform="matrix(1 0 0 1.00207 583 107.055)"/><path d="M183.897 76.0448 174.669 79.7329 171.246 83.3282 178.168 82.9891 182.976 81.0859 184.092 78.3735 183.897 76.0448Z" fill="#9F7928" transform="matrix(1 0 0 1.00207 583 107.055)"/><path d="M182.976 81.0859 185.541 86.7891 186.91 88.3788 188.167 88.1357 189.242 86.8723 190.15 83.5969 182.976 81.0859Z" fill="#71561C" transform="matrix(1 0 0 1.00207 583 107.055)"/><path d="M186.216 82.5765 185.541 86.7891 186.773 89.5272 188.551 89.3608 189.242 86.8723 187.39 82.1383 186.216 82.5765Z" fill="#B3889D" transform="matrix(1 0 0 1.00207 583 107.055)"/><path d="M186.216 82.5765 187.054 86.4373 187.675 83.7792 186.216 82.5765Z" fill="#96637C" transform="matrix(1 0 0 1.00207 583 107.055)"/><path d="M184.553 75.8913 188.244 75.7026 191.724 77.2763 193.512 84.7324 193.186 86.3285 189.556 85.74 182.976 81.0859 183.808 78.3415 183.436 76.8445 184.553 75.8913Z" fill="#B68B2E" transform="matrix(1 0 0 1.00207 583 107.055)"/><path d="M184.553 75.8913 186.773 78.3415 191.724 77.2763 188.414 74.9861 184.553 75.8913Z" fill="#D8A537" transform="matrix(1 0 0 1.00207 583 107.055)"/><path d="M185.378 80.4718 187.22 79.2531 188.167 81.409 185.378 80.4718Z" fill="#9F7928" transform="matrix(1 0 0 1.00207 583 107.055)"/><path d="M190.637 81.0155 190.352 78.4822 192.271 79.5538 190.637 81.0155Z" fill="#9F7928" transform="matrix(1 0 0 1.00207 583 107.055)"/><path d="M187.393 80.3182C187.393 80.585 187.177 80.8012 186.91 80.8012 186.643 80.8012 186.427 80.585 186.427 80.3182 186.427 80.0515 186.643 79.8352 186.91 79.8352 187.177 79.8352 187.393 80.0515 187.393 80.3182Z" fill="#29303E" transform="matrix(1 0 0 1.00207 583 107.055)"/><path d="M191.667 79.7329C191.667 79.9996 191.45 80.2159 191.184 80.2159 190.917 80.2159 190.701 79.9996 190.701 79.7329 190.701 79.4661 190.917 79.2499 191.184 79.2499 191.45 79.2499 191.667 79.4661 191.667 79.7329Z" fill="#29303E" transform="matrix(1 0 0 1.00207 583 107.055)"/><path d="M191.062 85.1738 189.556 85.74 191.401 87.045 193.512 86.6548 193.512 84.7324 192.038 85.4905 191.062 85.1738Z" fill="#FFF7AE" transform="matrix(1 0 0 1.00207 583 107.055)"/><path d="M193.512 84.7324 191.062 85.1738 192.485 86.8435 193.512 84.7324Z" fill="#404857" transform="matrix(1 0 0 1.00207 583 107.055)"/><path d="M177.82 89.7351 174.135 88.5932 173.54 90.1637 176.627 91.9901 178.216 90.4196 177.82 89.7351Z" fill="#9F7928" transform="matrix(1 0 0 1.00207 583 107.055)"/><path d="M178.168 82.9891 181.498 86.0854 177.669 92.6043 176.627 91.9901 178.168 82.9891Z" fill="#B68B2E" transform="matrix(1 0 0 1.00207 583 107.055)"/><path d="M171.246 83.3282 168.358 86.4373 167.047 87.3105 164.91 87.045 166.56 84.3485 168.454 82.9891 171.246 83.3282Z" fill="#947125" transform="matrix(1 0 0 1.00207 583 107.055)"/><path d="M169.183 74.9829 165.153 79.1155 166.56 84.3485 171.246 83.3282 169.183 74.9829Z" fill="#B68B2E" transform="matrix(1 0 0 1.00207 583 107.055)"/><path d="M168.358 86.4373 171.781 90.442 169.877 91.763 164.91 87.045 168.358 86.4373Z" fill="#B68B2E" transform="matrix(1 0 0 1.00207 583 107.055)"/><path d="M184.553 75.8913 182.467 69.7275 180.538 73.1213 181.498 74.6118 181.418 77.0236 183.808 78.3415 184.553 75.8913Z" fill="#886822" transform="matrix(1 0 0 1.00207 583 107.055)"/><path d="M184.553 75.8913 180.538 73.1213 181.418 77.0236 184.553 75.8913Z" fill="#71561C" transform="matrix(1 0 0 1.00207 583 107.055)"/><path d="M114.82 76.1466C114.82 81.2062 108.944 85.3079 101.695 85.3079 94.4467 85.3079 88.5706 81.2062 88.5706 76.1466 88.5706 71.087 94.4467 66.9854 101.695 66.9854 108.944 66.9854 114.82 71.087 114.82 76.1466Z" fill="#787F8D" transform="matrix(0.128619 -0.993708 0.99166 0.128884 596.095 274.591)"/><path d="M100.271 89.1881 95.3455 88.7563 98.1859 62.6649 103.112 63.0967 100.271 89.1881Z" fill="#787F8D" transform="matrix(1 0 0 1.00207 583 107.055)"/><path d="M109.894 75.7116C109.894 80.7712 104.018 84.8729 96.7691 84.8729 89.5206 84.8729 83.6445 80.7712 83.6445 75.7116 83.6445 70.652 89.5206 66.5503 96.7691 66.5503 104.018 66.5503 109.894 70.652 109.894 75.7116Z" fill="#576071" transform="matrix(0.128619 -0.993708 0.99166 0.128884 592.231 269.318)"/><path d="M95.9405 83.0627C95.8989 83.0627 95.8541 83.0627 95.8125 83.0563 95.3231 82.9923 94.6962 82.3558 94.2164 81.4378 93.3687 79.8096 93.0521 77.5578 93.3496 75.2644 93.9285 70.799 96.4203 68.3904 97.591 68.3553 97.6326 68.3553 97.6773 68.3553 97.7189 68.3617 98.8928 68.5152 100.764 71.6659 100.182 76.1536 99.6029 80.6189 97.1112 83.0275 95.9405 83.0627Z" fill="#94D5D5" transform="matrix(1 0 0 1.00207 583 107.055)"/><path d="M106.051 60.912 104.689 62.2138 104.772 62.7864 104.132 62.7448 102.264 64.5265 102.261 64.9391 101.692 65.0734 99.9228 66.7655 100.057 67.3637 99.4142 67.2485 97.6581 68.9246 97.7765 69.4108 97.1592 69.4044 95.1568 71.3172 97.2583 72.843 101.506 70.9334 109.592 61.443 106.051 60.912Z" fill="#89909B" transform="matrix(1 0 0 1.00207 583 107.055)"/><path d="M101.944 68.7999 99.9228 66.7655 99.4142 67.2485 101.746 69.9194 101.944 68.7999Z" fill="#BBBFC6" transform="matrix(1 0 0 1.00207 583 107.055)"/><path d="M106.8 64.4209 104.689 62.2138 104.132 62.7448 105.818 64.4529 106.8 64.4209Z" fill="#BBBFC6" transform="matrix(1 0 0 1.00207 583 107.055)"/><path d="M97.1592 69.4044 99.395 71.8802 99.8716 71.6691 99.9996 71.3908 97.6581 68.9246 97.1592 69.4044Z" fill="#BBBFC6" transform="matrix(1 0 0 1.00207 583 107.055)"/><path d="M103.876 67.2421 104.462 66.4936 102.264 64.5265 101.692 65.0734 103.876 67.2421Z" fill="#BBBFC6" transform="matrix(1 0 0 1.00207 583 107.055)"/><path d="M83.0851 66.6504 84.3869 71.8962 98.0228 80.427 99.8012 79.1891 92.1149 72.1169 83.0851 66.6504Z" fill="#4FA9AA" transform="matrix(1 0 0 1.00207 583 107.055)"/><path d="M97.2583 72.843 87.7903 63.2406 83.0851 66.6504 99.8012 79.1891 101.129 77.2091 97.2583 72.843Z" fill="#72CBCC" transform="matrix(1 0 0 1.00207 583 107.055)"/><path d="M96.4427 54.0861 97.447 43.5753 101.145 44.0295 103.489 45.9039 105.364 44.5509 109.375 45.0467 110.206 47.4329 112.967 54.8186 101.704 54.7322 96.4427 54.0861Z" fill="#7A578A" transform="matrix(1 0 0 1.00207 583 107.055)"/><path d="M101.145 44.0295 104.206 53.2448 106.63 53.4495 106.55 50.9738 105.364 44.5509 101.145 44.0295Z" fill="#9F80AE" transform="matrix(1 0 0 1.00207 583 107.055)"/><path d="M117.813 61.6573 117.461 64.6 112.062 65.179 96.4427 54.0861 104.206 53.2448 115.906 59.6645 117.813 61.6573Z" fill="#96637C" transform="matrix(1 0 0 1.00207 583 107.055)"/><path d="M115.919 41.9024 112.014 49.1249 111.822 57.7453 128.065 55.1416 127.585 46.9659 115.919 41.9024Z" fill="#CC9C34" transform="matrix(1 0 0 1.00207 583 107.055)"/><path d="M128.065 55.1416 118.913 52.6051 112.535 50.7818 108.761 55.0393 111.358 59.8117 128.304 59.2647 128.065 55.1416Z" fill="#886822" transform="matrix(1 0 0 1.00207 583 107.055)"/><path d="M118.913 52.6051 110.206 47.4329 106.55 50.9738 111.358 59.8117 113.296 56.2803 118.913 52.6051Z" fill="#9F7928" transform="matrix(1 0 0 1.00207 583 107.055)"/><path d="M124.268 48.6164 123.993 54.0125 126.094 56.6418 128.065 55.1416 127.7 48.965 126.251 46.566 124.268 48.6164Z" fill="#AF7546" transform="matrix(1 0 0 1.00207 583 107.055)"/><path d="M123.993 54.0125 119.137 59.5622 128.304 59.2647 128.065 55.1416 123.993 54.0125Z" fill="#7C4F24" transform="matrix(1 0 0 1.00207 583 107.055)"/><path d="M112.062 65.179 104.743 69.9642 100.377 77.2347 107.75 79.6881 115.913 78.0792 116.329 72.683 112.062 65.179Z" fill="#404857" transform="matrix(1 0 0 1.00207 583 107.055)"/><path d="M108.687 34.3568 102.68 38.918 109.01 39.7529 108.687 34.3568Z" fill="#404857" transform="matrix(1 0 0 1.00207 583 107.055)"/><path d="M107.782 42.6477 108.687 34.3568 112.151 38.8733 112.494 40.2135 107.782 42.6477Z" fill="#5F6878" transform="matrix(1 0 0 1.00207 583 107.055)"/><path d="M112.151 38.8733 107.782 42.6477 115.919 41.9024 116.649 39.5066 112.151 38.8733Z" fill="#404857" transform="matrix(1 0 0 1.00207 583 107.055)"/><path d="M138.316 31.2988 141.39 34.4111 140.686 40.431 136.579 44.8355 135.828 39.03 138.316 31.2988Z" fill="#3D4554" transform="matrix(1 0 0 1.00207 583 107.055)"/><path d="M137.082 34.0177 139.733 39.4458 140.686 40.431 136.579 44.8355 135.828 39.03 137.082 34.0177Z" fill="#29303E" transform="matrix(1 0 0 1.00207 583 107.055)"/><path d="M138.316 31.2988 136.579 44.8355 122.742 42.7148 121.747 37.2419 123.164 28.2729 138.316 31.2988Z" fill="#B18D79" transform="matrix(1 0 0 1.00207 583 107.055)"/><path d="M122.742 42.7148 117.314 40.3574 118.357 28.7815 123.164 28.2729 122.742 42.7148Z" fill="#916A59" transform="matrix(1 0 0 1.00207 583 107.055)"/><path d="M136.08 35.9753 130.022 39.0748 125.266 33.6083 127.713 33.3428 130.048 34.7758 131.078 35.8761 132.587 35.182 134.465 34.9165 136.08 35.9753Z" fill="#916A59" transform="matrix(1 0 0 1.00207 583 107.055)"/><path d="M130.048 34.7758 132.587 35.182 132.3 39.449 130.671 39.5034 129.347 39.0972 130.048 34.7758Z" fill="#BA9E8E" transform="matrix(1 0 0 1.00207 583 107.055)"/><path d="M132.3 39.449 130.7 40.4214 129.347 39.0972 132.3 39.449Z" fill="#66483A" transform="matrix(1 0 0 1.00207 583 107.055)"/><path d="M128.436 36.2504C128.436 36.7326 128.045 37.1236 127.562 37.1236 127.08 37.1236 126.689 36.7326 126.689 36.2504 126.689 35.7681 127.08 35.3771 127.562 35.3771 128.045 35.3771 128.436 35.7681 128.436 36.2504Z" fill="#232A38" transform="matrix(1 0 0 1.00207 583 107.055)"/><path d="M135.233 37.2835C135.233 37.7658 134.842 38.1568 134.36 38.1568 133.877 38.1568 133.486 37.7658 133.486 37.2835 133.486 36.8013 133.877 36.4103 134.36 36.4103 134.842 36.4103 135.233 36.8013 135.233 37.2835Z" fill="#232A38" transform="matrix(1 0 0 1.00207 583 107.055)"/><path d="M125.266 33.6083 125.934 33.1381 129.52 33.4739 130.048 34.7758 125.266 33.6083Z" fill="#3D4554" transform="matrix(1 0 0 1.00207 583 107.055)"/><path d="M132.587 35.182 133.154 34.1456 135.818 35.0797 136.08 35.9753 132.587 35.182Z" fill="#3D4554" transform="matrix(1 0 0 1.00207 583 107.055)"/><path d="M132.658 30.8702 117.544 37.8241 118.357 28.7815 126.104 27.4701 132.658 30.8702Z" fill="#4B5464" transform="matrix(1 0 0 1.00207 583 107.055)"/><path d="M128.663 27.7387 119.428 36.9573 118.357 28.7815 126.404 27.4605 128.663 27.7387Z" fill="#343C4B" transform="matrix(1 0 0 1.00207 583 107.055)"/><path d="M137.568 22.7776 130.323 23.7212 124.844 20.5002 120.538 22.7872 119.921 24.3897 117.119 24.6041 112.497 27.0606 114.598 32.895 112.154 38.8765 125.682 46.4413 135.764 48.7123 142.698 45.1202 141.838 38.6973 143.834 34.731 141.07 29.4564 139.989 28.8903 139.73 26.8975 137.574 22.784ZM139.733 39.4458 132.069 44.8515 119.425 36.9573 118.312 34.0977 120.461 30.4832 132.655 30.8702 140.488 34.4431 141.47 37.0564 139.73 39.449Z" fill="#E6B64E" transform="matrix(1 0 0 1.00207 583 107.055)"/><path d="M124.84 20.497 132.658 30.8702 137.568 22.7776 124.84 20.497Z" fill="#F4D75C" transform="matrix(1 0 0 1.00207 583 107.055)"/><path d="M120.468 30.4832 112.494 27.0574 112.151 38.8733 119.428 36.9573 120.468 30.4832Z" fill="#CC9C34" transform="matrix(1 0 0 1.00207 583 107.055)"/><path d="M140.495 34.4399 143.831 34.7246 142.695 45.117 139.733 39.4458 140.495 34.4399Z" fill="#CC9C34" transform="matrix(1 0 0 1.00207 583 107.055)"/><path d="M132.031 43.5657 139.733 39.4458 142.695 45.117 136.531 49.8638 132.811 48.0438 131.257 46.0702 132.031 43.5657Z" fill="#B68B2E" transform="matrix(1 0 0 1.00207 583 107.055)"/><path d="M112.151 38.8733 119.428 36.9573 126.868 41.7968 130.937 43.0091 132.735 45.6192 131.215 48.3125 124.268 48.6164 112.151 38.8733Z" fill="#9F7928" transform="matrix(1 0 0 1.00207 583 107.055)"/><path d="M124.268 48.6164 132.735 45.6192 136.531 49.8638 131.852 51.1657 124.268 48.6164Z" fill="#7C4F24" transform="matrix(1 0 0 1.00207 583 107.055)"/><path d="M117.116 24.6041 121.942 26.7536 123.977 25.8387 120.538 22.784 117.116 24.6041Z" fill="#AF7546" transform="matrix(1 0 0 1.00207 583 107.055)"/><path d="M139.724 26.8911 137.481 28.8711 138.892 30.1953 141.067 29.4532 139.724 26.8911Z" fill="#AF7546" transform="matrix(1 0 0 1.00207 583 107.055)"/><path d="M114.275 45.6608 117.058 45.9647 118.913 52.6051 117.8 55.3783 113.296 56.2803 111.089 46.9755 114.275 45.6608Z" fill="#E4AE3A" transform="matrix(1 0 0 1.00207 583 107.055)"/><path d="M114.813 56.114 113.296 56.2803 110.206 47.4329 111.876 46.566 114.813 56.114Z" fill="#F4D75C" transform="matrix(1 0 0 1.00207 583 107.055)"/><path d="M139.733 39.4458 138.323 43.5209 132.735 45.6192 131.615 43.8855 132.002 42.6445 139.733 39.4458Z" fill="#F4D75C" transform="matrix(1 0 0 1.00207 583 107.055)"/><path d="M119.428 36.9573 120.765 41.4834 132.735 45.6192 132.002 42.6445 119.428 36.9573Z" fill="#E6B64E" transform="matrix(1 0 0 1.00207 583 107.055)"/><path d="M118.913 52.6051 123.142 57.096 120.816 58.8649 116.732 58.0588 113.296 56.2803 118.913 52.6051Z" fill="#AF7546" transform="matrix(1 0 0 1.00207 583 107.055)"/><path d="M104.743 69.9642 111.204 72.6607 114.061 77.5226 113.453 79.2211 106.889 80.1391 100.377 77.2347 104.743 69.9642Z" fill="#576071" transform="matrix(1 0 0 1.00207 583 107.055)"/><path d="M114.988 67.7923 109.304 71.8706 111.297 77.3787 114 76.8893 112.254 73.0989 116.034 70.348 114.988 67.7923Z" fill="#ABAFB8" transform="matrix(1 0 0 1.00207 583 107.055)"/><path d="M114.883 68.8575 110.437 72.2576 112.26 77.5834 112.685 77.3339 111.14 72.4591 115.036 69.2541 114.883 68.8575Z" fill="#787F8D" transform="matrix(1 0 0 1.00207 583 107.055)"/><path d="M117.813 61.6573 112.062 65.179 115.855 76.24 124.52 70.2936 117.813 61.6573Z" fill="#6C4D7B" transform="matrix(1 0 0 1.00207 583 107.055)"/><path d="M112.062 65.179 115.855 76.24 119 73.8697 112.062 65.179Z" fill="#9F80AE" transform="matrix(1 0 0 1.00207 583 107.055)"/><path d="M134.673 62.9911 117.506 59.85 117.813 61.6573 123.119 71.0485 134.673 62.9911Z" fill="#7A578A" transform="matrix(1 0 0 1.00207 583 107.055)"/><path d="M122.947 57.8573 147.976 62.9048 149.265 64.8463 145.523 64.9647 124.69 61.7181 121.418 59.9588 122.947 57.8573Z" fill="#72CBCC" transform="matrix(1 0 0 1.00207 583 107.055)"/><path d="M121.418 59.9588 122.537 61.7884 146.85 66.0554 149.265 64.8463 121.418 59.9588Z" fill="#359496" transform="matrix(1 0 0 1.00207 583 107.055)"/><path d="M116.732 58.0588 115.906 59.6645 117.813 61.6573 120.065 60.2627 118.9 58.7433 116.732 58.0588Z" fill="#359496" transform="matrix(1 0 0 1.00207 583 107.055)"/><path d="M116.732 58.0588 123.142 57.096 124.201 60.4482 119.367 60.026 116.732 58.0588Z" fill="#F4D75C" transform="matrix(1 0 0 1.00207 583 107.055)"/><path d="M124.201 60.4482 121.693 63.4101 117.813 61.6573 119.367 60.026 124.201 60.4482Z" fill="#D8A537" transform="matrix(1 0 0 1.00207 583 107.055)"/><path d="M144.582 60.7393 149.134 62.4569 150.075 65.1022 145.916 64.9519 143.754 62.3418 144.582 60.7393Z" fill="#F4D75C" transform="matrix(1 0 0 1.00207 583 107.055)"/><path d="M150.075 65.1022 147.279 67.6803 145.238 66.8711 145.219 64.1106 150.075 65.1022Z" fill="#D8A537" transform="matrix(1 0 0 1.00207 583 107.055)"/><path d="M151.012 75.1044 137.309 92.2588 120.311 89.2681 131.103 67.4596 151.012 75.1044Z" fill="#3D4554" transform="matrix(1 0 0 1.00207 583 107.055)"/><path d="M105.45 53.0401 106.467 62.6393 109.077 64.8719 112.062 65.179 113.296 56.2803 107.66 53.5359 105.45 53.0401Z" fill="#E4AE3A" transform="matrix(1 0 0 1.00207 583 107.055)"/><path d="M104.206 53.2448 106.467 62.6393 107.999 64.0755 106.167 53.3472 104.206 53.2448Z" fill="#F4D75C" transform="matrix(1 0 0 1.00207 583 107.055)"/><path d="M107.225 63.3398 103.438 67.2549 101.992 70.2617 105.06 70.9974 108.86 67.8403 109.084 65.0543 107.225 63.3398Z" fill="#9F7928" transform="matrix(1 0 0 1.00207 583 107.055)"/><path d="M106.55 50.9738 113.296 56.2803 104.206 53.2448 106.55 50.9738Z" fill="#AF7546" transform="matrix(1 0 0 1.00207 583 107.055)"/><path d="M107.82 63.634 102.373 70.041 101.944 68.7999 106.467 62.6393 107.82 63.634Z" fill="#E4AE3A" transform="matrix(1 0 0 1.00207 583 107.055)"/><path d="M106.467 62.6393 108.86 67.8403 112.062 65.179 106.467 62.6393Z" fill="#AF7546" transform="matrix(1 0 0 1.00207 583 107.055)"/><path d="M115.919 41.9024 117.058 45.9647 110.206 47.4329 115.919 41.9024Z" fill="#AF7546" transform="matrix(1 0 0 1.00207 583 107.055)"/><path d="M101.944 68.7999 97.2583 72.843 98.0612 74.2408 100.646 75.7378 103.361 74.6342 105.06 70.9974 101.944 68.7999Z" fill="#9B6533" transform="matrix(1 0 0 1.00207 583 107.055)"/><path d="M103.361 74.6342 105.274 77.5706 99.6669 77.2571 98.0612 74.2408 103.361 74.6342Z" fill="#CC9262" transform="matrix(1 0 0 1.00207 583 107.055)"/><path d="M151.295 91.4687C151.295 96.7032 145.216 100.947 137.716 100.947 130.217 100.947 124.138 96.7032 124.138 91.4687 124.138 86.2342 130.217 81.9908 137.716 81.9908 145.216 81.9908 151.295 86.2342 151.295 91.4687Z" fill="#787F8D" transform="matrix(0.128619 -0.993708 0.99166 0.128884 612.287 323.763)"/><path d="M136.244 104.961 131.148 104.513 134.084 77.5194 139.183 77.9672 136.244 104.961Z" fill="#787F8D" transform="matrix(1 0 0 1.00207 583 107.055)"/><path d="M146.2 91.0209C146.2 96.2554 140.12 100.499 132.621 100.499 125.121 100.499 119.042 96.2554 119.042 91.0209 119.042 85.7864 125.121 81.5429 132.621 81.5429 140.12 81.5429 146.2 85.7864 146.2 91.0209Z" fill="#576071" transform="matrix(0.128619 -0.993708 0.99166 0.128884 608.289 318.307)"/><path d="M131.762 98.6241C131.717 98.6241 131.676 98.6241 131.631 98.6177 131.122 98.5506 130.476 97.8948 129.981 96.9417 129.101 95.256 128.775 92.9273 129.082 90.5571 129.68 85.9351 132.258 83.4465 133.47 83.4081 133.515 83.4081 133.557 83.4081 133.601 83.4145 134.814 83.5713 136.752 86.8339 136.151 91.4751 135.553 96.0972 132.975 98.5858 131.762 98.6241Z" fill="#94D5D5" transform="matrix(1 0 0 1.00207 583 107.055)"/><path d="M124.431 81.345 141.195 83.9327 144.055 81.0091 143.818 73.6906 127.163 77.7433 124.431 81.345Z" fill="#7A578A" transform="matrix(1 0 0 1.00207 583 107.055)"/><path d="M143.818 73.6906 151.002 85.7975 141.195 83.9327 143.818 73.6906Z" fill="#9471A4" transform="matrix(1 0 0 1.00207 583 107.055)"/><path d="M134.603 71.8802 134.02 83.5745 132.616 88.0686 130.87 85.5192 130.23 75.7761 134.603 71.8802Z" fill="#4FA9AA" transform="matrix(1 0 0 1.00207 583 107.055)"/><path d="M134.02 83.5745 133.595 92.0733 131.404 93.6534 130.87 85.5192 134.02 83.5745Z" fill="#734D61" transform="matrix(1 0 0 1.00207 583 107.055)"/><path d="M136.531 49.8638 124.268 48.6164 133.646 61.4302 139.119 61.1167 144.672 60.7904 136.531 49.8638Z" fill="#68707F" transform="matrix(1 0 0 1.00207 583 107.055)"/><path d="M136.531 49.8638 139.973 61.0911 136.506 60.0516 134.759 49.6847 136.531 49.8638Z" fill="#787F8D" transform="matrix(1 0 0 1.00207 583 107.055)"/><path d="M132.859 49.4896 134.772 59.0568 133.621 58.4522 130.927 49.2945 132.859 49.4896Z" fill="#787F8D" transform="matrix(1 0 0 1.00207 583 107.055)"/><path d="M134.772 59.0568 127.956 65.8155 124.268 48.6164 134.772 59.0568Z" fill="#404857" transform="matrix(1 0 0 1.00207 583 107.055)"/><path d="M134.772 59.0568 111.297 77.3787 120.311 89.2681 134.603 71.8802 138.831 66.3145 134.772 59.0568Z" fill="#96637C" transform="matrix(1 0 0 1.00207 583 107.055)"/><path d="M134.772 59.0568 144.672 60.7904 151.012 75.1044 134.603 71.8802 134.772 59.0568Z" fill="#B3889D" transform="matrix(1 0 0 1.00207 583 107.055)"/><path d="M134.708 64.0435 146.85 66.0554 144.486 69.6507 141.944 68.3873 139.193 68.7583 134.708 64.0435Z" fill="#734D61" transform="matrix(1 0 0 1.00207 583 107.055)"/><path d="M139.193 68.7583 142.148 65.2782 144.486 69.6507 139.193 68.7583Z" fill="#F9FAFA" transform="matrix(1 0 0 1.00207 583 107.055)"/><path d="M117.24 75.3731 125.486 70.8086 124.62 74.0009 132.175 69.9418 123.011 78.7573 123.084 74.9829 116.649 78.962 117.24 75.3731Z" fill="#72CBCC" transform="matrix(1 0 0 1.00207 583 107.055)"/><path d="M111.297 77.3787 99.6669 77.2571 94.7634 81.0283 120.311 89.2681 124.322 84.3869 111.297 77.3787Z" fill="#734D61" transform="matrix(1 0 0 1.00207 583 107.055)"/><path d="M82.0839 79.0388 81.0891 75.5874 83.6544 75.6002 86.2293 79.0388 82.0839 79.0388Z" fill="#EEEFF1" transform="matrix(1 0 0 1.00207 583 107.055)"/><path d="M149.006 60.2083 153.516 59.5238 155.515 59.6421 150.558 60.413 149.006 60.2083Z" fill="#EEEFF1" transform="matrix(1 0 0 1.00207 583 107.055)"/></g></g></g></g></svg>