<svg width="401" height="184" xmlns="http://www.w3.org/2000/svg" xmlns:xlink="http://www.w3.org/1999/xlink" overflow="hidden"><defs><clipPath id="clip0"><rect x="874" y="59" width="401" height="184"/></clipPath><clipPath id="clip1"><rect x="1034" y="114" width="226" height="112"/></clipPath><clipPath id="clip2"><rect x="1034" y="114" width="226" height="112"/></clipPath><clipPath id="clip3"><rect x="1034" y="114" width="226" height="112"/></clipPath></defs><g clip-path="url(#clip0)" transform="translate(-874 -59)"><rect x="875" y="60" width="399" height="181" fill="#4472C4" fill-opacity="0"/><path d="M875 122.001C875 108.745 885.745 98 899.001 98L1250 98C1263.25 98 1274 108.745 1274 122.001L1274 217.999C1274 231.255 1263.25 242 1250 242L899.001 242C885.745 242 875 231.255 875 217.999Z" fill="#FFFFFF" fill-rule="evenodd"/><path d="M898.94 98 1160 98 1124.73 242 898.94 242C885.719 242 875 231.255 875 217.999L875 122.001C875 108.745 885.719 98 898.94 98Z" fill="#D5ABBF" fill-rule="evenodd"/><g clip-path="url(#clip1)"><g clip-path="url(#clip2)"><g clip-path="url(#clip3)"><path d="M3.4384 98.9772 26.4096 93.6432 46.5752 89.0932 86.0468 79.8196 200.018 95.354 218.865 98.1428 116.732 111.247 3.4384 98.9772Z" fill="#DDDFE2" transform="matrix(1.00893 0 0 1 1034 114)"/><path d="M3.4384 98.9772 25.2336 101.338 37.0804 99.7696 43.2236 95.8356 56.1372 95.5164 53.8468 91.6636 68.6588 86.8168 65.2988 84.6944 46.5752 89.0932 31.234 93.9904 26.4096 93.6432 3.4384 98.9772Z" fill="#1D2432" fill-opacity="0.1" transform="matrix(1.00893 0 0 1 1034 114)"/><path d="M99.722 109.362 103.023 106.764 105.89 108.956 152.508 98.9772 151.659 97.1712 125.745 95.018 121.934 93.8812 120.229 94.9508 100.632 97.1712 91.4424 94.178 69.2356 98.9772 70.2884 103.734 99.722 109.362Z" fill="#1D2432" fill-opacity="0.1" transform="matrix(1.00893 0 0 1 1034 114)"/><path d="M156.372 89.404 174.177 91.8316 200.018 95.354 218.462 98.084 204.305 100.01 187.468 99.9292 182.003 97.1712 170.209 97.1712 167.628 95.382 152.41 92.6912 156.372 89.404Z" fill="#1D2432" fill-opacity="0.1" transform="matrix(1.00893 0 0 1 1034 114)"/><path d="M26.4096 93.6432 25.8076 97.0116 37.0804 99.7696 38.8052 96.7064 26.4096 93.6432Z" fill="#4FA9AA" transform="matrix(1.00893 0 0 1 1034 114)"/><path d="M55.762 92.3412 56.1372 95.5164 37.0804 99.7696 37.3744 97.4652 45.6904 93.6432 55.762 92.3412Z" fill="#359496" transform="matrix(1.00893 0 0 1 1034 114)"/><path d="M26.4096 93.6432 46.5752 89.0932 55.762 92.3412 37.3744 97.4652 26.4096 93.6432Z" fill="#72CBCC" transform="matrix(1.00893 0 0 1 1034 114)"/><path d="M40.6252 94.178 38.0464 93.4416 34.9104 64.414 40.6252 63.4816 40.6252 94.178Z" fill="#88619A" transform="matrix(1.00893 0 0 1 1034 114)"/><path d="M38.7184 65.1224 40.6252 94.178 44.5452 93.212 44.884 64.2264 38.7184 65.1224Z" fill="#9F80AE" transform="matrix(1.00893 0 0 1 1034 114)"/><path d="M8.9488 21.7952 14.0308 22.7668 16.184 68.3004 15.4364 70.1176 11.634 68.0764 8.9488 21.7952Z" fill="#787F8D" transform="matrix(1.00893 0 0 1 1034 114)"/><path d="M65.9904 16.6768 58.03 13.5016 8.9488 21.7952 12.0932 23.3884 39.4296 21.0476 65.9904 16.6768Z" fill="#CCCFD4" transform="matrix(1.00893 0 0 1 1034 114)"/><path d="M14.7 26.8464 64.3356 19.6868 67.6004 58.2988 19.222 66.1864 14.7 26.8464Z" fill="#FFFFFF" transform="matrix(1.00893 0 0 1 1034 114)"/><path d="M63.6328 56.4704 18.8636 62.762 19.1716 67.3344 66.2116 58.8868 66.7352 56.7196 63.6328 56.4704Z" fill="#CCCFD4" transform="matrix(1.00893 0 0 1 1034 114)"/><path d="M65.6348 57.3552 63.6328 56.4704 61.3928 20.2244 63.5152 19.8044 65.2036 39.4996 65.6348 57.3552Z" fill="#787F8D" transform="matrix(1.00893 0 0 1 1034 114)"/><path d="M65.9904 16.6768 12.0932 23.3968 15.4364 70.1176 69.7396 60.7152ZM20.5912 64.8368 16.3072 27.7704 62.9244 21.0504 65.6348 57.358Z" fill="#9A9FA9" transform="matrix(1.00893 0 0 1 1034 114)"/><path d="M28.7308 47.8296 24.2368 47.8296 23.8812 45.8808 27.1208 45.5812 26.7848 43.0864 23.4864 43.7192 23.1448 41.8348 28.0644 40.8296 27.7928 37.968 19.502 40.3788 21.4928 50.848 28.9716 50.3496 28.7308 47.8296Z" fill="#359496" transform="matrix(1.00893 0 0 1 1034 114)"/><path d="M30.352 41.9272 34.0508 41.4428 34.1992 43.1228 30.5032 43.3972 30.352 41.9272Z" fill="#B3889D" transform="matrix(1.00893 0 0 1 1034 114)"/><path d="M30.8 44.9876 34.1992 44.408 34.4624 46.1804 30.9876 46.4856 30.8 44.9876Z" fill="#B3889D" transform="matrix(1.00893 0 0 1 1034 114)"/><path d="M36.5904 49.1176 34.6164 37.968 37.7664 37.464 40.6252 40.9388 42.5852 36.862 45.4552 37.072 45.1752 47.9416 42.798 48.5716 42.3052 42.2268 40.9724 45.4468 38.1584 42.2268 38.99 48.8264 36.5904 49.1176Z" fill="#E4AE3A" transform="matrix(1.00893 0 0 1 1034 114)"/><path d="M53.1776 36.932 47.46 36.456 47.25 47.2248 54.2388 47.1016 53.6788 43.7948 49.6468 44.6908 49.56 39.508 53.4548 39.0376 53.1776 36.932Z" fill="#86B264" transform="matrix(1.00893 0 0 1 1034 114)"/><path d="M54.2388 35.6216 56.686 33.6784 59.6372 35.4704 57.9572 38.6008 59.8976 38.7968 59.5252 40.6252 55.006 40.3648 57.358 36.568 56.6104 35.882 55.3784 37.1532 54.2388 35.6216Z" fill="#9471A4" transform="matrix(1.00893 0 0 1 1034 114)"/><path d="M111.135 54.8772 109.796 68.362 105.89 68.67 104.958 54.5776 111.135 54.8772Z" fill="#BBBFC6" transform="matrix(1.00893 0 0 1 1034 114)"/><path d="M79.2708 4.5752 83.356 1.4 142.299 3.416 144.39 5.8072 142.523 7.1512 82.6084 7.1512 79.2708 4.5752Z" fill="#CCCFD4" transform="matrix(1.00893 0 0 1 1034 114)"/><path d="M82.3424 9.3156 140.543 8.834 138.004 55.6724 84.1624 52.5476 82.3424 9.3156Z" fill="#FFFFFF" transform="matrix(1.00893 0 0 1 1034 114)"/><path d="M88.7348 49.4368 134.156 51.4696 137.964 53.3204 137.516 55.6724 84.1624 52.5476 84.4312 50.7052 88.7348 49.4368Z" fill="#CCCFD4" transform="matrix(1.00893 0 0 1 1034 114)"/><path d="M137.292 9.4668 134.156 51.4696 136.097 53.9924 137.292 54.5888 140.28 9.4668 137.292 9.4668Z" fill="#787F8D" transform="matrix(1.00893 0 0 1 1034 114)"/><path d="M86.2708 9.4668 88.7348 49.4368 86.1196 51.0916 84.7 46.522 83.356 9.7664 86.2708 9.4668Z" fill="#787F8D" transform="matrix(1.00893 0 0 1 1034 114)"/><path d="M79.2708 4.5752 81.116 55.8964 140.756 57.0472 144.396 5.8072ZM136.111 53.9924 86.1196 51.0916 84.4396 10.962 138.463 10.514Z" fill="#9A9FA9" transform="matrix(1.00893 0 0 1 1034 114)"/><path d="M114.251 24.3068C114.251 29.0465 110.409 32.8888 105.669 32.8888 100.929 32.8888 97.0872 29.0465 97.0872 24.3068 97.0872 19.5671 100.929 15.7248 105.669 15.7248 110.409 15.7248 114.251 19.5671 114.251 24.3068Z" fill="#72CBCC" transform="matrix(1.00893 0 0 1 1034 114)"/><path d="M115.312 36.0024C115.313 40.6896 111.514 44.4895 106.826 44.49 102.139 44.4906 98.3394 40.6913 98.3388 36.0041 98.3385 34.1331 98.9568 32.3142 100.097 30.8308 101.648 28.8148 104.087 28.98 106.817 28.98 108.956 28.98 110.911 28.308 112.417 29.6128 114.261 31.2236 115.317 33.5541 115.312 36.0024Z" fill="#F4D75C" transform="matrix(1.00893 0 0 1 1034 114)"/><path d="M128.545 29.1312C128.545 34.5977 124.114 39.0292 118.647 39.0292 113.181 39.0292 108.749 34.5977 108.749 29.1312 108.749 23.6647 113.181 19.2332 118.647 19.2332 124.114 19.2332 128.545 23.6647 128.545 29.1312Z" fill="#9471A4" transform="matrix(1.00893 0 0 1 1034 114)"/><path d="M112.062 30.0244 112.193 29.8732C112.263 29.7892 112.336 29.7024 112.403 29.6156 112.286 29.5128 112.165 29.412 112.042 29.3132L111.93 29.2292C111.779 29.1116 111.622 29.0024 111.46 28.896L111.364 28.8372C111.194 28.728 111.02 28.6244 110.841 28.5264L110.782 28.4956C110.169 28.1725 109.52 27.9251 108.847 27.7592L108.847 27.7592C108.783 28.2136 108.751 28.6723 108.749 29.1312 108.745 30.1442 108.897 31.152 109.2 32.1188L109.25 32.0964C109.399 32.0264 109.53 31.9564 109.687 31.878L109.78 31.8304C110.113 31.647 110.434 31.4423 110.74 31.2172L110.844 31.1388C110.956 31.052 111.065 30.9652 111.171 30.8756L111.314 30.7524C111.406 30.6712 111.499 30.5872 111.594 30.5004L111.731 30.3688C111.849 30.2568 111.958 30.142 112.062 30.0244Z" fill="#CCCFD4" transform="matrix(1.00893 0 0 1 1034 114)"/><path d="M108.847 27.7592 108.847 27.7592C109.916 28.5802 111.119 29.2082 112.403 29.6156 114.409 27.0822 114.817 23.6344 113.456 20.7032 110.94 22.2534 109.249 24.8463 108.844 27.7732 108.846 27.7686 108.847 27.7639 108.847 27.7592Z" fill="#4298B4" transform="matrix(1.00893 0 0 1 1034 114)"/><path d="M109.043 29.12C109.059 28.6546 108.993 28.1904 108.847 27.748L108.847 27.748C108.185 27.5868 107.507 27.505 106.826 27.5044 104.192 27.5055 101.709 28.7305 100.106 30.8196 102.635 32.9818 106.187 33.4838 109.217 32.1076 109.315 31.0296 109.043 30.1728 109.043 29.12Z" fill="#86B264" transform="matrix(1.00893 0 0 1 1034 114)"/><path d="M112.403 29.6156C111.098 30.6572 109.83 31.4216 109.211 32.1188L109.211 32.1188C110.113 34.9476 112.233 37.2249 114.99 38.3264 115.892 35.1674 114.884 31.7719 112.406 29.6156Z" fill="#96637C" transform="matrix(1.00893 0 0 1 1034 114)"/><path d="M112.403 29.6156C111.384 28.7199 110.165 28.0832 108.847 27.7592L108.847 27.7592C108.783 28.2136 108.751 28.6723 108.749 29.1312 108.745 30.1442 108.897 31.152 109.2 32.1188 110.453 31.5532 111.551 30.6947 112.403 29.6156Z" fill="#CCCFD4" transform="matrix(1.00893 0 0 1 1034 114)"/><path d="M167.628 95.382 167.44 98.0868 187.468 99.9292 189.608 97.2636 167.628 95.382Z" fill="#4FA9AA" transform="matrix(1.00893 0 0 1 1034 114)"/><path d="M199.534 92.0052 200.018 95.354 187.468 99.9292 187.746 97.9832 191.982 95.0376 199.534 92.0052Z" fill="#359496" transform="matrix(1.00893 0 0 1 1034 114)"/><path d="M167.628 95.382 177.962 89.7792 199.534 92.0052 187.746 97.9832 167.628 95.382Z" fill="#72CBCC" transform="matrix(1.00893 0 0 1 1034 114)"/><path d="M185.046 95.088 187.622 94.1724 189.022 59.6848 182.003 60.5724 185.046 95.088Z" fill="#88619A" transform="matrix(1.00893 0 0 1 1034 114)"/><path d="M177.873 61.6728 179.892 94.1724 185.046 95.088 184.484 62.2328 177.873 61.6728Z" fill="#9F80AE" transform="matrix(1.00893 0 0 1 1034 114)"/><path d="M160.09 19.8968 157.926 57.0192 205.582 63.4424 208.508 23.0944 160.09 19.8968Z" fill="#FFFFFF" transform="matrix(1.00893 0 0 1 1034 114)"/><path d="M162.828 54.208 205.111 58.5564 204.439 62.7564 158.718 56.5376 158.421 55.4176 162.828 54.208Z" fill="#CCCFD4" transform="matrix(1.00893 0 0 1 1034 114)"/><path d="M164.545 20.6052 162.828 54.208 159.981 55.7732 158.718 52.206 160.362 21.0336 164.545 20.6052Z" fill="#787F8D" transform="matrix(1.00893 0 0 1 1034 114)"/><path d="M216.877 17.654 212.825 65.4136 209.401 66.8724 210.378 19.5608 216.877 17.654Z" fill="#787F8D" transform="matrix(1.00893 0 0 1 1034 114)"/><path d="M157.441 16.2148 162.193 14.182 216.877 17.654 212.668 21.0336 171.046 19.446 157.441 16.2148Z" fill="#CCCFD4" transform="matrix(1.00893 0 0 1 1034 114)"/><path d="M157.441 16.2148 154.28 59.8584 209.415 66.8724 212.668 21.0336ZM203.767 61.6756 159.981 55.7732 161.969 21.6636 206.455 24.6008Z" fill="#9A9FA9" transform="matrix(1.00893 0 0 1 1034 114)"/><path d="M169.103 29.1956 202.196 31.2872 201.916 32.6704 168.86 30.4276 169.103 29.1956Z" fill="#CCCFD4" transform="matrix(1.00893 0 0 1 1034 114)"/><path d="M168.748 33.7344 201.86 36.3692 201.244 37.7692 168.692 34.7984 168.748 33.7344Z" fill="#CCCFD4" transform="matrix(1.00893 0 0 1 1034 114)"/><path d="M168.636 37.8812 200.908 41.1852 200.684 42.364 168.188 39.5612 168.636 37.8812Z" fill="#CCCFD4" transform="matrix(1.00893 0 0 1 1034 114)"/><path d="M168.244 42.588 200.404 45.836 200.124 46.9588 168.076 44.044 168.244 42.588Z" fill="#CCCFD4" transform="matrix(1.00893 0 0 1 1034 114)"/><path d="M167.852 47.5748 199.844 50.4868 199.564 52.3936 167.628 48.8068 167.852 47.5748Z" fill="#CCCFD4" transform="matrix(1.00893 0 0 1 1034 114)"/><path d="M180.272 29.9012 175.602 27.5156 174.216 34.1684 171.718 32.1832 167.908 33.9024 171.419 38.1892 176.274 36.554 176.873 30.9344 179.301 32.2952 180.272 29.9012Z" fill="#96637C" transform="matrix(1.00893 0 0 1 1034 114)"/><path d="M179.712 38.0492 188.42 36.5988 188.67 49.4704 184.548 51.4948 181.16 48.7872 183.736 45.4664 185.651 46.7152 186.696 39.7292 181.056 39.8048 179.897 48.6696 175.638 50.5624 172.614 48.0088 176.086 44.772 177.954 46.004 179.712 38.0492Z" fill="#E6B64E" transform="matrix(1.00893 0 0 1 1034 114)"/><path d="M196.935 35.9772 199.844 35.0224 198.388 45.6344 193.598 47.9108 190.487 44.8616 193.962 41.748 196.538 43.176 196.935 35.9772Z" fill="#4FA9AA" transform="matrix(1.00893 0 0 1 1034 114)"/><path d="M123.281 95.578 125.745 95.018 128.548 74.536 124.177 75.7708 121.934 84.8456 123.281 95.578Z" fill="#787F8D" transform="matrix(1.00893 0 0 1 1034 114)"/><path d="M118.63 75.432 120.229 94.9508 123.281 95.578 124.177 75.7708 118.63 75.432Z" fill="#ABAFB8" transform="matrix(1.00893 0 0 1 1034 114)"/><path d="M152.508 98.9772 155.428 98.154 157.912 75.1324 152.216 76.832 152.508 98.9772Z" fill="#787F8D" transform="matrix(1.00893 0 0 1 1034 114)"/><path d="M153.504 76.7032 152.508 98.9772 149.159 98.2352 147.602 77.2996 153.504 76.7032Z" fill="#ABAFB8" transform="matrix(1.00893 0 0 1 1034 114)"/><path d="M95.6648 93.7356 97.7564 96.4264 100.632 95.6788 100.313 86.7132 92.498 86.0412 95.6648 93.7356Z" fill="#916A59" transform="matrix(1.00893 0 0 1 1034 114)"/><path d="M89.2304 88.662 91.798 96.6504 94.1136 97.1712 95.6648 93.7356 96.5412 84.812 89.2304 88.662Z" fill="#B18D79" transform="matrix(1.00893 0 0 1 1034 114)"/><path d="M91.798 96.6504 91.798 99.1144 97.7564 99.9936 103.023 99.1144 95.6648 93.7356 91.798 96.6504Z" fill="#96637C" transform="matrix(1.00893 0 0 1 1034 114)"/><path d="M91.798 99.1144 103.026 99.1144 103.026 100.906 91.798 100.906Z" fill="#734D61" transform="matrix(1.00893 0 0 1 1034 114)"/><path d="M103.124 109.74 105.89 108.956 108.755 87.3852 103.023 90.9916 103.124 109.74Z" fill="#787F8D" transform="matrix(1.00893 0 0 1 1034 114)"/><path d="M84.4312 100.596 86.8728 99.9936 89.2304 88.662 81.9364 87.3852 84.4312 100.596Z" fill="#4B5464" transform="matrix(1.00893 0 0 1 1034 114)"/><path d="M84.1652 90.076 84.4312 100.596 81.564 99.9992 80.15 87.7604 84.1652 90.076Z" fill="#5F6878" transform="matrix(1.00893 0 0 1 1034 114)"/><path d="M84.1652 90.076 89.2304 88.662 88.3988 83.5576 81.9364 85.0696 84.1652 90.076Z" fill="#4B5464" transform="matrix(1.00893 0 0 1 1034 114)"/><path d="M70.6636 87.8724 80.8332 90.636 84.1652 90.076 84.1232 85.7416 69.7396 82.5356 70.6636 87.8724Z" fill="#5F6878" transform="matrix(1.00893 0 0 1 1034 114)"/><path d="M70.2884 103.734 72.674 102.992 74.6144 80.3628 70.1344 80.6624 69.2356 90.076 70.2884 103.734Z" fill="#787F8D" transform="matrix(1.00893 0 0 1 1034 114)"/><path d="M64.9096 81.1216 67.3008 103.135 70.2884 103.734 70.1344 80.6624 64.9096 81.1216Z" fill="#ABAFB8" transform="matrix(1.00893 0 0 1 1034 114)"/><path d="M104.079 91.98 103.124 109.74 99.722 109.362 97.8488 89.18 104.079 91.98Z" fill="#ABAFB8" transform="matrix(1.00893 0 0 1 1034 114)"/><path d="M65.2036 51.4696 67.158 51.2036 81.116 59.5504 74.5416 77.0028 68.9388 79.1672 65.2036 51.4696Z" fill="#B3889D" transform="matrix(1.00893 0 0 1 1034 114)"/><path d="M65.2036 51.4696 70.1344 77.3752 66.4972 80.2704 61.3928 56.6944 65.2036 51.4696Z" fill="#96637C" transform="matrix(1.00893 0 0 1 1034 114)"/><path d="M59.8976 75.1324 61.2444 82.4124 104.079 91.98 106.495 88.69 106.758 83.5576 59.8976 75.1324Z" fill="#4FA9AA" transform="matrix(1.00893 0 0 1 1034 114)"/><path d="M104.854 87.0072 133.409 73.9396 164.78 68.0316 163.663 76.3168 104.079 91.98 104.854 87.0072Z" fill="#359496" transform="matrix(1.00893 0 0 1 1034 114)"/><path d="M98.2548 62.3476 103.152 68.9332 95.046 69.3364 94.5616 62.7284 98.2548 62.3476Z" fill="#916A59" transform="matrix(1.00893 0 0 1 1034 114)"/><path d="M94.6372 57.3552 98.2548 62.3476 93.0776 65.1224 94.6372 57.3552Z" fill="#7A578A" transform="matrix(1.00893 0 0 1 1034 114)"/><path d="M73.962 57.0556 72.9708 75.1324 81.116 70.9492 79.534 64.0024 73.962 57.0556Z" fill="#6C4D7B" transform="matrix(1.00893 0 0 1 1034 114)"/><path d="M91.1736 55.8964 94.6372 57.3552 95.9336 69.2328 81.116 70.9492 73.962 57.0556 79.198 51.6768 91.1736 55.8964Z" fill="#8E699F" transform="matrix(1.00893 0 0 1 1034 114)"/><path d="M91.1736 55.8964 90.3896 62.7284 79.534 54.8772 78.2768 50.7808 87.3516 50.5568 91.1736 55.8964Z" fill="#B18D79" transform="matrix(1.00893 0 0 1 1034 114)"/><path d="M95.9336 30.2932 97.7564 39.4996 101.962 32.0712 95.9336 30.2932Z" fill="#2E3544" transform="matrix(1.00893 0 0 1 1034 114)"/><path d="M97.916 31.7184 100.954 43.8536 103.751 50.1844 98.8568 50.1844 94.3376 51.6768 88.8216 56.4704 82.2724 51.7888 82.67 35.5628 86.2708 30.9092 95.9056 29.4896 97.916 31.7184Z" fill="#B18D79" transform="matrix(1.00893 0 0 1 1034 114)"/><path d="M82.67 35.5628 90.454 53.396 91.1736 55.8964 89.1828 58.548 80.8164 52.4244 79.3968 39.7992 82.67 35.5628Z" fill="#916A59" transform="matrix(1.00893 0 0 1 1034 114)"/><path d="M94.3376 51.6768 87.5756 53.9168 91.1736 55.8964 94.3376 51.6768Z" fill="#66483A" transform="matrix(1.00893 0 0 1 1034 114)"/><path d="M97.7564 37.2568 93.5536 44.2428 88.3988 40.0232 90.1628 38.724 92.134 38.528 93.254 38.6036 94.1136 37.8196 95.6452 37.072 97.7564 37.2568Z" fill="#916A59" transform="matrix(1.00893 0 0 1 1034 114)"/><path d="M92.134 38.528 94.1136 37.8196 96.5412 43.2712 95.1412 44.1504 93.5536 44.2428 92.134 38.528Z" fill="#BA9E8E" transform="matrix(1.00893 0 0 1 1034 114)"/><path d="M96.5412 43.2712 95.3652 44.786 93.5536 44.2428 96.5412 43.2712Z" fill="#66483A" transform="matrix(1.00893 0 0 1 1034 114)"/><path d="M91.4424 41.2916C91.4424 41.6627 91.1415 41.9636 90.7704 41.9636 90.3993 41.9636 90.0984 41.6627 90.0984 41.2916 90.0984 40.9205 90.3993 40.6196 90.7704 40.6196 91.1415 40.6196 91.4424 40.9205 91.4424 41.2916Z" fill="#232A38" transform="matrix(1.00893 0 0 1 1034 114)"/><path d="M97.2888 39.4996C97.2888 39.8707 96.9879 40.1716 96.6168 40.1716 96.2457 40.1716 95.9448 39.8707 95.9448 39.4996 95.9448 39.1285 96.2457 38.8276 96.6168 38.8276 96.9879 38.8276 97.2888 39.1285 97.2888 39.4996Z" fill="#232A38" transform="matrix(1.00893 0 0 1 1034 114)"/><path d="M88.3988 40.0232 92.134 38.528 91.3108 37.7636 88.7712 39.1832 88.3988 40.0232Z" fill="#454D5D" transform="matrix(1.00893 0 0 1 1034 114)"/><path d="M94.1136 37.8196 97.7564 37.2568 97.2328 36.7248 94.3376 36.8648 94.1136 37.8196Z" fill="#454D5D" transform="matrix(1.00893 0 0 1 1034 114)"/><path d="M92.134 47.2136 94.822 48.1572 97.2888 47.4096 98.3724 45.3628 95.3932 46.6956 92.134 47.2136Z" fill="#734D61" transform="matrix(1.00893 0 0 1 1034 114)"/><path d="M92.134 47.2136 93.982 46.5332 95.4296 45.3544 97.1572 45.5028 98.3724 45.3628 95.9448 46.8916 92.134 47.2136Z" fill="#543042" transform="matrix(1.00893 0 0 1 1034 114)"/><path d="M101.962 32.0712 94.3376 31.3572 88.1356 38.1556 84.1232 38.892 82.0484 44.03 85.0556 49.6216 79.534 54.8772 73.794 52.3292 71.4952 47.6056 71.9628 38.15 75.3256 36.5848 76.1348 34.8292 80.0268 25.5948 83.4596 25.5024 87.1416 23.5984 90.7704 25.7544 92.47 27.5464 97.2888 26.2024 101.962 32.0712Z" fill="#454D5D" transform="matrix(1.00893 0 0 1 1034 114)"/><path d="M97.2888 26.2024 94.3376 31.3572 76.1348 34.8292 90.7704 25.7544 97.2888 26.2024Z" fill="#5F6878" transform="matrix(1.00893 0 0 1 1034 114)"/><path d="M87.1416 23.5984 85.078 29.2852 80.0268 25.5948 87.1416 23.5984Z" fill="#5F6878" transform="matrix(1.00893 0 0 1 1034 114)"/><path d="M84.1232 38.892 76.1348 34.8292 71.9628 38.15 84.1232 38.892Z" fill="#5F6878" transform="matrix(1.00893 0 0 1 1034 114)"/><path d="M84.1232 38.892 71.4952 47.6056 85.0556 49.6216 84.1232 38.892Z" fill="#343C4B" transform="matrix(1.00893 0 0 1 1034 114)"/><path d="M94.3376 31.3572 84.1232 38.892 88.7712 39.1832 94.3376 31.3572Z" fill="#2E3544" transform="matrix(1.00893 0 0 1 1034 114)"/><path d="M79.534 54.8772 73.962 57.0556 67.158 51.2036 71.4952 47.6056 79.534 54.8772Z" fill="#5F6878" transform="matrix(1.00893 0 0 1 1034 114)"/><path d="M82.3032 61.3088 84.4032 66.094 83.2636 68.67 78.8004 71.2432 76.482 64.2264 78.0444 62.1432 82.3032 61.3088Z" fill="#B18D79" transform="matrix(1.00893 0 0 1 1034 114)"/><path d="M79.534 54.8772 82.3032 61.3088 76.482 64.2264 73.962 57.0556 79.534 54.8772Z" fill="#7A578A" transform="matrix(1.00893 0 0 1 1034 114)"/><path d="M59.8976 75.1324 125.042 61.7624 164.78 68.0316 104.854 87.0072 59.8976 75.1324Z" fill="#94D5D5" transform="matrix(1.00893 0 0 1 1034 114)"/><path d="M78.8004 71.2432 90.6024 74.1384 96.7652 71.2432 98.5404 70.1176 100.954 70.2408 109.427 68.8716 103.897 66.094 78.8004 71.2432Z" fill="#1D2432" fill-opacity="0.1" transform="matrix(1.00893 0 0 1 1034 114)"/><path d="M97.188 68.6896 98.5404 54.376 100.016 53.3204 101.962 54.1044 103.023 55.8964 104.079 68.194 97.188 68.6896Z" fill="#B18D79" transform="matrix(1.00893 0 0 1 1034 114)"/><path d="M102.256 49.0616 98.8568 50.1844 100.408 53.0404 102.822 53.5416 105.563 49.6216 103.751 48.4372 102.256 49.0616Z" fill="#916A59" transform="matrix(1.00893 0 0 1 1034 114)"/><path d="M98.8568 50.1844 102.822 53.5416 103.023 55.8964 98.5404 54.376 98.8568 50.1844Z" fill="#734D61" transform="matrix(1.00893 0 0 1 1034 114)"/><path d="M105.563 49.6216 103.152 45.3544 100.954 43.8536 102.256 49.0616 105.563 49.6216Z" fill="#BA9E8E" transform="matrix(1.00893 0 0 1 1034 114)"/><path d="M84.4032 66.094 91.4984 67.004 92.7864 68.7596 90.1404 71.0164 78.8004 71.2432 84.4032 66.094Z" fill="#BA9E8E" transform="matrix(1.00893 0 0 1 1034 114)"/><path d="M94.8556 67.4324 97.4148 66.276 98.5404 68.3928 96.7652 71.2432 93.4024 70.9492 93.5564 69.202 94.8556 67.4324Z" fill="#B18D79" transform="matrix(1.00893 0 0 1 1034 114)"/><path d="M97.4148 66.276 104.079 68.194 100.954 70.2408 96.7652 71.2432 97.4148 66.276Z" fill="#916A59" transform="matrix(1.00893 0 0 1 1034 114)"/><path d="M94.8556 67.4324 91.4984 67.004 90.1404 71.0164 93.4024 70.9492 94.8556 67.4324Z" fill="#734D61" transform="matrix(1.00893 0 0 1 1034 114)"/><path d="M98.8428 78.7864 93.4584 74.3064 92.918 77.7224 97.1768 81.9504 97.9776 80.9172 98.8428 78.7864Z" fill="#DDDFE2" transform="matrix(1.00893 0 0 1 1034 114)"/><path d="M121.537 76.118 107.316 75.9304 97.4932 79.4192 97.1768 81.9504 121.828 80.0772 121.537 76.118Z" fill="#F9FAFA" transform="matrix(1.00893 0 0 1 1034 114)"/><path d="M93.4584 74.3064 113.257 70.9996 121.537 76.118 97.4932 79.4192 93.4584 74.3064Z" fill="#86B264" transform="matrix(1.00893 0 0 1 1034 114)"/><path d="M111.054 72.6796 112.098 72.5312 115.422 75.0344 113.854 75.334 111.054 72.6796Z" fill="#648E43" transform="matrix(1.00893 0 0 1 1034 114)"/><path d="M108.959 73.7968 109.858 73.5756 111.46 75.0708 110.082 75.2108 108.959 73.7968Z" fill="#648E43" transform="matrix(1.00893 0 0 1 1034 114)"/><path d="M133.039 65.5788 114.433 61.7624 115.03 67.004 130.942 70.9492 132.289 68.67 133.039 65.5788Z" fill="#DDDFE2" transform="matrix(1.00893 0 0 1 1034 114)"/><path d="M150.553 60.8832 149.705 65.6516 130.942 70.9492 131.617 67.004 139.087 62.3476 150.553 60.8832Z" fill="#EEEFF1" transform="matrix(1.00893 0 0 1 1034 114)"/><path d="M124.779 67.0656 131.351 68.5664 137.74 67.0656 131.163 69.6556 124.779 67.0656Z" fill="#BBBFC6" transform="matrix(1.00893 0 0 1 1034 114)"/><path d="M114.433 61.7624 134.632 58.044 150.553 60.8832 131.617 67.004 114.433 61.7624Z" fill="#F4D75C" transform="matrix(1.00893 0 0 1 1034 114)"/><path d="M128.103 58.044 112.336 56.35 112.566 59.8948 127.506 62.7284 128.548 60.8832 128.103 58.044Z" fill="#CCCFD4" transform="matrix(1.00893 0 0 1 1034 114)"/><path d="M147.395 60.3204 127.506 62.7284 127.134 59.0156 133.039 56.6412 147.977 56.1764 147.395 60.3204Z" fill="#EEEFF1" transform="matrix(1.00893 0 0 1 1034 114)"/><path d="M123.063 60.1552 127.288 60.5612 131.69 60.1552 127.361 61.2724 123.063 60.1552Z" fill="#ABAFB8" transform="matrix(1.00893 0 0 1 1034 114)"/><path d="M116.211 57.0472 128.548 54.3816 138.454 53.9168 147.977 56.1764 127.134 59.0156 116.211 57.0472Z" fill="#96637C" transform="matrix(1.00893 0 0 1 1034 114)"/><path d="M116.211 57.0472 138.454 53.9168 134.753 53.0404 112.336 56.35 116.211 57.0472Z" fill="#AB90B8" transform="matrix(1.00893 0 0 1 1034 114)"/></g></g></g><text font-family="DengXian,DengXian_MSFontService,sans-serif" font-weight="700" font-size="32" transform="translate(921.157 155)">直觉</text><text font-family="Bahnschrift SemiCondensed,Bahnschrift SemiCondensed_MSFontService,sans-serif" font-weight="700" font-stretch="semi-condensed" font-size="43" transform="translate(920.57 206)">67%</text></g></svg>