<svg width="400" height="182" xmlns="http://www.w3.org/2000/svg" xmlns:xlink="http://www.w3.org/1999/xlink" overflow="hidden"><defs><clipPath id="clip0"><rect x="455" y="257" width="400" height="182"/></clipPath><clipPath id="clip1"><rect x="592" y="306" width="247" height="124"/></clipPath><clipPath id="clip2"><rect x="592" y="306" width="247" height="124"/></clipPath><clipPath id="clip3"><rect x="592" y="306" width="247" height="124"/></clipPath></defs><g clip-path="url(#clip0)" transform="translate(-455 -257)"><rect x="455" y="257" width="400" height="181" fill="#4472C4" fill-opacity="0"/><path d="M455 318C455 304.745 465.745 294 479 294L831 294C844.255 294 855 304.745 855 318L855 414C855 427.255 844.255 438 831 438L479 438C465.745 438 455 427.255 455 414Z" fill="#FFFFFF" fill-rule="evenodd"/><path d="M478.996 294 719 294 683.646 438 478.996 438C465.743 438 455 427.255 455 413.999L455 318.001C455 304.745 465.743 294 478.996 294Z" fill="#B1E2E1" fill-rule="evenodd"/><g clip-path="url(#clip1)"><g clip-path="url(#clip2)"><g clip-path="url(#clip3)"><path d="M2.65834 106.985 118.863 121.206 244.916 105 120.947 90.1612 90.368 92.5663 63.3864 96.0861 39.8288 100.313 2.65834 106.985Z" fill="#EEEFF1" transform="matrix(1 0 0 1.00405 592 306)"/><path d="M47.4178 108.831 37.7539 106.794 26.994 107.812 33.8328 110.801 40.9094 111.666 47.4178 108.831Z" fill="#1D2432" fill-opacity="0.1" transform="matrix(1 0 0 1.00405 592 306)"/><path d="M74.7947 110.486 84.4555 112.777 76.7275 116.05 68.6382 115.059 70.9199 111.845 74.7947 110.486Z" fill="#1D2432" fill-opacity="0.1" transform="matrix(1 0 0 1.00405 592 306)"/><path d="M219.317 104.219 221.253 104.32 228.416 107.124 221.578 108.001 219.317 104.219Z" fill="#1D2432" fill-opacity="0.1" transform="matrix(1 0 0 1.00405 592 306)"/><path d="M97.2748 106.537 98.766 105.207 101.239 106.661 108.433 105.932 113.376 108.921 126.668 108.359 179.927 105.278 186.269 104.219 174.373 101.523 164.332 101.523 153.711 100.007 126.168 102.147 116.748 101.273 114.225 100.575 113.132 101.054 91.989 102.916 91.3128 104.787 97.2748 106.537Z" fill="#1D2432" fill-opacity="0.1" transform="matrix(1 0 0 1.00405 592 306)"/><path d="M25.3607 30.3717 75.9062 8.67279 78.2928 33.4376 77.8853 34.2126 78.404 34.5985 78.6108 36.7382 78.2558 37.1704 78.7189 37.8497 78.9813 40.5821 76.6534 44.3828 79.6976 48.023 78.5769 50.7523 36.6177 58.7829 31.721 52.9445 29.606 45.4449 30.4551 43.0428 28.51 41.5516 27.9789 39.6744 28.0376 39.2761 27.8307 39.1402 27.6856 38.6246 27.769 37.7694 27.3923 37.5841 25.3607 30.3717Z" fill="#4B5464" transform="matrix(1 0 0 1.00405 592 306)"/><path d="M31.721 52.9445 38.4517 50.0299 46.0809 55.4422 62.8553 51.8113 68.1411 52.5029 79.6976 48.023 79.9848 50.9901 62.8553 55.646 61.3085 54.7445 59.8821 56.4549 56.7699 57.3009 54.6827 57.0755 52.9383 58.3414 40.6871 61.6728 39.4428 61.2931 38.4949 62.2687 36.8864 62.704 34.9783 62.3706 33.802 60.3452 31.721 52.9445Z" fill="#404857" transform="matrix(1 0 0 1.00405 592 306)"/><path d="M31.9587 36.4943 32.1563 41.5516 32.5361 41.5516 32.4311 36.1454 31.9587 36.4943Z" fill="#576071" transform="matrix(1 0 0 1.00405 592 306)"/><path d="M37.1735 33.0424 27.9789 39.6744 27.8307 39.1402 37.2414 32.3447 37.1735 33.0424Z" fill="#576071" transform="matrix(1 0 0 1.00405 592 306)"/><path d="M44.0092 33.8606 43.1571 43.1756 43.4967 43.3578 44.4137 34.0057 44.0092 33.8606Z" fill="#576071" transform="matrix(1 0 0 1.00405 592 306)"/><path d="M47.0844 35.3364 47.035 43.577 47.4086 43.8178 47.5259 34.2929 47.0844 35.3364Z" fill="#576071" transform="matrix(1 0 0 1.00405 592 306)"/><path d="M67.0389 31.4555 66.9092 42.8854 67.2735 42.8854 67.6687 31.6253 67.0389 31.4555Z" fill="#576071" transform="matrix(1 0 0 1.00405 592 306)"/><path d="M64.4763 30.1927 65.3037 43.2003 65.6958 43.0428 65.0876 30.1927 64.4763 30.1927Z" fill="#576071" transform="matrix(1 0 0 1.00405 592 306)"/><path d="M59.4622 31.0109 58.996 43.8178 58.4865 43.8178 58.9743 30.3532 59.4622 31.0109Z" fill="#576071" transform="matrix(1 0 0 1.00405 592 306)"/><path d="M62.6732 28.4791 78.6108 36.7382 78.7189 37.8497 62.1884 29.393 62.6732 28.4791Z" fill="#576071" transform="matrix(1 0 0 1.00405 592 306)"/><path d="M40.1715 31.4678 49.4185 35.9045 61.3301 28.2568 61.6759 29.7203 49.7767 36.661 39.7114 31.8877 40.1715 31.4678Z" fill="#576071" transform="matrix(1 0 0 1.00405 592 306)"/><path d="M55.2663 27.4788 54.5932 43.2034 61.4135 43.2034 61.6883 28.3062ZM60.0334 42.7619 56.6371 43.0459 56.9459 35.2407 60.3421 35.5186ZM60.1507 33.8637 57.1558 33.555 56.9582 29.4023 60.2587 30.4088Z" fill="#B7A0C2" transform="matrix(1 0 0 1.00405 592 306)"/><path d="M61.361 26.358 62.6639 26.7254 62.8553 55.646 60.8608 56.1894 60.4934 50.9901 61.0059 47.4518 61.361 26.358Z" fill="#9471A4" transform="matrix(1 0 0 1.00405 592 306)"/><path d="M39.3286 31.4555 34.2435 30.5477 34.4812 41.354 39.5262 42.4963ZM35.815 32.2026 38.2572 32.5114 38.0998 35.5063 35.815 35.1975ZM36.0126 41.6627 36.0126 36.7412 38.1739 37.05 38.3437 41.814Z" fill="#B7A0C2" transform="matrix(1 0 0 1.00405 592 306)"/><path d="M38.955 30.1062 40.1468 29.9611 40.6871 61.6728 39.3008 62.0495 38.7389 60.4255 38.7389 45.7938 39.1063 44.0432 38.955 30.1062Z" fill="#9471A4" transform="matrix(1 0 0 1.00405 592 306)"/><path d="M29.606 45.4449 39.06 43.188 34.0428 41.5516 28.8496 42.7588 29.606 45.4449Z" fill="#96637C" transform="matrix(1 0 0 1.00405 592 306)"/><path d="M39.1063 44.0432 38.6277 43.225 35.0833 42.2493 35.1697 52.3022 36.2534 62.8708 36.8709 62.6979 36.7505 51.4131 38.2943 51.1938 38.4857 62.2625 39.2915 62.0433ZM36.8864 49.6346 36.6517 44.7687 38.3035 44.9756 38.4517 49.5266Z" fill="#B7A0C2" transform="matrix(1 0 0 1.00405 592 306)"/><path d="M40.366 44.4322 40.4092 48.6806 38.3653 46.8219 38.3035 44.9756 36.6517 44.7687 35.3364 42.8854 38.6277 43.0243 40.366 44.4322Z" fill="#1D2432" fill-opacity="0.1" transform="matrix(1 0 0 1.00405 592 306)"/><path d="M46.6213 46.3526 60.4903 47.4518 79.6976 48.023 79.4939 45.8926 76.6657 43.4658 46.6213 46.3526Z" fill="#96637C" transform="matrix(1 0 0 1.00405 592 306)"/><path d="M55.612 46.2291 54.8587 51.518 55.5472 57.6313 56.7822 57.3009 56.9582 54.5222 59.8358 54.0992 59.8944 56.4673 60.8732 56.2018 61.0183 47.4641ZM59.8234 52.1479 56.9459 52.3084 57.1435 48.2453 59.9438 48.483Z" fill="#B7A0C2" transform="matrix(1 0 0 1.00405 592 306)"/><path d="M55.612 46.2291 57.0601 49.9805 57.1435 48.2453 59.9438 48.483 59.8234 52.1479 62.8461 54.0868 62.8028 47.5197 61.0059 47.4518 55.612 46.2291Z" fill="#1D2432" fill-opacity="0.1" transform="matrix(1 0 0 1.00405 592 306)"/><path d="M45.1454 37.2136 45.3183 43.5955 45.7537 43.8178 45.6363 36.4943 45.1454 37.2136Z" fill="#68707F" transform="matrix(1 0 0 1.00405 592 306)"/><path d="M42.4809 35.5155 42.1259 42.8854 41.7337 42.7588 42.1073 35.2407 42.4809 35.5155Z" fill="#68707F" transform="matrix(1 0 0 1.00405 592 306)"/><path d="M37.1859 32.7368 36.7659 41.8665 37.1859 42.0981 37.7138 32.885 37.1859 32.7368Z" fill="#576071" transform="matrix(1 0 0 1.00405 592 306)"/><path d="M30.1 35.9848 30.4551 42.2988 30.1 42.2988 29.7851 36.2596 30.1 35.9848Z" fill="#68707F" transform="matrix(1 0 0 1.00405 592 306)"/><path d="M49.7767 36.661 49.3784 44.1482 49.0233 44.1482 49.1437 36.1454 49.7767 36.661Z" fill="#576071" transform="matrix(1 0 0 1.00405 592 306)"/><path d="M51.3513 30.8626 51.9163 43.4658 52.3764 43.4658 51.8638 30.5477 51.3513 30.8626Z" fill="#68707F" transform="matrix(1 0 0 1.00405 592 306)"/><path d="M61.6111 31.8877 61.4011 43.2003 61.0059 43.3578 61.0059 31.6253 61.6111 31.8877Z" fill="#68707F" transform="matrix(1 0 0 1.00405 592 306)"/><path d="M71.0002 38.2356 71.2533 42.2555 70.7439 42.7588 70.4537 37.1704 71.0002 38.2356Z" fill="#68707F" transform="matrix(1 0 0 1.00405 592 306)"/><path d="M75.3227 36.1114 75.7889 42.2555 76.3786 42.0981 76.181 35.2407 75.3227 36.1114Z" fill="#576071" transform="matrix(1 0 0 1.00405 592 306)"/><path d="M34.2435 40.8353 28.51 41.5516 28.8496 42.7588 33.802 42.413 34.4658 41.8171 34.2435 40.8353Z" fill="#B3889D" transform="matrix(1 0 0 1.00405 592 306)"/><path d="M78.9813 40.5821 47.035 43.577 45.9513 44.7687 46.6213 46.3526 79.4939 45.8926 78.9813 40.5821Z" fill="#B3889D" transform="matrix(1 0 0 1.00405 592 306)"/><path d="M34.7745 30.6434 45.1454 36.0435 54.1517 27.4757 54.5808 28.087 45.1454 37.2136 34.4658 31.6253 34.7745 30.6434Z" fill="#68707F" transform="matrix(1 0 0 1.00405 592 306)"/><path d="M55.7139 27.5343 70.7624 37.0407 78.2928 33.4376 78.404 34.5985 71.0002 38.2356 55.4175 28.4791 55.7139 27.5343Z" fill="#68707F" transform="matrix(1 0 0 1.00405 592 306)"/><path d="M47.035 43.577 34.2435 40.8353 33.802 42.413 46.6213 46.3526 47.035 43.577Z" fill="#D1A1B8" transform="matrix(1 0 0 1.00405 592 306)"/><path d="M54.235 25.3916 55.7263 25.5367 55.5472 57.6313 52.9383 58.3414 54.235 25.3916Z" fill="#9471A4" transform="matrix(1 0 0 1.00405 592 306)"/><path d="M33.521 32.7368 27.3923 37.5841 27.6856 38.6246 34.2435 33.2091 33.521 32.7368Z" fill="#68707F" transform="matrix(1 0 0 1.00405 592 306)"/><path d="M33.802 60.3452 33.4901 29.5474 34.7159 29.393 36.2534 62.8769 34.6387 63.3154 33.802 60.3452Z" fill="#9471A4" transform="matrix(1 0 0 1.00405 592 306)"/><path d="M62.7504 20.9425 63.195 20.2602 63.195 21.029 64.1397 21.208 63.3123 21.4427 63.2845 22.2115 62.8708 21.5631 62.0711 21.9182 62.633 21.3254 62.0402 20.7048 62.7504 20.9425Z" fill="#89909B" transform="matrix(1 0 0 1.00405 592 306)"/><path d="M49.0635 26.9415 49.1221 26.4691 49.4772 26.7655 50.0391 26.5278 49.6841 27.0002 50.2182 27.3552 49.5359 27.2966 49.4185 27.9172 49.2117 27.3275 48.4429 27.3275 49.0635 26.9415Z" fill="#89909B" transform="matrix(1 0 0 1.00405 592 306)"/><path d="M50.8974 22.6252 51.2525 22.0355 51.2525 22.7734 51.9318 22.9525 51.1938 23.0976 51.1938 23.9559 50.987 23.218 50.3046 23.4835 50.8388 22.9525 50.2182 22.3597 50.8974 22.6252Z" fill="#89909B" transform="matrix(1 0 0 1.00405 592 306)"/><path d="M41.9097 28.51 42.2648 27.8894 42.2957 28.6273 42.8267 28.7755 42.3235 28.865 42.2957 29.427 42.0888 28.9515 41.6751 29.2201 41.9684 28.8033 41.5547 28.4482 41.9097 28.51Z" fill="#89909B" transform="matrix(1 0 0 1.00405 592 306)"/><path d="M45.1917 50.7091 45.3091 50.0299 45.5777 50.5918 46.0192 50.4436 45.6363 50.7986 45.9914 51.2402 45.5159 50.9468 45.3399 51.4779 45.2813 51.0333 44.778 50.8851 45.1917 50.7091Z" fill="#89909B" transform="matrix(1 0 0 1.00405 592 306)"/><path d="M153.285 6.49919 148.095 49.5359 170.748 52.0429 196.112 50.8542 202.571 37.7941 206.26 18.2656 153.285 6.49919Z" fill="#4B5464" transform="matrix(1 0 0 1.00405 592 306)"/><path d="M164.224 24.0238 174.512 19.6643 174.805 20.217 163.594 25.4132 164.224 24.0238Z" fill="#AB90B8" transform="matrix(1 0 0 1.00405 592 306)"/><path d="M176.954 19.8217 192.237 24.0238 192.682 23.3693 176.954 18.9171 176.954 19.8217Z" fill="#AB90B8" transform="matrix(1 0 0 1.00405 592 306)"/><path d="M172.088 26.8273 162.943 27.17 163.122 28.0623 163.712 28.0623 172.857 27.8246 172.088 26.8273Z" fill="#AB90B8" transform="matrix(1 0 0 1.00405 592 306)"/><path d="M192.524 21.8657 191.65 25.2496 193.234 26.8273 194.494 22.4647 192.524 21.8657Z" fill="#B3889D" transform="matrix(1 0 0 1.00405 592 306)"/><path d="M197.294 23.252 195.991 26.5865 193.234 26.8273 193.469 23.0544 195.263 22.582 197.294 23.252Z" fill="#96637C" transform="matrix(1 0 0 1.00405 592 306)"/><path d="M192.524 21.8657 195.636 21.2821 197.294 23.252 193.469 23.0544 192.524 21.8657Z" fill="#D1A1B8" transform="matrix(1 0 0 1.00405 592 306)"/><path d="M177.704 18.3459 177.043 22.1158 174.805 22.4647 173.882 18.7967 176.284 17.9692 177.704 18.3459Z" fill="#96637C" transform="matrix(1 0 0 1.00405 592 306)"/><path d="M174.354 17.0245 176.441 16.3545 177.704 18.3459 173.882 18.7967 174.354 17.0245Z" fill="#D1A1B8" transform="matrix(1 0 0 1.00405 592 306)"/><path d="M159.417 25.0983 159.889 28.8589 161.661 29.4393 163.122 25.4132 159.417 25.0983Z" fill="#B3889D" transform="matrix(1 0 0 1.00405 592 306)"/><path d="M164.224 24.0238 163.712 28.0623 161.661 29.4393 162.291 25.6849 162.504 24.6969 164.224 24.0238Z" fill="#96637C" transform="matrix(1 0 0 1.00405 592 306)"/><path d="M161.189 23.0544 164.224 24.0238 162.291 25.6849 159.417 25.0983 161.189 23.0544Z" fill="#D1A1B8" transform="matrix(1 0 0 1.00405 592 306)"/><path d="M177.349 23.3693 176.562 20.1398 175.852 20.5442 176.954 24.4962 177.349 23.3693Z" fill="#AB90B8" transform="matrix(1 0 0 1.00405 592 306)"/><path d="M184.679 27.204 192.459 26.0554 192.367 25.1384 183.16 26.5865 184.679 27.204Z" fill="#AB90B8" transform="matrix(1 0 0 1.00405 592 306)"/><path d="M172.088 26.8273 173.091 29.9765 176.284 31.5141 180.245 31.6685 183.113 30.4304 184.679 27.204 172.088 26.8273Z" fill="#8E699F" transform="matrix(1 0 0 1.00405 592 306)"/><path d="M181.783 28.2969 180.245 31.6685 176.284 31.5141 175.694 28.8527 178.183 28.0623 181.783 28.2969Z" fill="#7A578A" transform="matrix(1 0 0 1.00405 592 306)"/><path d="M173.758 25.1384 172.088 26.8273 175.694 28.8527 177.704 26.4444 173.758 25.1384Z" fill="#B3889D" transform="matrix(1 0 0 1.00405 592 306)"/><path d="M182.434 24.4962 184.679 27.204 181.783 28.2969 179.359 26.3981 182.434 24.4962Z" fill="#B3889D" transform="matrix(1 0 0 1.00405 592 306)"/><path d="M176.639 26.8273 178.383 25.5398 180.437 26.5865 181.783 28.2969 175.694 28.8527 176.639 26.8273Z" fill="#96637C" transform="matrix(1 0 0 1.00405 592 306)"/><path d="M173.758 25.1384 177.349 23.3693 182.434 24.4962 180.437 26.5865 176.639 26.8273 173.758 25.1384Z" fill="#D1A1B8" transform="matrix(1 0 0 1.00405 592 306)"/><path d="M181.783 28.2969 185.972 31.4493 185.312 32.0019 181.357 29.2355 181.783 28.2969Z" fill="#AB90B8" transform="matrix(1 0 0 1.00405 592 306)"/><path d="M175.694 28.8527 174.221 33.4994 174.956 33.697 176.284 31.5141 175.694 28.8527Z" fill="#AB90B8" transform="matrix(1 0 0 1.00405 592 306)"/><path d="M163.712 28.0623 171.523 34.0366 172.088 35.7749 162.893 28.6119 162.943 27.17 163.712 28.0623Z" fill="#AB90B8" transform="matrix(1 0 0 1.00405 592 306)"/><path d="M189.943 30.4767 194.259 25.6849 194.908 26.6822 189.569 32.2767 189.943 30.4767Z" fill="#AB90B8" transform="matrix(1 0 0 1.00405 592 306)"/><path d="M184.679 30.4767 184.963 35.4507 187.312 36.7196 187.109 31.2733 184.679 30.4767Z" fill="#B3889D" transform="matrix(1 0 0 1.00405 592 306)"/><path d="M189.943 30.4767 190.178 35.6267 187.312 36.7196 186.454 31.9278 187.312 30.6095 189.943 30.4767Z" fill="#96637C" transform="matrix(1 0 0 1.00405 592 306)"/><path d="M184.679 30.4767 186.454 31.9278 189.943 30.4767 187.695 29.2911 184.679 30.4767Z" fill="#D1A1B8" transform="matrix(1 0 0 1.00405 592 306)"/><path d="M175.852 36.3368 185.744 34.0119 184.827 33.0764 175.456 35.4322 175.852 36.3368Z" fill="#AB90B8" transform="matrix(1 0 0 1.00405 592 306)"/><path d="M175.694 32.4867 175.852 36.3368 173.758 37.9546 173.913 34.2898 175.694 32.4867Z" fill="#96637C" transform="matrix(1 0 0 1.00405 592 306)"/><path d="M174.629 34.4843 173.758 37.9546 171.634 37.1303 171.362 34.0119 173.758 33.5982 174.629 34.4843Z" fill="#B3889D" transform="matrix(1 0 0 1.00405 592 306)"/><path d="M172.088 31.6685 175.694 32.4867 174.629 34.4843 171.362 34.0119 172.088 31.6685Z" fill="#D1A1B8" transform="matrix(1 0 0 1.00405 592 306)"/><path d="M202.571 37.7941 185.972 39.3502 173.527 47.3283 170.748 52.0429 175.852 52.6079 178.356 52.1417 181.489 53.2316 199.283 55.2014 200.129 50.7245 200.138 47.5228 201.249 44.7965 202.571 37.7941Z" fill="#404857" transform="matrix(1 0 0 1.00405 592 306)"/><path d="M201.7 42.413 196.112 40.968 189.943 42.9193 191.928 44.3303 191.021 46.2137 193.46 46.8806 196.982 43.7468 201.7 42.413Z" fill="#576071" transform="matrix(1 0 0 1.00405 592 306)"/><path d="M188.76 42.5643 189.943 41.3138 188.995 40.613 186.158 42.1814 188.76 42.5643Z" fill="#576071" transform="matrix(1 0 0 1.00405 592 306)"/><path d="M175.852 52.6079 177.852 50.7245 182.153 52.2035 181.489 53.2316 175.852 52.6079Z" fill="#576071" transform="matrix(1 0 0 1.00405 592 306)"/><path d="M201.249 44.7965 198.113 46.2322 200.129 50.7245 201.249 44.7965Z" fill="#576071" transform="matrix(1 0 0 1.00405 592 306)"/><path d="M157.077 34.2064 157.904 33.3481 157.697 34.4997 158.731 34.9752 157.58 35.0616 157.58 36.1268 157.077 35.0925 156.16 35.4754 156.839 34.7375 155.922 33.6723 157.077 34.2064Z" fill="#89909B" transform="matrix(1 0 0 1.00405 592 306)"/><path d="M158.568 39.7269 157.947 38.8994 158.034 39.8473 157.296 40.2301 158.092 40.3505 158.034 41.1162 158.478 40.2023 159.364 40.5543 158.951 39.9955 159.423 39.2545 158.568 39.7269Z" fill="#89909B" transform="matrix(1 0 0 1.00405 592 306)"/><path d="M186.337 18.4139 187.223 17.6759 186.809 18.7102 187.488 19.1518 186.571 19.1826 186.365 20.0996 186.189 19.3586 185.361 19.4482 186.068 18.8862 185.716 18.1175 186.337 18.4139Z" fill="#89909B" transform="matrix(1 0 0 1.00405 592 306)"/><path d="M195.028 32.5453 194.939 31.5975 195.442 32.2489 196.18 31.9834 195.707 32.5145 196.328 32.9282 195.559 32.8695 195.352 33.5797 195.173 32.8109 194.201 32.8695 195.028 32.5453Z" fill="#89909B" transform="matrix(1 0 0 1.00405 592 306)"/><path d="M166.163 38.319 167.071 38.0442 166.534 38.6648 166.938 39.3378 166.324 38.9797 166.04 39.6682 165.947 38.9025 165.212 38.8408 165.932 38.5166 165.681 37.5687 166.163 38.319Z" fill="#89909B" transform="matrix(1 0 0 1.00405 592 306)"/><path d="M161.445 15.1226 161.98 14.5329 161.711 15.3325 162.304 15.6258 161.594 15.6567 161.504 16.4533 161.297 15.6845 160.707 15.7154 161.149 15.3912 160.856 14.7706 161.445 15.1226Z" fill="#89909B" transform="matrix(1 0 0 1.00405 592 306)"/><path d="M165.762 17.6142 165.762 16.4934 166.558 17.29 167.596 16.8176 166.886 17.6142 167.506 18.4139 166.441 17.9415 166.175 19.0344 165.996 18.1175 165.024 17.8519 165.762 17.6142Z" fill="#89909B" transform="matrix(1 0 0 1.00405 592 306)"/><path d="M82.5906 8.79629 144.072 2.05627 140.398 17.5864 131.611 38.7265 93.7272 42.8267 85.9128 22.6777 82.5906 8.79629Z" fill="#94D5D5" transform="matrix(1 0 0 1.00405 592 306)"/><path d="M85.9128 22.6777 88.8335 19.2814 94.7461 20.9363 100.186 19.3586 101.369 15.9686 106.494 14.1562 110.749 15.7339 110.119 18.1761 114.296 19.0437 116.229 16.2835 121.076 12.5785 125.884 13.4461 128.249 16.7589 132.086 15.2399 135.581 16.2835 136.134 17.9415 140.398 17.5864 139.854 19.7168 135.424 22.2763 89.9389 24.7587 85.9128 22.6777Z" fill="#4FA9AA" transform="matrix(1 0 0 1.00405 592 306)"/><path d="M85.9128 22.6777 92.9152 22.5727 122.75 20.7387 131.009 18.7164 138.891 20.2725 139.367 21.7916 136.143 35.5217 134.214 37.2229 135.004 40.366 134.198 43.7962 91.6339 46.578 91.8346 40.8013 89.6888 38.4455 88.3457 32.8356 88.9787 30.0476 87.3207 28.5594 85.9128 22.6777Z" fill="#33A474" transform="matrix(1 0 0 1.00405 592 306)"/><path d="M85.9128 22.6777 102.823 24.6475 109.986 24.4036 113.123 21.3285 125.905 23.2612 136.962 20.6801 139.401 21.7978 139.854 19.7168 130.984 17.9013 122.639 19.794 103.082 21.3285 101.273 21.7484 100.424 21.5384 85.9128 22.6777Z" fill="#70BF9D" transform="matrix(1 0 0 1.00405 592 306)"/><path d="M91.6339 46.578 98.1208 34.9536 118.313 34.6912 135.004 40.366 136.143 35.5217 118.625 31.2609 90.4884 30.2575 103.082 21.3285 100.424 21.5384 87.3207 28.5594 88.3457 32.8356 93.684 33.8205 89.6888 38.4455 91.6339 46.578Z" fill="#CCCFD4" transform="matrix(1 0 0 1.00405 592 306)"/><path d="M119.499 16.5706 117.044 15.8914 115.046 12.5785 114.441 13.2114 116.229 16.2835 119.499 17.5864 119.499 16.5706Z" fill="#68707F" transform="matrix(1 0 0 1.00405 592 306)"/><path d="M120.366 18.0989 123.5 14.431 122.932 14.2951 120.169 16.9936 120.366 18.0989Z" fill="#68707F" transform="matrix(1 0 0 1.00405 592 306)"/><path d="M121.073 22.5326 120.209 13.2114 118.773 14.2951 120.073 22.3813 121.073 22.5326Z" fill="#787F8D" transform="matrix(1 0 0 1.00405 592 306)"/><path d="M118.773 14.2951 115.497 14.431 111.598 11.8406 110.906 8.75615 113.33 7.70331 114.515 5.29506 115.087 4.65904 113.941 3.47961 118.782 1.07754 120.348 2.82506 122.932 3.28819 126.831 5.36608 125.55 6.24292 125.451 7.31738 125.874 9.18223 128.276 11.0471 124.584 14.6687 118.773 14.2951Z" fill="#86B264" transform="matrix(1 0 0 1.00405 592 306)"/><path d="M126.831 5.36608 119.696 6.39113 125.451 7.31738 126.831 5.36608Z" fill="#709D52" transform="matrix(1 0 0 1.00405 592 306)"/><path d="M113.941 3.47961 119.696 6.39113 114.515 5.29506 113.941 3.47961Z" fill="#709D52" transform="matrix(1 0 0 1.00405 592 306)"/><path d="M110.906 8.75615 118.773 14.2951 128.276 11.0471 124.584 16.0488 118.773 14.2951 115.621 15.2399 110.258 12.8162 110.906 8.75615Z" fill="#709D52" transform="matrix(1 0 0 1.00405 592 306)"/><path d="M119.696 6.39113 116.504 9.19149 123.5 12.6804 119.696 6.39113Z" fill="#709D52" transform="matrix(1 0 0 1.00405 592 306)"/><path d="M116.504 9.19149 110.906 8.75615 114.515 5.29506 116.504 9.19149Z" fill="#A0CF7E" transform="matrix(1 0 0 1.00405 592 306)"/><path d="M118.782 1.07754 119.696 6.39113 122.932 3.28819 118.782 1.07754Z" fill="#A0CF7E" transform="matrix(1 0 0 1.00405 592 306)"/><path d="M125.451 7.31738 121.719 9.73489 128.276 11.0471 125.451 7.31738Z" fill="#A0CF7E" transform="matrix(1 0 0 1.00405 592 306)"/><path d="M124.899 39.9739 126.356 39.1063 127.579 39.7763 125.806 40.721 124.899 39.9739Z" fill="#D9E256" transform="matrix(1 0 0 1.00405 592 306)"/><path d="M128.014 41.8264 128.919 41.5485 129.431 41.9437 128.526 42.4963 128.014 41.8264Z" fill="#D9E256" transform="matrix(1 0 0 1.00405 592 306)"/><path d="M122.497 26.6112 123.481 26.0986 124.151 26.4537 123.244 27.0064 122.497 26.6112Z" fill="#D9E256" transform="matrix(1 0 0 1.00405 592 306)"/><path d="M135.069 23.499 135.779 23.2612 136.292 23.8139 135.464 24.0115 135.069 23.499Z" fill="#D9E256" transform="matrix(1 0 0 1.00405 592 306)"/><path d="M125.254 24.8389 125.649 24.3264 126.554 24.7587 125.847 25.194 125.254 24.8389Z" fill="#D9E256" transform="matrix(1 0 0 1.00405 592 306)"/><path d="M122.299 24.1689 122.771 23.8911 123.204 24.2863 122.574 24.6012 122.299 24.1689Z" fill="#D9E256" transform="matrix(1 0 0 1.00405 592 306)"/><path d="M125.649 21.0938 126.161 20.7387 126.751 20.9765 126.041 21.4489 125.649 21.0938Z" fill="#D9E256" transform="matrix(1 0 0 1.00405 592 306)"/><path d="M96.0089 28.1086 96.8364 27.7535 97.5835 28.1086 96.7962 28.4637 96.0089 28.1086Z" fill="#D9E256" transform="matrix(1 0 0 1.00405 592 306)"/><path d="M89.1114 25.6263 89.6239 25.2311 90.2137 25.4286 89.7814 25.901 89.1114 25.6263Z" fill="#D9E256" transform="matrix(1 0 0 1.00405 592 306)"/><path d="M91.5135 24.3264 92.1835 24.1288 92.6188 24.3666 92.026 24.5611 91.5135 24.3264Z" fill="#D9E256" transform="matrix(1 0 0 1.00405 592 306)"/><path d="M88.284 23.9312 88.954 23.536 89.5838 23.7738 88.9138 24.4036 88.284 23.9312Z" fill="#D9E256" transform="matrix(1 0 0 1.00405 592 306)"/><path d="M134.056 31.6808 134.214 30.5076 129.66 29.3714 126.831 30.9615 124.189 31.9896 123.926 32.5515 128.668 33.7062 129.431 33.4685 130.626 33.4191 134.056 31.6808Z" fill="#1D2432" fill-opacity="0.1" transform="matrix(1 0 0 1.00405 592 306)"/><path d="M123.926 32.5515 125.056 32.252 125.738 30.2297 124.043 30.2297 123.926 32.5515Z" fill="#88619A" transform="matrix(1 0 0 1.00405 592 306)"/><path d="M134.056 31.6808 133.189 31.5326 132.429 29.8747 134.214 29.8747 134.056 31.6808Z" fill="#9F80AE" transform="matrix(1 0 0 1.00405 592 306)"/><path d="M135.199 26.1511 135.001 31.4122 134.056 31.6808 133.781 30.5076 131.101 31.4122 130.626 33.4191 129.66 33.9471 129.774 30.0476 132.59 28.5007 133.118 26.3364 135.199 26.1511Z" fill="#88619A" transform="matrix(1 0 0 1.00405 592 306)"/><path d="M127.789 25.2341 127.078 26.9601 126.489 27.945 123.333 28.9515 122.932 32.3107 123.926 32.5515 124.698 30.8997 128.631 31.8476 128.668 33.7062 129.66 33.9471 130.234 30.5076 131.021 28.8681 133.899 28.8681 134.214 26.5648 130.666 25.6386 127.789 25.2341Z" fill="#9F80AE" transform="matrix(1 0 0 1.00405 592 306)"/><path d="M127.078 26.9601 133.899 28.8681 130.234 30.5076 123.361 28.8681 127.078 26.9601Z" fill="#CFBFD6" transform="matrix(1 0 0 1.00405 592 306)"/><path d="M129.085 24.7124 135.199 26.1511 134.214 26.5648 127.789 25.2341 129.085 24.7124Z" fill="#CFBFD6" transform="matrix(1 0 0 1.00405 592 306)"/><path d="M135.189 21.0938 136.962 20.6801 138.885 21.5631 137.036 21.7453 135.189 21.0938Z" fill="#1D2432" fill-opacity="0.1" transform="matrix(1 0 0 1.00405 592 306)"/><path d="M128.971 23.3415 131.815 22.866 134.581 23.4465 131.423 24.0115 128.971 23.3415Z" fill="#1D2432" fill-opacity="0.1" transform="matrix(1 0 0 1.00405 592 306)"/><path d="M136.962 20.6801 137.255 15.4776 138.32 15.2399 137.604 20.9734 136.962 20.6801Z" fill="#787F8D" transform="matrix(1 0 0 1.00405 592 306)"/><path d="M134.581 14.8015 138.153 16.5706 140.818 15.8111 139.009 13.2485 140.818 12.5414 138.891 10.056 140.114 9.46628 138.32 5.52354 137.276 9.34895 138.32 9.9788 135.973 12.0289 137.196 12.8162 134.581 14.8015Z" fill="#47AD82" transform="matrix(1 0 0 1.00405 592 306)"/><path d="M137.196 12.8162 139.009 13.2485 137.699 14.2951 137.196 12.8162Z" fill="#2D9368" transform="matrix(1 0 0 1.00405 592 306)"/><path d="M138.32 9.9788 138.891 10.056 138.459 10.6673 138.32 9.9788Z" fill="#2D9368" transform="matrix(1 0 0 1.00405 592 306)"/><path d="M131.793 23.4465 132.111 14.8262 130.851 14.6687 131.166 23.3816 131.793 23.4465Z" fill="#787F8D" transform="matrix(1 0 0 1.00405 592 306)"/><path d="M127.174 13.9092 132.086 15.2399 135.424 13.2299 132.231 10.3246 133.899 9.6824 131.611 6.93453 132.651 6.49919 131.083 3.47961 129.511 6.60725 130.577 7.08273 128.86 9.74106 130.851 10.2165 127.174 13.9092Z" fill="#47AD82" transform="matrix(1 0 0 1.00405 592 306)"/><path d="M130.577 7.08273 131.611 6.93453 131.092 7.70331 130.577 7.08273Z" fill="#2D9368" transform="matrix(1 0 0 1.00405 592 306)"/><path d="M130.851 10.2165 132.231 10.3246 131.299 11.396 130.851 10.2165Z" fill="#2D9368" transform="matrix(1 0 0 1.00405 592 306)"/><path d="M115.862 21.7453 120.484 23.8911 125.905 23.2612 115.862 21.7453Z" fill="#1D2432" fill-opacity="0.1" transform="matrix(1 0 0 1.00405 592 306)"/><path d="M92.9152 22.5727 94.8264 23.1038 97.0031 22.443 94.6689 22.2362 92.9152 22.5727Z" fill="#1D2432" fill-opacity="0.1" transform="matrix(1 0 0 1.00405 592 306)"/><path d="M94.5485 22.829 94.036 18.4139 94.8264 18.0989 95.061 22.6715 94.5485 22.829Z" fill="#787F8D" transform="matrix(1 0 0 1.00405 592 306)"/><path d="M91.5536 18.5713 94.8912 19.3555 98.6889 17.6265 95.7094 15.101 96.6789 14.6687 94.8264 12.5414 95.7094 11.9085 94.1934 9.50641 93.1715 11.9888 94.2336 12.421 92.5787 14.431 94.2737 15.101 91.5536 18.5713Z" fill="#47AD82" transform="matrix(1 0 0 1.00405 592 306)"/><path d="M95.7094 15.101 94.2737 15.101 94.8634 16.2835 95.7094 15.101Z" fill="#2D9368" transform="matrix(1 0 0 1.00405 592 306)"/><path d="M94.2336 12.421 94.8264 12.5414 94.3911 13.5541 94.2336 12.421Z" fill="#2D9368" transform="matrix(1 0 0 1.00405 592 306)"/><path d="M114.83 101.523 113.132 101.054 110.962 90.2723 114.515 89.8277 114.83 101.523Z" fill="#7BB7CA" transform="matrix(1 0 0 1.00405 592 306)"/><path d="M115.781 88.1234 116.748 101.273 114.83 101.523 113.188 87.6788 115.781 88.1234Z" fill="#4298B4" transform="matrix(1 0 0 1.00405 592 306)"/><path d="M117.226 94.5763 116.229 94.2212 114.225 96.4473 116.748 97.037 117.226 94.5763Z" fill="#67ACC3" transform="matrix(1 0 0 1.00405 592 306)"/><path d="M91.3128 104.787 93.7149 104.243 96.6233 92.0847 92.9585 89.8277 91.3128 104.787Z" fill="#55A2BB" transform="matrix(1 0 0 1.00405 592 306)"/><path d="M96.8919 98.0467 95.376 97.3087 92.5725 98.2381 97.636 100.007 96.8919 98.0467Z" fill="#67ACC3" transform="matrix(1 0 0 1.00405 592 306)"/><path d="M100.986 98.2381 116.411 96.1509 124.445 94.9499 122.228 97.2902 100.643 100.387 100.986 98.2381Z" fill="#8DC1D2" transform="matrix(1 0 0 1.00405 592 306)"/><path d="M126.31 103.66 124.503 103.169 122.225 88.6915 126.668 87.4905 126.31 103.66Z" fill="#7BB7CA" transform="matrix(1 0 0 1.00405 592 306)"/><path d="M91.1245 85.4033 89.1485 104.129 91.3128 104.787 93.8847 91.424 96.6233 92.0847 97.2748 106.537 99.1057 106.985 100.643 89.414 96.8147 86.7958 91.1245 85.4033Z" fill="#7BB7CA" transform="matrix(1 0 0 1.00405 592 306)"/><path d="M99.1057 106.985 101.239 106.661 102.783 92.9276 123.494 89.2751 126.31 103.66 128.613 103.385 128.233 84.2671 101.304 89.0065 99.7849 90.2723 99.1057 106.985Z" fill="#55A2BB" transform="matrix(1 0 0 1.00405 592 306)"/><path d="M89.6486 82.2479 89.2288 85.7831 99.7849 90.2723 102.314 85.8449 89.6486 82.2479Z" fill="#B3889D" transform="matrix(1 0 0 1.00405 592 306)"/><path d="M99.7849 90.2723 129.879 85.4682 129.576 81.9886 109.964 81.9886 100.1 87.1107 99.7849 90.2723Z" fill="#96637C" transform="matrix(1 0 0 1.00405 592 306)"/><path d="M120.428 77.9378 89.6486 82.2479 100.1 87.1107 129.576 81.9886 120.428 77.9378Z" fill="#D1A1B8" transform="matrix(1 0 0 1.00405 592 306)"/><path d="M121.28 51.4532 126.98 60.7188 124.389 64.5257 118.313 59.845 121.28 51.4532Z" fill="#B68B2E" transform="matrix(1 0 0 1.00405 592 306)"/><path d="M95.8792 67.8416 100.986 70.8643 102.314 70.2283 101.761 68.067 98.3924 64.4793 95.8792 67.8416Z" fill="#D0AB92" transform="matrix(1 0 0 1.00405 592 306)"/><path d="M100.643 56.0844 90.933 64.856 95.8792 67.8416 102.783 63.902 103.641 59.9901 100.643 56.0844Z" fill="#B68B2E" transform="matrix(1 0 0 1.00405 592 306)"/><path d="M110.076 94.3818 111.817 100.575 108.868 102.916 105.342 100.372 104.802 94.9499 107.519 93.1807 110.076 94.3818Z" fill="#947125" transform="matrix(1 0 0 1.00405 592 306)"/><path d="M104.802 94.9499 103.379 96.6048 104.802 101.523 106.003 100.85 105.707 99.5966 104.802 94.9499Z" fill="#D8A537" transform="matrix(1 0 0 1.00405 592 306)"/><path d="M105.707 99.5966 109.205 102.326 109.625 102.916 108.729 103.715 104.802 101.523 105.707 99.5966Z" fill="#C29431" transform="matrix(1 0 0 1.00405 592 306)"/><path d="M111.817 100.575 111.332 102.579 108.729 103.715 109.205 102.326 111.817 100.575Z" fill="#B68B2E" transform="matrix(1 0 0 1.00405 592 306)"/><path d="M107.056 93.3073 108.109 98.2381 109.038 98.0467 108.729 93.7489 107.056 93.3073Z" fill="#D8A537" transform="matrix(1 0 0 1.00405 592 306)"/><path d="M118.372 92.3564 117.226 94.5763 122.228 100.575 127.224 98.6178 127.224 98.6178 125.084 95.2401 123.494 94.4034 122.228 91.495 118.372 92.3564Z" fill="#947125" transform="matrix(1 0 0 1.00405 592 306)"/><path d="M117.226 94.5763 122.778 98.7846 123.494 99.5966 122.228 100.575 116.411 96.1509 117.226 94.5763Z" fill="#D8A537" transform="matrix(1 0 0 1.00405 592 306)"/><path d="M127.224 98.6178 122.778 98.7846 122.228 100.575 126.668 100.26 127.224 98.6178Z" fill="#C29431" transform="matrix(1 0 0 1.00405 592 306)"/><path d="M121.638 92.0847 123.367 95.4995 125.084 95.2401 123.62 92.9276 121.638 92.0847Z" fill="#D8A537" transform="matrix(1 0 0 1.00405 592 306)"/><path d="M119.891 71.6856 126.668 80.6609 122.03 83.344 117.788 83.1155 110.962 78.5954 111.987 75.0355 119.891 71.6856Z" fill="#68707F" transform="matrix(1 0 0 1.00405 592 306)"/><path d="M113.805 76.5515 117.788 83.1155 110.659 79.9045 113.805 76.5515Z" fill="#4B5464" transform="matrix(1 0 0 1.00405 592 306)"/><path d="M105.176 74.0228 104.274 86.2895 109.038 88.5001 113.188 86.5426 113.805 76.3631 107.942 73.2664 105.176 74.0228Z" fill="#68707F" transform="matrix(1 0 0 1.00405 592 306)"/><path d="M105.176 53.4693 100.643 56.0844 102.783 63.902 112.913 71.241 120.212 67.0018 121.28 51.4532 117.708 50.8048 105.176 53.4693Z" fill="#E6B64E" transform="matrix(1 0 0 1.00405 592 306)"/><path d="M107.942 51.8762 105.176 53.4693 110.026 58.0913 118.118 55.5627 117.708 50.8048 115.253 50.3571 107.942 51.8762Z" fill="#F4D75C" transform="matrix(1 0 0 1.00405 592 306)"/><path d="M107.942 51.8762 110.891 56.0844 116.411 53.9788 115.253 50.3571 107.942 51.8762Z" fill="#D0AB92" transform="matrix(1 0 0 1.00405 592 306)"/><path d="M99.8775 42.944 99.2384 41.7831 98.5406 41.4651 96.9074 42.4439 97.9324 44.1883 99.8775 42.944 99.8775 42.944Z" fill="#E6B64E" transform="matrix(1 0 0 1.00405 592 306)"/><path d="M118.94 29.4115 122.589 41.2737 122.639 44.1883 120.947 45.5499 116.411 47.1122 114.009 51.2031 108.51 50.5053 100.733 41.4651 104.484 31.0973 110.301 29.1182 118.94 29.4115Z" fill="#D0AB92" transform="matrix(1 0 0 1.00405 592 306)"/><path d="M104.484 31.0973 112.067 48.6096 115.253 50.3571 114.305 53.0155 107.942 51.8762 103.879 47.3777 103.135 45.6796 101.962 45.2535 98.5406 41.4651 104.484 31.0973Z" fill="#B48C71" transform="matrix(1 0 0 1.00405 592 306)"/><path d="M118.625 33.2894 115.55 39.5694 110.258 35.4599 113.358 34.3855 114.725 34.6387 115.315 33.6476 116.982 32.2983 118.625 33.2894Z" fill="#B48C71" transform="matrix(1 0 0 1.00405 592 306)"/><path d="M116.411 47.1122 109.415 49.4741 115.253 50.3571 116.411 47.1122Z" fill="#83624D" transform="matrix(1 0 0 1.00405 592 306)"/><path d="M101.962 45.2535 104.802 43.509 103.879 47.3777 101.962 45.2535Z" fill="#83624D" transform="matrix(1 0 0 1.00405 592 306)"/><path d="M100.424 41.8603 101.921 40.6778 102.996 42.555 100.424 41.8603Z" fill="#83624D" transform="matrix(1 0 0 1.00405 592 306)"/><path d="M113.358 34.3855 115.55 39.5694 116.467 39.449 117.232 39.0414 115.315 33.6476 113.358 34.3855Z" fill="#D8BCA9" transform="matrix(1 0 0 1.00405 592 306)"/><path d="M115.55 39.5694 116.701 40.1591 117.232 39.0414 115.55 39.5694Z" fill="#83624D" transform="matrix(1 0 0 1.00405 592 306)"/><path d="M113.805 42.555 118.863 41.814 118.687 42.6044 114.182 43.3948 113.805 42.555Z" fill="#83624D" transform="matrix(1 0 0 1.00405 592 306)"/><path d="M113.163 37.0415C113.163 37.2752 112.819 37.4647 112.394 37.4647 111.969 37.4647 111.625 37.2752 111.625 37.0415 111.625 36.8079 111.969 36.6184 112.394 36.6184 112.819 36.6184 113.163 36.8079 113.163 37.0415Z" fill="#232A38" transform="matrix(0.954784 -0.297302 0.296103 0.958649 586.072 341.092)"/><path d="M118.519 35.0834C118.519 35.3171 118.174 35.5065 117.75 35.5065 117.325 35.5065 116.981 35.3171 116.981 35.0834 116.981 34.8497 117.325 34.6602 117.75 34.6602 118.174 34.6602 118.519 34.8497 118.519 35.0834Z" fill="#232A38" transform="matrix(0.954784 -0.297302 0.296103 0.958649 586.893 342.599)"/><path d="M110.258 35.4599 110.026 34.7004 113.358 34.3855 113.805 35.5217 110.258 35.4599Z" fill="#4B5464" transform="matrix(1 0 0 1.00405 592 306)"/><path d="M115.315 33.6476 115.55 32.4898 117.149 31.9186 118.773 32.8664 118.625 33.2894 116.982 32.8664 115.315 33.6476Z" fill="#4B5464" transform="matrix(1 0 0 1.00405 592 306)"/><path d="M117.804 28.7261 104.484 31.0973 103.925 35.9354 105.176 37.4514 105.697 42.2246 103.623 40.5512 103.261 39.7392 102.094 39.3162 99.152 40.3598 98.1208 39.1557 96.8024 31.9186 100.643 29.4239 102.823 24.6475 112.913 23.4465 120.647 25.5645 117.804 28.7261Z" fill="#4B5464" transform="matrix(1 0 0 1.00405 592 306)"/><path d="M120.647 25.5645 104.484 31.0973 118.94 29.4115 120.647 25.5645Z" fill="#3D4554" transform="matrix(1 0 0 1.00405 592 306)"/><path d="M120.647 25.5645 102.823 24.6475 113.123 21.3285 120.647 25.5645Z" fill="#68707F" transform="matrix(1 0 0 1.00405 592 306)"/><path d="M104.484 31.0973 102.823 24.6475 96.8024 31.9186 104.484 31.0973Z" fill="#68707F" transform="matrix(1 0 0 1.00405 592 306)"/><path d="M104.484 31.0973 98.1208 39.1557 98.5406 41.4651 102.094 39.3162 105.176 37.4514 104.484 31.0973Z" fill="#3D4554" transform="matrix(1 0 0 1.00405 592 306)"/><path d="M105.176 37.4514 107.05 37.0222 107.754 37.1581 107.405 37.8373 105.982 39.0414 105.284 38.4641 105.176 37.4514Z" fill="#DDDFE2" transform="matrix(1 0 0 1.00405 592 306)"/><path d="M107.405 37.8373 107.05 37.0222 108.856 36.6085 107.405 37.8373Z" fill="#4B5464" transform="matrix(1 0 0 1.00405 592 306)"/><path d="M105.982 39.0414 105.176 37.4514 102.094 39.3162 103.623 40.5512 105.982 39.0414Z" fill="#E6B64E" transform="matrix(1 0 0 1.00405 592 306)"/><path d="M120.212 67.0018 102.783 63.902 105.176 74.0228 113.805 76.5515 119.891 71.6856 120.212 67.0018Z" fill="#C29431" transform="matrix(1 0 0 1.00405 592 306)"/><path d="M126.668 80.6609 123.62 92.9276 118.372 92.3564 117.788 83.1155 126.668 80.6609Z" fill="#4B5464" transform="matrix(1 0 0 1.00405 592 306)"/><path d="M104.274 86.2895 104.802 94.9499 110.076 94.3818 113.188 86.5426 104.274 86.2895Z" fill="#4B5464" transform="matrix(1 0 0 1.00405 592 306)"/><path d="M101.761 68.067 103.641 67.536 104.802 70.3271 105.176 74.0228 100.986 70.8643 101.761 68.067Z" fill="#B48C71" transform="matrix(1 0 0 1.00405 592 306)"/><path d="M103.641 67.536 108.433 70.7161 105.176 74.0228 103.641 67.536Z" fill="#D0AB92" transform="matrix(1 0 0 1.00405 592 306)"/><path d="M124.389 64.5257 129.777 61.6666 126.226 51.1105 124.726 50.6196 123.62 52.3887 124.389 64.5257Z" fill="#D0AB92" transform="matrix(1 0 0 1.00405 592 306)"/><path d="M123.62 52.3887 126.226 51.1105 126.668 45.8895 124.158 46.5533 123.114 49.1407 123.62 52.3887Z" fill="#B48C71" transform="matrix(1 0 0 1.00405 592 306)"/><path d="M122.589 41.2737 120.947 45.5499 123.62 44.6267 122.589 41.2737Z" fill="#B48C71" transform="matrix(1 0 0 1.00405 592 306)"/><path d="M126.668 45.8895 123.163 43.1447 120.947 45.5499 123.114 49.1407 126.668 45.8895Z" fill="#D0AB92" transform="matrix(1 0 0 1.00405 592 306)"/><path d="M172.672 99.8868 165.345 98.6178 164.332 101.523 171.075 102.493 172.672 99.8868Z" fill="#9A9FA9" transform="matrix(1 0 0 1.00405 592 306)"/><path d="M165.345 98.6178 169.39 98.0467 177.818 99.8961 172.341 100.217 165.345 98.6178Z" fill="#BBBFC6" transform="matrix(1 0 0 1.00405 592 306)"/><path d="M172.341 100.217 132.556 106.71 121.203 104.524 114.704 105.951 127.224 109.659 150.676 109.152 176.809 103.422 177.145 100.575 172.341 100.217Z" fill="#BBBFC6" transform="matrix(1 0 0 1.00405 592 306)"/><path d="M171.075 86.7958 172.341 100.217 175.883 102.493 177.818 85.6349 171.075 86.7958Z" fill="#9A9FA9" transform="matrix(1 0 0 1.00405 592 306)"/><path d="M103.833 82.4949 104.49 89.8339 131.774 96.0367 130.953 108.479 114.704 105.951 113.376 108.921 134.43 112.777 137.273 92.0847 123.494 87.8703 103.833 82.4949Z" fill="#9A9FA9" transform="matrix(1 0 0 1.00405 592 306)"/><path d="M141.068 107.553 142.081 95.3729 174.953 87.7684 175.879 102.496ZM167.034 80.8925 135.77 90.0315 133.917 94.317 134.436 112.777 179.927 105.284 182.372 80.6702Z" fill="#68707F" transform="matrix(1 0 0 1.00405 592 306)"/><path d="M100.424 77.206 101.366 83.1155 133.911 94.317 136.177 89.0929 100.424 77.206Z" fill="#4FA9AA" transform="matrix(1 0 0 1.00405 592 306)"/><path d="M133.652 90.6181 153.798 80.6609 182.879 76.9529 182.372 80.6609 133.911 94.317 133.652 90.6181Z" fill="#359496" transform="matrix(1 0 0 1.00405 592 306)"/><path d="M100.424 77.206 109.986 75.4338 129.746 75.4214 143.788 69.1693 147.728 68.4406 182.879 76.9529 133.652 90.6181 100.424 77.206Z" fill="#72CBCC" transform="matrix(1 0 0 1.00405 592 306)"/><path d="M109.986 75.4338 126.053 85.9714 165.345 78.7652 143.788 69.1693 109.986 75.4338Z" fill="#F9EED7" transform="matrix(1 0 0 1.00405 592 306)"/><path d="M121.049 77.5148 119.952 79.5278 120.752 80.0095 136.242 80.3676 138.456 80.0712 137.4 77.7124 121.049 77.5148Z" fill="#B3889D" transform="matrix(1 0 0 1.00405 592 306)"/><path d="M119.952 79.5278 120.101 80.4294 138.351 80.9573 138.456 80.0712 119.952 79.5278Z" fill="#96637C" transform="matrix(1 0 0 1.00405 592 306)"/><path d="M132.343 78.6077 132.769 78.5923 132.5 77.6537 132.16 77.6475 132.343 78.6077Z" fill="#96637C" transform="matrix(1 0 0 1.00405 592 306)"/><path d="M123.089 77.5395 122.657 77.5333 122.293 78.5429 122.765 78.5429 123.089 77.5395Z" fill="#96637C" transform="matrix(1 0 0 1.00405 592 306)"/><path d="M134.161 78.6386 134.556 78.6232 134.173 77.6722 133.843 77.6692 134.161 78.6386Z" fill="#96637C" transform="matrix(1 0 0 1.00405 592 306)"/><path d="M130.604 78.6386 130.984 78.6386 130.851 77.6321 130.543 77.629 130.604 78.6386Z" fill="#96637C" transform="matrix(1 0 0 1.00405 592 306)"/><path d="M124.642 77.558 124.266 77.5518 123.997 78.5429 124.473 78.5429 124.642 77.558Z" fill="#96637C" transform="matrix(1 0 0 1.00405 592 306)"/><path d="M135.881 77.6938 135.578 77.6908 135.964 78.6541 136.39 78.6695 135.881 77.6938Z" fill="#96637C" transform="matrix(1 0 0 1.00405 592 306)"/><path d="M126.168 77.5765 125.806 77.5704 125.674 78.512 126.053 78.4812 126.168 77.5765Z" fill="#96637C" transform="matrix(1 0 0 1.00405 592 306)"/><path d="M128.931 78.5769 129.342 78.5769 129.317 77.6136 128.98 77.6105 128.931 78.5769Z" fill="#96637C" transform="matrix(1 0 0 1.00405 592 306)"/><path d="M127.35 78.512 127.745 78.5429 127.733 77.5951 127.4 77.592 127.35 78.512Z" fill="#96637C" transform="matrix(1 0 0 1.00405 592 306)"/><path d="M144.989 73.2015 142.837 73.5195 142.186 75.0139 143.09 75.0139 143.238 73.8777 145.958 73.8345 144.989 73.2015Z" fill="#72CBCC" transform="matrix(1 0 0 1.00405 592 306)"/><path d="M149.222 75.2887 142.186 70.9847 141.59 70.9353 140.944 70.2283 139.459 69.972 140.595 70.9847 141.389 71.1792 141.719 71.6454 147.453 75.0046 147.99 75.7611 148.75 75.9834 149.383 75.6345 149.222 75.2887Z" fill="#89909B" transform="matrix(1 0 0 1.00405 592 306)"/><path d="M140.595 70.9847 140.944 70.2283 142.186 70.9847 141.719 71.6454 140.595 70.9847Z" fill="#72CBCC" transform="matrix(1 0 0 1.00405 592 306)"/><path d="M147.453 75.0046 137.971 74.381 135.986 74.8873 148.75 75.9834 147.453 75.0046Z" fill="#ABAFB8" transform="matrix(1 0 0 1.00405 592 306)"/><path d="M149.222 75.2887 151.226 75.8167 150.719 76.8263 148.75 75.9834 149.222 75.2887Z" fill="#72CBCC" transform="matrix(1 0 0 1.00405 592 306)"/><path d="M177.42 74.381 183.364 76.3323 184.265 78.6263 183.959 80.9573 180.64 81.1518 180.224 77.6908 175.524 76.4897 177.42 74.381Z" fill="#B3889D" transform="matrix(1 0 0 1.00405 592 306)"/><path d="M183.959 80.9573 186.791 79.5278 187.093 75.9834 183.709 75.9834 182.879 76.9529 183.959 80.9573Z" fill="#96637C" transform="matrix(1 0 0 1.00405 592 306)"/><path d="M177.42 74.381 182.274 74.0506 187.093 75.9834 182.879 76.9529 177.42 74.381Z" fill="#D1A1B8" transform="matrix(1 0 0 1.00405 592 306)"/><path d="M183.839 74.6805 174.311 65.6958 171.946 66.585 182.255 75.5017 183.839 74.6805Z" fill="#787F8D" transform="matrix(1 0 0 1.00405 592 306)"/><path d="M171.946 66.585 176.41 57.8351 176.528 54.2011 171.946 62.4972 171.946 66.585Z" fill="#9A9FA9" transform="matrix(1 0 0 1.00405 592 306)"/><path d="M176.908 54.4172 175.852 52.6079 166.75 50.4652 161.776 50.1163 160.596 51.2556 162.112 53.4045 176.13 54.7939 176.908 54.4172Z" fill="#787F8D" transform="matrix(1 0 0 1.00405 592 306)"/><path d="M166.75 50.4652 165.737 46.683 161.124 47.4611 162.767 52.0614 166.75 50.4652Z" fill="#359496" transform="matrix(1 0 0 1.00405 592 306)"/><path d="M163.273 48.2206 154.168 44.9324 144.257 44.7934 141.006 48.5232 162.767 52.0614 163.273 48.2206Z" fill="#4FA9AA" transform="matrix(1 0 0 1.00405 592 306)"/><path d="M144.257 44.7934 148.907 42.8267 165.737 46.683 163.273 48.2206 144.257 44.7934Z" fill="#72CBCC" transform="matrix(1 0 0 1.00405 592 306)"/><path d="M176.41 57.8351 173.619 55.893 175.852 52.6079 178.349 54.7939 176.41 57.8351Z" fill="#96637C" transform="matrix(1 0 0 1.00405 592 306)"/><path d="M174.311 65.6958 171.946 62.4972 169.63 65.6958 171.736 68.524 174.311 65.6958Z" fill="#96637C" transform="matrix(1 0 0 1.00405 592 306)"/><path d="M175.243 55.575 176.191 54.3307 176.908 55.2416 175.984 56.2079 175.243 55.575Z" fill="#CFBFD6" transform="matrix(1 0 0 1.00405 592 306)"/><path d="M170.936 65.6958 171.927 64.856 172.684 65.6958 171.81 66.477 170.936 65.6958Z" fill="#CFBFD6" transform="matrix(1 0 0 1.00405 592 306)"/><path d="M60.3637 102.449 61.3147 96.2559 72.6983 95.9194 78.2589 99.0779 70.4506 102.156 60.3637 102.449Z" fill="#735283" transform="matrix(1 0 0 1.00405 592 306)"/><path d="M60.799 62.9171 57.6714 70.0832 59.1843 75.5295 60.5459 80.2657 64.9579 79.7656 63.655 70.8396 60.799 62.9171Z" fill="#84C8AB" transform="matrix(1 0 0 1.00405 592 306)"/><path d="M67.7521 72.652 67.079 68.524 60.799 62.9171 63.4327 73.748 64.2354 76.959 67.8787 75.9525 67.7521 72.652Z" fill="#33A474" transform="matrix(1 0 0 1.00405 592 306)"/><path d="M75.971 94.4435 82.5906 85.1285 80.4386 77.7093 74.665 81.0407 71.8832 82.3899 69.0272 91.3252 75.971 94.4435Z" fill="#33A474" transform="matrix(1 0 0 1.00405 592 306)"/><path d="M80.4386 77.7093 70.3672 93.789 66.9247 90.5039 73.2324 80.5776 75.6993 79.7656 80.4386 77.7093Z" fill="#5BB68F" transform="matrix(1 0 0 1.00405 592 306)"/><path d="M74.8935 81.5501 75.5913 85.4497 73.4238 81.8558 74.8935 81.5501Z" fill="#2B8B62" transform="matrix(1 0 0 1.00405 592 306)"/><path d="M74.7947 86.7217 80.7906 87.6603 79.9601 88.8305 74.7947 86.7217Z" fill="#2B8B62" transform="matrix(1 0 0 1.00405 592 306)"/><path d="M63.4327 76.959 52.8765 73.2015 55.4392 81.8558 61.4814 90.5039 65.4921 89.5128 63.4327 76.959Z" fill="#33A474" transform="matrix(1 0 0 1.00405 592 306)"/><path d="M59.9562 83.7793 52.8765 73.2015 53.2563 82.7882 61.4814 90.5039 64.9579 91.5753 62.9912 86.8977 59.9562 83.7793Z" fill="#5BB68F" transform="matrix(1 0 0 1.00405 592 306)"/><path d="M64.7109 104.009 63.655 99.3743 60.1568 90.5039 67.289 86.2647 75.0633 90.754 71.3984 104.222 64.7109 104.009Z" fill="#2D9368" transform="matrix(1 0 0 1.00405 592 306)"/><path d="M67.289 86.2647 67.7521 100.933 67.289 102.956 65.4921 87.5769 67.289 86.2647Z" fill="#267A56" transform="matrix(1 0 0 1.00405 592 306)"/><path d="M69.3144 87.4349 68.1103 103.768 69.1415 103.91 70.6049 88.179 69.3144 87.4349Z" fill="#267A56" transform="matrix(1 0 0 1.00405 592 306)"/><path d="M63.9113 88.7317 66.9247 103.604 65.7082 103.604 62.9912 89.5128 63.9113 88.7317Z" fill="#267A56" transform="matrix(1 0 0 1.00405 592 306)"/><path d="M72.5377 90.5039 69.3576 103.91 70.3178 104.138 73.4238 90.9454 72.5377 90.5039Z" fill="#267A56" transform="matrix(1 0 0 1.00405 592 306)"/><path d="M62.738 83.0414 64.2354 90.3433 71.6393 88.7317 75.6993 79.7656 71.6393 69.7034 65.7977 74.5693 62.738 83.0414Z" fill="#33A474" transform="matrix(1 0 0 1.00405 592 306)"/><path d="M71.6393 69.7034 64.2354 90.3433 59.1843 87.2157 59.9562 83.7793 63.4327 73.748 71.6393 69.7034Z" fill="#5BB68F" transform="matrix(1 0 0 1.00405 592 306)"/><path d="M75.6993 79.7656 67.3754 81.5903 74.8935 81.5501 75.6993 79.7656Z" fill="#2B8B62" transform="matrix(1 0 0 1.00405 592 306)"/><path d="M66.2207 84.8105 61.6481 78.9011 61.0893 80.5127 66.2207 84.8105Z" fill="#2B8B62" transform="matrix(1 0 0 1.00405 592 306)"/><path d="M68.1103 79.5433 63.4327 73.748 64.8375 73.0564 68.1103 79.5433Z" fill="#2B8B62" transform="matrix(1 0 0 1.00405 592 306)"/><path d="M59.9562 83.7793 53.2563 82.7882 54.7043 84.1498 59.9562 83.7793Z" fill="#2B8B62" transform="matrix(1 0 0 1.00405 592 306)"/><path d="M57.1218 79.5433 59.1843 75.5295 57.8628 74.9769 57.1218 79.5433Z" fill="#2B8B62" transform="matrix(1 0 0 1.00405 592 306)"/><path d="M64.2354 90.3433 50.6628 98.5931 51.1043 91.5753 58.1531 89.5128 64.2354 90.3433Z" fill="#33A474" transform="matrix(1 0 0 1.00405 592 306)"/><path d="M64.2354 90.3433 59.9562 83.7793 57.0446 86.345 54.8155 89.9327 64.2354 90.3433Z" fill="#84C8AB" transform="matrix(1 0 0 1.00405 592 306)"/><path d="M64.2354 90.3433 57.0446 86.345 51.1043 91.5753 64.2354 90.3433Z" fill="#5BB68F" transform="matrix(1 0 0 1.00405 592 306)"/><path d="M53.846 99.0779 67.7521 100.933 72.1364 105.358 68.6382 115.059 57.7918 113.731 56.0906 107.423 57.3658 106.559 55.4392 105 53.846 99.0779Z" fill="#9F80AE" transform="matrix(1 0 0 1.00405 592 306)"/><path d="M67.7521 100.933 78.2589 99.0779 77.2894 105 76.2674 106.068 76.959 107.022 75.934 113.296 68.6382 115.059 67.7521 100.933Z" fill="#88619A" transform="matrix(1 0 0 1.00405 592 306)"/><path d="M55.4392 105 68.1103 106.618 69.3144 107.43 68.2307 108.584 56.0906 107.423 55.4392 105Z" fill="#72CBCC" transform="matrix(1 0 0 1.00405 592 306)"/><path d="M68.1103 106.618 77.2894 105 76.959 107.022 68.2307 108.584 68.1103 106.618Z" fill="#4FA9AA" transform="matrix(1 0 0 1.00405 592 306)"/><path d="M64.2354 90.3433 56.0783 91.1986 53.2563 99.3743 57.4491 101.029 62.5342 95.7125 64.2354 90.3433Z" fill="#84C8AB" transform="matrix(1 0 0 1.00405 592 306)"/><path d="M64.2354 90.3433 68.7524 95.0549 62.5404 100.239 59.3232 101.218 57.1218 99.9208 64.2354 90.3433Z" fill="#5BB68F" transform="matrix(1 0 0 1.00405 592 306)"/><path d="M53.2563 99.3743 56.7915 110.02 58.5668 102.292 57.1218 99.9208 53.2563 99.3743Z" fill="#47AD82" transform="matrix(1 0 0 1.00405 592 306)"/><path d="M62.5404 100.239 56.7915 110.02 57.1218 99.9208 62.5404 100.239Z" fill="#309B6E" transform="matrix(1 0 0 1.00405 592 306)"/><path d="M61.9075 93.4741 64.7109 98.4264 63.655 99.3743 61.9075 93.4741Z" fill="#2B8B62" transform="matrix(1 0 0 1.00405 592 306)"/><path d="M60.3637 95.555 54.2844 96.3918 53.8645 97.6144 60.3637 95.555Z" fill="#2B8B62" transform="matrix(1 0 0 1.00405 592 306)"/><path d="M62.9356 71.7041 67.079 68.524 65.8996 67.4681 62.9356 71.7041Z" fill="#2B8B62" transform="matrix(1 0 0 1.00405 592 306)"/><path d="M62.4509 69.7034 58.4711 68.2461 58.9342 67.1871 62.4509 69.7034Z" fill="#2B8B62" transform="matrix(1 0 0 1.00405 592 306)"/><path d="M62.9356 71.7041 57.6714 70.0832 58.0049 71.2842 62.9356 71.7041Z" fill="#2B8B62" transform="matrix(1 0 0 1.00405 592 306)"/><path d="M68.7524 95.0549 73.007 89.5776 80.1237 95.0549 85.6658 106.794 68.7524 95.0549Z" fill="#5BB68F" transform="matrix(1 0 0 1.00405 592 306)"/><path d="M73.007 89.5776 83.4212 93.4741 85.6658 106.794 73.007 89.5776Z" fill="#84C8AB" transform="matrix(1 0 0 1.00405 592 306)"/><path d="M76.181 93.894 73.041 98.1825 75.3041 99.5997 76.181 93.894Z" fill="#2B8B62" transform="matrix(1 0 0 1.00405 592 306)"/><path d="M78.1601 96.5863 84.0078 96.9599 84.3227 98.8247 78.1601 96.5863Z" fill="#2B8B62" transform="matrix(1 0 0 1.00405 592 306)"/><path d="M44.2871 85.4157 36.0682 85.4157 36.7845 83.3285 41.0823 83.9615 44.2871 85.4157Z" fill="#86B264" transform="matrix(1 0 0 1.00405 592 306)"/><path d="M38.2757 81.476 40.7982 82.3189 44.2871 85.4157 36.7845 83.3285 38.2757 81.476Z" fill="#A0CF7E" transform="matrix(1 0 0 1.00405 592 306)"/><path d="M40.0727 88.5125 31.4308 86.7742 24.2029 89.4418 28.4575 92.8535 36.7073 93.5513 40.0727 88.5125Z" fill="#1E7678" transform="matrix(1 0 0 1.00405 592 306)"/><path d="M29.1522 76.2983 32.5484 90.5378 30.8503 92.307 27.6794 75.0479 29.1522 76.2983Z" fill="#47AD82" transform="matrix(1 0 0 1.00405 592 306)"/><path d="M36.4541 63.6889 33.9193 70.5586 32.5484 90.5378 31.1251 91.6741 32.2335 70.2314 35.1419 61.8334 36.4541 63.6889Z" fill="#33A474" transform="matrix(1 0 0 1.00405 592 306)"/><path d="M36.7845 83.3285 35.1419 91.9581 34.1725 91.9581 35.8582 80.8863 36.7845 83.3285Z" fill="#47AD82" transform="matrix(1 0 0 1.00405 592 306)"/><path d="M35.6328 49.3691 36.6517 50.4621 37.7509 50.283 39.1804 50.9005 39.5107 51.6446 40.5142 51.4779 42.6044 52.3825 41.9962 54.0096 42.7989 54.4357 42.9965 56.5507 42.4963 57.3071 43.1385 58.0666 43.4103 60.9318 42.0672 61.0059 41.7646 61.6697 40.3073 62.3243 39.5416 62.1977 39.273 62.7905 38.0627 63.3339 37.3032 63.2845 36.2936 64.1274 34.6294 63.337 34.0737 62.7905 33.3512 62.7287 31.5851 61.8889 31.721 60.5273 31.0294 60.0117 30.6342 58.6779 30.8503 58.0666 30.2729 57.4522 29.5319 54.9452 30.7175 54.5685 31.0139 53.5897 31.721 52.9445 32.9776 52.5029 33.7093 51.1259 35.6328 49.3691Z" fill="#F4D75C" transform="matrix(1 0 0 1.00405 592 306)"/><path d="M34.367 57.2114 36.4541 55.1952 38.8716 56.7544 36.7845 59.3201 34.367 57.2114Z" fill="#9F7928" transform="matrix(1 0 0 1.00405 592 306)"/><path d="M42.6044 52.3825 38.8716 56.7544 42.7989 54.4357 42.6044 52.3825Z" fill="#E4AE3A" transform="matrix(1 0 0 1.00405 592 306)"/><path d="M43.4103 60.9318 37.9639 57.8721 41.7646 61.6697 43.4103 60.9318Z" fill="#E4AE3A" transform="matrix(1 0 0 1.00405 592 306)"/><path d="M36.7845 59.3201 36.2936 64.1274 38.0627 63.3339 36.7845 59.3201Z" fill="#E4AE3A" transform="matrix(1 0 0 1.00405 592 306)"/><path d="M31.5851 61.8889 35.6761 58.3507 31.0294 60.0117 31.5851 61.8889Z" fill="#E4AE3A" transform="matrix(1 0 0 1.00405 592 306)"/><path d="M34.367 57.2114 29.5319 54.9452 31.0139 53.5897 34.367 57.2114Z" fill="#E4AE3A" transform="matrix(1 0 0 1.00405 592 306)"/><path d="M35.6328 49.3691 36.4541 55.1952 37.7509 50.283 35.6328 49.3691Z" fill="#E4AE3A" transform="matrix(1 0 0 1.00405 592 306)"/><path d="M39.1804 50.9005 37.7509 56.0319 40.5142 51.4779 39.1804 50.9005Z" fill="#E4AE3A" transform="matrix(1 0 0 1.00405 592 306)"/><path d="M35.5865 56.0319 33.7093 51.1259 31.721 52.9445 35.5865 56.0319Z" fill="#E4AE3A" transform="matrix(1 0 0 1.00405 592 306)"/><path d="M34.9196 57.693 30.2729 57.4522 30.6342 58.6779 34.9196 57.693Z" fill="#E4AE3A" transform="matrix(1 0 0 1.00405 592 306)"/><path d="M36.0497 58.6779 34.6232 63.3339 33.3512 62.7287 36.0497 58.6779Z" fill="#E4AE3A" transform="matrix(1 0 0 1.00405 592 306)"/><path d="M37.5718 58.3507 40.3073 62.3243 39.273 62.7905 37.5718 58.3507Z" fill="#E4AE3A" transform="matrix(1 0 0 1.00405 592 306)"/><path d="M38.498 57.2114 42.9965 56.5507 43.1385 58.0666 38.498 57.2114Z" fill="#E4AE3A" transform="matrix(1 0 0 1.00405 592 306)"/><path d="M33.9193 70.5586 32.7121 69.9597 32.7584 68.7154 31.7086 67.0451 30.9676 66.6746 30.8194 65.631 29.8716 64.1274 28.0191 65.1679 27.0836 64.7974 22.9185 65.7946 22.9123 67.0018 22.0046 67.4434 20.8128 69.5922 20.8283 70.4753 19.6458 71.6979 20.6399 73.1861 21.2883 73.4238 21.1556 73.9549 22.0046 75.2269 22.7364 75.6345 23.1408 76.9282 27.4263 77.1659 28.2074 76.394 29.3868 77.277 31.2177 74.5631 30.8194 73.6986 32.076 73.2911 33.9193 70.5586Z" fill="#F4D75C" transform="matrix(1 0 0 1.00405 592 306)"/><path d="M24.2245 71.2348 26.1635 68.5981 28.9453 70.7007 26.2067 73.4238 24.2245 71.2348Z" fill="#9F7928" transform="matrix(1 0 0 1.00405 592 306)"/><path d="M29.8716 64.1274 26.1635 68.5981 27.0836 64.7974 29.8716 64.1274Z" fill="#E4AE3A" transform="matrix(1 0 0 1.00405 592 306)"/><path d="M22.9185 65.7946 26.1635 68.5981 22.0046 67.4434 22.9185 65.7946Z" fill="#E4AE3A" transform="matrix(1 0 0 1.00405 592 306)"/><path d="M24.2245 71.2348 19.6458 71.6979 20.8128 69.5922 24.2245 71.2348Z" fill="#E4AE3A" transform="matrix(1 0 0 1.00405 592 306)"/><path d="M26.2067 73.4238 23.1408 76.9282 22.0046 75.2269 26.2067 73.4238Z" fill="#E4AE3A" transform="matrix(1 0 0 1.00405 592 306)"/><path d="M28.9453 70.7007 33.9193 70.5586 32.7584 68.7154 28.9453 70.7007Z" fill="#E4AE3A" transform="matrix(1 0 0 1.00405 592 306)"/><path d="M27.241 72.3957 29.3868 77.277 27.4263 77.1659 27.241 72.3957Z" fill="#E4AE3A" transform="matrix(1 0 0 1.00405 592 306)"/><path d="M25.2743 72.3957 20.6399 73.1861 21.1556 73.9549 25.2743 72.3957Z" fill="#E4AE3A" transform="matrix(1 0 0 1.00405 592 306)"/><path d="M28.0191 71.6238 32.076 73.2911 31.2177 74.5631 28.0191 71.6238Z" fill="#E4AE3A" transform="matrix(1 0 0 1.00405 592 306)"/><path d="M27.4757 69.5922 30.8194 65.631 31.7086 67.0451 27.4757 69.5922Z" fill="#E4AE3A" transform="matrix(1 0 0 1.00405 592 306)"/><path d="M36.7845 83.3285 36.3214 82.4332 35.6081 82.5258 33.2091 80.8894 32.8047 80.1145 31.7333 79.8798 32.9066 76.9282 33.4747 76.4465 33.6013 75.1775 34.79 74.6897 35.2346 74.9244 35.7008 74.313 37.016 73.7727 37.6675 73.9333 38.9149 72.9916 40.6191 75.1775 40.4185 76.0359 41.3416 76.1007 42.6631 77.7988 41.9344 78.512 42.1259 79.1048 40.7982 82.3189 39.6589 81.9299 39.3811 82.674 36.7845 83.3285Z" fill="#F4D75C" transform="matrix(1 0 0 1.00405 592 306)"/><path d="M35.2346 78.0489 37.5718 76.5978 39.1557 78.8825 36.4541 80.0187 35.2346 78.0489Z" fill="#9F7928" transform="matrix(1 0 0 1.00405 592 306)"/><path d="M38.9149 72.9916 37.5718 76.5978 37.016 73.7727 38.9149 72.9916Z" fill="#E4AE3A" transform="matrix(1 0 0 1.00405 592 306)"/><path d="M35.2346 78.0489 33.6013 75.1775 32.9066 76.9282 35.2346 78.0489Z" fill="#E4AE3A" transform="matrix(1 0 0 1.00405 592 306)"/><path d="M35.6884 78.7837 31.7333 79.8798 33.2091 80.8894 35.6884 78.7837Z" fill="#E4AE3A" transform="matrix(1 0 0 1.00405 592 306)"/><path d="M36.4541 80.0187 36.7845 83.3285 35.6081 82.5258 36.4541 80.0187Z" fill="#E4AE3A" transform="matrix(1 0 0 1.00405 592 306)"/><path d="M37.9639 79.3827 40.7982 82.3189 39.3811 82.674 37.9639 79.3827Z" fill="#E4AE3A" transform="matrix(1 0 0 1.00405 592 306)"/><path d="M39.1557 78.8825 42.6631 77.7988 42.1259 79.1048 39.1557 78.8825Z" fill="#E4AE3A" transform="matrix(1 0 0 1.00405 592 306)"/><path d="M38.2757 77.6136 40.6191 75.1775 41.3416 76.1007 38.2757 77.6136Z" fill="#E4AE3A" transform="matrix(1 0 0 1.00405 592 306)"/><path d="M36.4819 77.277 35.7008 74.313 34.79 74.6897 36.4819 77.277Z" fill="#E4AE3A" transform="matrix(1 0 0 1.00405 592 306)"/><path d="M33.9193 70.5586 37.7107 67.1964 45.2566 68.7154 39.1495 70.5586 33.9193 70.5586Z" fill="#A0CF7E" transform="matrix(1 0 0 1.00405 592 306)"/><path d="M33.9193 70.5586 38.9149 72.9916 45.2566 68.7154 33.9193 70.5586Z" fill="#86B264" transform="matrix(1 0 0 1.00405 592 306)"/><path d="M28.4575 83.7608 23.5082 80.3368 17.3981 87.1848 26.5865 84.6346 28.4575 83.7608Z" fill="#86B264" transform="matrix(1 0 0 1.00405 592 306)"/><path d="M32.9066 85.0884 23.5082 80.3368 26.5865 84.6346 32.9066 85.0884Z" fill="#A0CF7E" transform="matrix(1 0 0 1.00405 592 306)"/><path d="M24.2029 89.4418 32.5484 90.5378 35.1419 99.26 33.8328 110.801 23.1964 109.498 23.6533 100.368 24.7432 98.8247 23.8756 95.9379 24.2029 89.4418Z" fill="#72CBCC" transform="matrix(1 0 0 1.00405 592 306)"/><path d="M32.5484 90.5378 40.0727 88.5125 39.9183 96.0861 38.2757 99.081 39.8288 100.313 39.6404 109.659 33.8328 110.801 32.5484 90.5378Z" fill="#4FA9AA" transform="matrix(1 0 0 1.00405 592 306)"/><path d="M23.8756 95.9379 32.993 97.5249 35.1419 99.26 33.2616 101.789 23.6533 100.368 23.8756 95.9379Z" fill="#B3889D" transform="matrix(1 0 0 1.00405 592 306)"/><path d="M32.993 97.5249 39.9183 96.0861 39.8288 100.313 33.2616 101.789 32.993 97.5249Z" fill="#96637C" transform="matrix(1 0 0 1.00405 592 306)"/><path d="M26.4661 84.6685 30.5601 94.3602 32.9066 85.0884 26.4661 84.6685Z" fill="#C0DB8E" transform="matrix(1 0 0 1.00405 592 306)"/><path d="M30.5601 94.3602 36.3862 85.4157 32.9066 85.0884 30.5601 94.3602Z" fill="#A0CF7E" transform="matrix(1 0 0 1.00405 592 306)"/><path d="M37.3186 86.061 39.9183 84.1992 44.497 90.9145 37.649 88.1697 37.3186 86.061Z" fill="#A0CF7E" transform="matrix(1 0 0 1.00405 592 306)"/><path d="M37.3186 86.061 44.497 90.9145 34.79 87.8703 37.3186 86.061Z" fill="#86B264" transform="matrix(1 0 0 1.00405 592 306)"/><path d="M213.513 76.5546 213.846 78.9536 211.688 81.0592 208.53 80.8801 205.442 80.9326 210.339 77.3079 213.513 76.5546Z" fill="#86B264" transform="matrix(1 0 0 1.00405 592 306)"/><path d="M213.513 76.5546 209.277 74.5106 205.442 80.9326 213.513 76.5546Z" fill="#A0CF7E" transform="matrix(1 0 0 1.00405 592 306)"/><path d="M204.809 91.001 214.168 87.9721 224.112 89.9543 214.544 96.5708 204.809 91.001Z" fill="#1E7678" transform="matrix(1 0 0 1.00405 592 306)"/><path d="M214.841 92.5231 214.251 80.133 215.557 70.1851 214.251 69.8084 213.198 79.4599 213.491 94.2089 214.841 92.5231Z" fill="#33A474" transform="matrix(1 0 0 1.00405 592 306)"/><path d="M219.561 81.1858 218.045 94.1502 216.946 93.5358 218.888 77.6877 219.561 81.1858Z" fill="#33A474" transform="matrix(1 0 0 1.00405 592 306)"/><path d="M210.111 69.8084 211.339 70.0523 211.586 70.9044 213.939 72.6551 214.575 71.6732 215.31 72.0592 219.416 70.2746 220.33 66.8104 219.987 66.2763 220.732 65.2975 218.586 63.5037 217.74 63.7383 217.619 62.6917 215.557 60.9658 213.846 62.6917 212.401 62.5003 209.447 63.939 210.111 65.5538 209.718 66.3411 210.111 69.8084Z" fill="#E4C824" transform="matrix(1 0 0 1.00405 592 306)"/><path d="M212.707 66.653 214.757 65.2543 216.443 67.255 214.421 68.879 212.707 66.653Z" fill="#9F7928" transform="matrix(1 0 0 1.00405 592 306)"/><path d="M214.421 68.879 213.939 72.6551 215.31 72.0592 214.421 68.879Z" fill="#CC9C34" transform="matrix(1 0 0 1.00405 592 306)"/><path d="M216.443 67.255 219.416 70.2746 218.169 70.7686 216.443 67.255Z" fill="#CC9C34" transform="matrix(1 0 0 1.00405 592 306)"/><path d="M212.707 66.653 209.447 63.939 209.718 66.3411 212.707 66.653Z" fill="#CC9C34" transform="matrix(1 0 0 1.00405 592 306)"/><path d="M210.111 69.8084 213.491 67.6687 211.586 70.9044 210.111 69.8084Z" fill="#CC9C34" transform="matrix(1 0 0 1.00405 592 306)"/><path d="M216.443 67.255 220.732 65.2975 220.33 66.8104 216.443 67.255Z" fill="#CC9C34" transform="matrix(1 0 0 1.00405 592 306)"/><path d="M214.757 65.2543 215.557 60.9658 212.401 62.5003 214.757 65.2543Z" fill="#CC9C34" transform="matrix(1 0 0 1.00405 592 306)"/><path d="M217.619 62.6917 215.557 66.196 218.586 63.5037 217.619 62.6917Z" fill="#CC9C34" transform="matrix(1 0 0 1.00405 592 306)"/><path d="M208.53 80.8801 209.796 80.9543 210.111 80.3985 213.198 79.4599 213.513 80.275 214.257 80.2472 215.847 81.4297 215.918 82.3158 217.317 82.5258 216.357 85.249 215.557 85.5948 215.921 86.484 215.316 88.2006 213.939 87.8332 213.343 88.5588 212.253 88.7564 211.969 88.4631 211.099 88.9663 209.845 87.719 209.644 86.9841 208.99 86.8668 207.486 85.3694 208.202 84.6006 207.844 83.8318 208.53 80.8801Z" fill="#F4D75C" transform="matrix(1 0 0 1.00405 592 306)"/><path d="M211.488 82.5845 213.846 83.6774 212.84 85.8418 210.657 84.7179 211.488 82.5845Z" fill="#9F7928" transform="matrix(1 0 0 1.00405 592 306)"/><path d="M211.488 82.5845 210.111 80.3985 208.53 80.8801 211.488 82.5845Z" fill="#E4AE3A" transform="matrix(1 0 0 1.00405 592 306)"/><path d="M213.198 79.4599 212.432 82.9982 214.257 80.2472 213.198 79.4599Z" fill="#E4AE3A" transform="matrix(1 0 0 1.00405 592 306)"/><path d="M213.846 83.6774 217.317 82.5258 215.847 81.4297 213.846 83.6774Z" fill="#E4AE3A" transform="matrix(1 0 0 1.00405 592 306)"/><path d="M210.657 84.7179 207.486 85.3694 207.844 83.8318 210.657 84.7179Z" fill="#E4AE3A" transform="matrix(1 0 0 1.00405 592 306)"/><path d="M212.84 85.8418 212.253 88.7564 211.099 88.9663 212.84 85.8418Z" fill="#E4AE3A" transform="matrix(1 0 0 1.00405 592 306)"/><path d="M211.688 85.249 208.99 86.8668 209.845 87.719 211.688 85.249Z" fill="#E4AE3A" transform="matrix(1 0 0 1.00405 592 306)"/><path d="M213.491 84.4462 216.357 85.249 215.921 86.484 213.491 84.4462Z" fill="#E4AE3A" transform="matrix(1 0 0 1.00405 592 306)"/><path d="M212.84 85.8418 215.316 88.2006 213.343 88.5588 212.84 85.8418Z" fill="#E4AE3A" transform="matrix(1 0 0 1.00405 592 306)"/><path d="M214.742 70.0276 215.77 70.5185 216.085 69.759 218.434 69.2866 219.092 69.6633 219.747 69.0241 222.248 68.5209 222.51 70.2839 223.628 70.2684 226.388 73.7696 225.496 74.4273 225.885 75.0849 224.968 77.4808 224.112 77.9841 224.208 79.4599 221.031 80.6393 220.29 80.3985 219.561 81.1858 215.819 77.9841 215.742 77.1258 214.662 76.993 214.699 73.7696 215.088 73.1799 214.714 72.3185 214.742 70.0276Z" fill="#F4D75C" transform="matrix(1 0 0 1.00405 592 306)"/><path d="M218.045 73.3899 220.889 72.7569 221.933 75.6036 218.74 76.2643 218.045 73.3899Z" fill="#9F7928" transform="matrix(1 0 0 1.00405 592 306)"/><path d="M220.889 72.7569 222.248 68.5209 223.628 70.2684 220.889 72.7569Z" fill="#E4AE3A" transform="matrix(1 0 0 1.00405 592 306)"/><path d="M221.933 75.6036 224.968 77.4808 224.208 79.4599 221.933 75.6036Z" fill="#E4AE3A" transform="matrix(1 0 0 1.00405 592 306)"/><path d="M221.417 74.1957 226.388 73.7696 225.885 75.0849 221.417 74.1957Z" fill="#E4AE3A" transform="matrix(1 0 0 1.00405 592 306)"/><path d="M218.045 73.3899 214.742 70.0276 216.085 69.759 218.045 73.3899Z" fill="#E4AE3A" transform="matrix(1 0 0 1.00405 592 306)"/><path d="M218.045 73.3899 214.714 72.3185 214.699 73.7696 218.045 73.3899Z" fill="#E4AE3A" transform="matrix(1 0 0 1.00405 592 306)"/><path d="M218.74 76.2643 215.819 77.9841 214.662 76.993 218.74 76.2643Z" fill="#E4AE3A" transform="matrix(1 0 0 1.00405 592 306)"/><path d="M219.716 76.0637 219.561 81.1858 221.031 80.6393 219.716 76.0637Z" fill="#E4AE3A" transform="matrix(1 0 0 1.00405 592 306)"/><path d="M219.747 69.0241 219.416 73.0842 218.434 69.2866 219.747 69.0241Z" fill="#E4AE3A" transform="matrix(1 0 0 1.00405 592 306)"/><path d="M204.809 91.001 214.841 92.5231 218.045 100.279 212.942 109.112 207.255 107.698 206.013 99.2292 206.918 97.9664 205.652 96.7468 204.809 91.001Z" fill="#72CBCC" transform="matrix(1 0 0 1.00405 592 306)"/><path d="M214.841 92.5231 224.112 89.9543 223.118 97.0247 222.047 98.6765 222.717 99.8991 221.578 108.001 212.942 109.112 214.841 92.5231Z" fill="#4FA9AA" transform="matrix(1 0 0 1.00405 592 306)"/><path d="M205.652 96.7468 214.201 98.1208 214.544 99.3527 213.846 101.208 206.013 99.2292 205.652 96.7468Z" fill="#B3889D" transform="matrix(1 0 0 1.00405 592 306)"/><path d="M214.201 98.1208 223.118 97.0247 222.717 99.8991 213.846 101.208 214.201 98.1208Z" fill="#96637C" transform="matrix(1 0 0 1.00405 592 306)"/><path d="M211.099 88.9663 213.423 90.7169 213.846 92.8597 210.339 97.5002 211.099 88.9663Z" fill="#A0CF7E" transform="matrix(1 0 0 1.00405 592 306)"/><path d="M215.557 92.3255 213.423 90.7169 210.339 97.5002 215.557 92.3255Z" fill="#86B264" transform="matrix(1 0 0 1.00405 592 306)"/><path d="M217.545 88.6452 220.151 86.8174 222.51 86.484 226.008 92.5663 217.545 88.6452Z" fill="#A0CF7E" transform="matrix(1 0 0 1.00405 592 306)"/><path d="M222.763 84.9803 226.008 92.5663 220.151 86.8174 222.763 84.9803Z" fill="#86B264" transform="matrix(1 0 0 1.00405 592 306)"/></g></g></g><text font-family="DengXian,DengXian_MSFontService,sans-serif" font-weight="700" font-size="32" transform="translate(500.686 353)"></text><text font-family="Bahnschrift SemiCondensed,Bahnschrift SemiCondensed_MSFontService,sans-serif" font-weight="700" font-stretch="semi-condensed" font-size="43" transform="translate(499.599 404)">63%</text></g></svg>