<svg width="401" height="182" xmlns="http://www.w3.org/2000/svg" xmlns:xlink="http://www.w3.org/1999/xlink" overflow="hidden"><defs><clipPath id="clip0"><rect x="874" y="257" width="401" height="182"/></clipPath><clipPath id="clip1"><rect x="1014" y="302" width="246" height="123"/></clipPath><clipPath id="clip2"><rect x="1014" y="302" width="246" height="123"/></clipPath><clipPath id="clip3"><rect x="1014" y="302" width="246" height="123"/></clipPath></defs><g clip-path="url(#clip0)" transform="translate(-874 -257)"><rect x="875" y="257" width="399" height="181" fill="#4472C4" fill-opacity="0"/><path d="M875 318.001C875 304.745 885.745 294 899.001 294L1250 294C1263.25 294 1274 304.745 1274 318.001L1274 413.999C1274 427.255 1263.25 438 1250 438L899.001 438C885.745 438 875 427.255 875 413.999Z" fill="#FFFFFF" fill-rule="evenodd"/><path d="M898.952 294 1099 294 1063.71 438 898.952 438C885.724 438 875 427.255 875 413.999L875 318.001C875 304.745 885.724 294 898.952 294Z" fill="#40C48B" fill-rule="evenodd"/><g clip-path="url(#clip1)"><g clip-path="url(#clip2)"><g clip-path="url(#clip3)"><path d="M1073.31 343.125 1067.12 324.835 1069.71 323.015 1077.46 350.413 1073.31 343.125Z" fill="#CCCFD4"/><path d="M1083.76 319.063 1068.58 329.146 1051.28 327.627 1055.13 325.198 1059.94 324.051 1060.26 321.966 1065.45 318.694 1071.09 318.808 1072.66 320.238 1077.5 318.937 1083.76 319.063Z" fill="#4FA9AA"/><path d="M1077.5 318.937 1067.12 326.197 1055.13 325.198 1060.26 321.966 1067.12 322.415 1071.09 318.808 1077.5 318.937Z" fill="#94D5D5"/><path d="M1068.06 369.93 1058.23 341.834 1056.36 342.848 1066.31 369.232 1068.06 369.93Z" fill="#CCCFD4"/><path d="M1044.07 345.616 1059.04 344.14 1072.48 332.799 1066.31 333.694 1062.21 335.631 1060.43 334.546 1053.11 335.607 1050.35 338.66 1050.35 340.588 1046.99 342.387 1044.07 345.616Z" fill="#4FA9AA"/><path d="M1066.31 333.694 1057.91 341.735 1046.99 342.387 1050.35 338.66 1056.36 338.722 1060.43 334.546 1066.31 333.694Z" fill="#94D5D5"/><path d="M1053.85 371.286 1032.76 344.195 1031.28 346.105 1053.7 373.758 1053.85 371.286Z" fill="#CCCFD4"/><path d="M1021.41 350.044 1033.75 345.468 1039.07 335.145 1034.66 336.194 1032.76 338.039 1031.69 336.901 1026.9 338.039 1025.21 341.735 1026.54 343.125 1023.69 345.056 1021.41 350.044Z" fill="#4FA9AA"/><path d="M1034.66 336.194 1030.97 343.605 1023.69 345.056 1025.21 341.735 1029.79 341 1031.69 336.901 1034.66 336.194Z" fill="#94D5D5"/><path d="M1213.68 382.82 1224.1 335.545 1226.75 339.435 1215.25 383.973 1213.68 382.82Z" fill="#CCCFD4"/><path d="M1210.73 329.801 1226.75 339.435 1243.87 337.504 1238.69 334.672 1234.19 333.491 1233.83 332.015 1227.52 328.565 1223.27 328.879 1221.25 330.136 1218.01 329.266 1210.73 329.801Z" fill="#4FA9AA"/><path d="M1218.01 329.266 1226.75 335.035 1238.69 334.672 1233.83 332.015 1226.75 331.883 1223.27 328.879 1218.01 329.266Z" fill="#94D5D5"/><path d="M1221.82 384.527 1234.19 354.103 1236.63 355.241 1223.37 385.689 1221.82 384.527Z" fill="#CCCFD4"/><path d="M1222.31 343.685 1235.73 357.319 1252.1 357.319 1248.98 354.447 1245.99 353.125 1245.63 351.36 1241.19 347.267 1234.32 345.963 1232.64 347.387 1229.53 345.056 1222.31 343.685Z" fill="#4FA9AA"/><path d="M1234.32 345.963 1238.26 352.23 1245.63 351.36 1248.98 354.447 1236.63 354.103 1229.53 345.056 1234.32 345.963Z" fill="#94D5D5"/><path d="M1036.75 385.416 1030.24 364.232 1028.2 365.394 1035.85 386.184 1036.75 385.416Z" fill="#CCCFD4"/><path d="M1019.09 369.447 1031.52 368.392 1039.76 360.044 1035.69 360.345 1031.58 361.8 1030.89 360.702 1026.58 361.022 1024.16 363.746 1024.58 364.782 1021.74 366.47 1019.09 369.447Z" fill="#4FA9AA"/><path d="M1035.69 360.345 1029.83 365.074 1021.74 366.47 1024.16 363.746 1029.18 363.076 1030.89 360.702 1035.69 360.345Z" fill="#94D5D5"/><path d="M1014.86 390.434 1060.35 378.051 1149.91 368.58 1259.34 390.434 1212.65 398.632 1203 413.106 1133.86 424.013 1053.95 413.017 1061.25 398.783 1014.86 390.434Z" fill="#A0CF7E"/><path d="M1052.11 391.938 1053.5 391.403 1055.47 392.282 1053.3 393.158 1052.11 391.938Z" fill="#1D2432" fill-opacity="0.1"/><path d="M1047.97 396.393 1050.16 395.382 1051.96 397.113 1047.97 396.393Z" fill="#1D2432" fill-opacity="0.1"/><path d="M1073.55 412.008 1069.02 409.853 1074.04 408.564 1077.5 410.797 1073.55 412.008Z" fill="#1D2432" fill-opacity="0.1"/><path d="M1119.77 417.755 1122.55 419.213 1124.56 418.213 1122 416.731 1119.77 417.755Z" fill="#1D2432" fill-opacity="0.1"/><path d="M1173.12 404.354 1164.24 401.876 1088.9 386.012 1074.93 386.526 1055.37 393.801 1137.1 411.009 1139.18 413.161 1142.1 412.063 1151.86 414.118 1173.12 404.354Z" fill="#1D2432" fill-opacity="0.1"/><path d="M1130.87 423.601 1133.86 424.013 1136.46 423.601 1133.67 422.334 1130.87 423.601Z" fill="#1D2432" fill-opacity="0.1"/><path d="M1147.58 421.848 1150.11 421.448 1152.85 421.018 1149.9 419.739 1147.58 421.848Z" fill="#1D2432" fill-opacity="0.1"/><path d="M1141.14 420.658 1143.33 421.448 1145.78 420.504 1143.3 419.526 1141.14 420.658Z" fill="#1D2432" fill-opacity="0.1"/><path d="M1157.27 420.32 1160.02 419.886 1165.98 418.945 1160.27 417.236 1157.27 420.32Z" fill="#1D2432" fill-opacity="0.1"/><path d="M1203 394.53 1205.3 393.469 1207.64 394.714 1205.11 395.508 1203 394.53Z" fill="#1D2432" fill-opacity="0.1"/><path d="M1208.42 391.581 1210.52 390.237 1213.1 391.581 1209.75 392.476 1208.42 391.581Z" fill="#1D2432" fill-opacity="0.1"/><path d="M1226.97 396.117 1230.03 395.578 1232.27 395.188 1229.62 393.89 1226.97 396.117Z" fill="#1D2432" fill-opacity="0.1"/><path d="M1238.52 389.77 1241.15 390.867 1244.32 389.77 1240.87 388.475 1238.52 389.77Z" fill="#1D2432" fill-opacity="0.1"/><path d="M1173.12 388.475 1175.66 389.831 1178.77 388.475 1175.29 387.593 1173.12 388.475Z" fill="#1D2432" fill-opacity="0.1"/><path d="M1209.11 380.403 1201.96 382.934 1179.09 381.692 1171.89 375.529 1179.09 374.407 1201.34 377.119 1202.45 379.072 1209.11 380.403Z" fill="#1D2432" fill-opacity="0.1"/><path d="M1155.13 334.002 1176.61 320.238 1160.28 319.063 1155.13 334.002Z" fill="#ABAFB8"/><path d="M1141.97 321.908 1150.07 338.928 1156.75 321.908 1148.8 319.365 1141.97 321.908Z" fill="#ABAFB8"/><path d="M1157.82 328.799 1169.62 319.644 1170.81 320.315 1157.27 330.754 1157.82 328.799Z" fill="#CCCFD4"/><path d="M1150.07 337.569 1141.18 319.7 1140.2 320.142 1149.37 339.899 1150.07 337.569Z" fill="#CCCFD4"/><path d="M1155.24 333.239 1177.09 319.365 1179.19 319.924 1154.99 335.035 1155.24 333.239Z" fill="#CCCFD4"/><path d="M1151.01 335.926 1145.87 320.758 1147.74 320.238 1151.94 334.7 1151.01 335.926Z" fill="#CCCFD4"/><path d="M1152.06 333.27 1148.9 317.569 1150.83 317.292 1153.14 332.175 1152.06 333.27Z" fill="#CCCFD4"/><path d="M1159.05 321.326 1150.02 346.92 1149.16 368.774 1144.84 366.824 1147.11 341.834 1156.78 320.631 1159.05 321.326Z" fill="#BBBFC6"/><path d="M1159.05 321.326 1161.28 321.412 1151 347.316 1150.2 348.62 1149.44 346.584 1159.05 321.326Z" fill="#9A9FA9"/><path d="M1149.44 346.584 1148.44 358.389 1145.85 371.972 1149.4 371.473 1151 347.316 1149.44 346.584Z" fill="#ABAFB8"/><path d="M1135.41 315.364 1141.26 322.415 1159.94 324.411 1183.1 317.169 1169.93 304.518 1151.94 303.049 1146.01 306.157 1135.41 315.364Z" fill="#3DA87B"/><path d="M1194.96 318.777 1159.94 324.411 1162.38 316.449 1171.57 313.39 1184.79 312.978 1194.96 318.777Z" fill="#2D9368"/><path d="M1126.3 316.483 1138.15 310.33 1144.76 311.643 1147.88 315.973 1141.26 322.415 1126.3 316.483Z" fill="#5BB68F"/><path d="M1138.15 310.33 1147.88 315.973 1153.01 312.978 1151.36 310.33 1149.44 306.689 1146.01 306.157 1138.15 310.33Z" fill="#A0CF7E"/><path d="M1151.36 310.33 1162.1 311.643 1162.38 316.449 1147.88 315.973 1151.36 310.33Z" fill="#86B264"/><path d="M1162.1 311.643 1169.36 308.322 1176.61 308.322 1184.79 312.978 1162.38 316.449 1162.1 311.643Z" fill="#709D52"/><path d="M1169.93 304.518 1162.1 311.643 1176.61 308.322 1169.93 304.518Z" fill="#2D9368"/><path d="M1151.94 303.049 1151.36 310.33 1146.01 306.157 1151.94 303.049Z" fill="#5BB68F"/><path d="M1178.14 331.883 1174.39 332.562 1176.1 340.963 1181.45 338.722 1178.14 331.883Z" fill="#4FA9AA"/><path d="M1196.72 334.672 1201.34 336.372 1194.31 344.14 1190.81 344.112 1196.72 334.672Z" fill="#4FA9AA"/><path d="M1178.14 331.883 1183.1 331.883 1186.74 333.857 1189.53 332.562 1196.72 334.672 1195.25 338.196 1192.6 342.848 1181.94 342.387 1178.77 337.012 1178.14 331.883Z" fill="#1E7678"/><path d="M1189.53 332.562 1187.56 343.125 1185.87 342.848 1183.1 331.883 1189.53 332.562Z" fill="#359496"/><path d="M1186.25 339.263 1191.62 328.304 1193.66 328.792 1193.25 330.278 1187.26 341 1186.25 339.263Z" fill="#E5B244"/><path d="M1182.86 330.856 1185.03 340.219 1186.25 339.263 1185.58 329.979 1183.85 329.764 1182.86 330.856Z" fill="#E5B244"/><path d="M1191.62 328.304 1196.92 327 1198.22 329.321 1193.25 330.278 1191.62 328.304Z" fill="#F4D75C"/><path d="M1185.58 329.979 1182.1 327 1179.56 328.872 1182.86 330.856 1185.58 329.979Z" fill="#F4D75C"/><path d="M1178.77 337.012 1177.61 342.236 1180.86 356.744 1192.11 355.004 1196.92 346.166 1195.25 338.196 1192.62 340.219 1186.25 339.263 1181.12 339.404 1178.77 337.012Z" fill="#4FA9AA"/><path d="M1201.34 336.372 1196.92 346.166 1192.11 355.004 1186.74 355.834 1195.25 338.196 1201.34 336.372Z" fill="#359496"/><path d="M1174.39 332.562 1178.77 337.012 1179.32 343.685 1180.86 356.744 1175.06 351.818 1174.39 332.562Z" fill="#359496"/><path d="M1186.25 339.263 1184.48 356.185 1181.45 354.579 1186.25 339.263Z" fill="#72CBCC"/><path d="M1201.34 336.372 1203.37 341.305 1195.25 338.196 1201.34 336.372Z" fill="#72CBCC"/><path d="M1178.77 337.012 1174.39 332.562 1171.13 336.754 1178.77 337.012Z" fill="#72CBCC"/><path d="M1186.25 339.263 1179.32 343.685 1178.77 337.012 1186.25 339.263Z" fill="#94D5D5"/><path d="M1195.25 338.196 1196.92 346.166 1186.25 339.263 1195.25 338.196Z" fill="#94D5D5"/><path d="M1192.6 351.234 1196.92 346.166 1204.17 349.49 1203.67 353.522 1193.66 362.725 1191.62 358.743 1192.6 351.234Z" fill="#709D52"/><path d="M1193.66 362.725 1197.89 367.085 1203 364.564 1210.79 352.464 1204.17 349.49 1193.66 362.725Z" fill="#648E43"/><path d="M1220.73 350.846 1219.46 367.654 1210.14 353.414 1216.29 350.846 1220.73 350.846Z" fill="#86B264"/><path d="M1201.3 352.928 1219.46 367.654 1213.93 353.522 1207.58 350.846 1201.3 352.928Z" fill="#709D52"/><path d="M1205.79 347.673 1213.68 345.056 1220.73 350.846 1213.93 353.522 1208.31 350.413 1205.79 347.673Z" fill="#C0DB8E"/><path d="M1196.92 346.166 1201.3 352.928 1213.93 353.522 1205.79 347.673 1196.92 346.166Z" fill="#A0CF7E"/><path d="M1179.32 343.685 1181.45 354.579 1176.08 358.063 1158.41 344.693 1164.24 340.674 1179.32 343.685Z" fill="#709D52"/><path d="M1165.79 342.553 1177.68 357.827 1168.57 358.063 1158.41 344.693 1164.24 340.674 1165.79 342.553Z" fill="#648E43"/><path d="M1179.32 343.685 1171.13 336.754 1163.81 342.387 1179.32 343.685Z" fill="#86B264"/><path d="M1171.13 336.754 1156.41 352.756 1157.62 341.326 1161.6 338.722 1171.13 336.754Z" fill="#C0DB8E"/><path d="M1161.6 338.722 1154.04 335.631 1156.41 352.756 1161.6 338.722Z" fill="#A0CF7E"/><path d="M1230.03 395.578 1227.68 391.052 1229.39 390.237 1230.03 395.578Z" fill="#2B8B62"/><path d="M1229.6 391.947 1226.3 391.052 1228.17 386.455 1231.26 389.201 1229.6 391.947Z" fill="#F4D75C"/><path d="M1205.11 394.714 1203.67 390.889 1205.79 390.237 1205.11 394.714Z" fill="#2B8B62"/><path d="M1205.58 391.581 1202.29 390.969 1204.24 387.593 1206.77 389.831 1205.58 391.581Z" fill="#F4D75C"/><path d="M1209.53 391.947 1210.42 387.064 1212.05 387.593 1209.53 391.947Z" fill="#2B8B62"/><path d="M1211.54 388.475 1213.68 387.064 1210.79 383.89 1208.8 386.455 1211.54 388.475Z" fill="#4FA9AA"/><path d="M1174.71 389.004 1175.2 384.527 1177.09 385.108 1174.71 389.004Z" fill="#2B8B62"/><path d="M1176.49 386.098 1178.45 385.071 1176.18 381.849 1173.49 384.527 1176.49 386.098Z" fill="#4FA9AA"/><path d="M1240.22 390.237 1242.65 384.834 1240.54 383.89 1240.22 390.237Z" fill="#2B8B62"/><path d="M1242.27 385.689 1239.24 383.334 1242.27 380.877 1244.61 383.89 1242.27 385.689Z" fill="#9471A4"/><path d="M1197.8 379.601 1203.75 370.108 1203 364.564 1200.7 364.115 1198.97 365.394 1198.4 363.669 1193.66 362.725 1191.62 363.669 1189.84 361.572 1187.06 360.733 1185.3 362.301 1184.42 359.936 1179.68 358.509 1177.18 359.936 1174.54 356.956 1168.57 358.063 1166.93 359.936 1165.07 358.712 1162.31 359.223 1161.58 361.252 1159.63 359.721 1151.36 361.252 1149.73 361.022 1148.44 358.389 1145.85 355.849 1143.79 356.283 1141.76 351.849 1104.63 354.65 1079.19 362.913 1053.85 371.286 1051.59 373.438 1051.67 375.348 1049.59 375.348 1046.57 376.477 1046.35 378.601 1048.61 381.529 1051.81 381.169 1053.11 380.612 1056.04 382.934 1060.21 381.436 1060.72 379.139 1062.61 380.579 1078.21 379.25 1085.47 375.874 1120.41 375.585 1130.99 372.968 1160.73 374.721 1162.41 373.168 1164.57 374.948 1168.57 375.185 1169.61 373.764 1171.13 375.336 1176.93 376.821 1178.01 373.764 1178.77 379.465 1179.09 381.692 1181.45 381.326 1183.53 379.779 1183.98 381.055 1185.66 380.877 1187.06 379.601 1187.88 380.646 1191.14 380.302 1193.48 378.232 1194.07 379.994 1197.8 379.601Z" fill="#2B8B62"/><path d="M1206.77 365.293 1203 364.573 1197.8 379.601 1202.45 379.072 1206.77 365.293Z" fill="#33A474"/><path d="M1194.07 379.994 1200.7 364.115 1198.4 363.669 1191.14 380.302 1194.07 379.994Z" fill="#33A474"/><path d="M1187.88 380.646 1193.66 362.725 1189.84 361.572 1185.66 380.877 1187.88 380.646Z" fill="#33A474"/><path d="M1181.45 381.326 1184.42 359.936 1187.06 360.733 1183.98 381.055 1181.45 381.326Z" fill="#33A474"/><path d="M1179.09 381.692 1179.69 358.703 1179.68 358.509 1174.54 356.956 1176.93 376.821 1179.09 381.692Z" fill="#33A474"/><path d="M1168.57 358.063 1171.13 375.336 1168.57 375.185 1165.07 358.712 1168.57 358.063Z" fill="#33A474"/><path d="M1162.31 359.223 1164.57 374.948 1160.73 374.721 1159.63 359.721 1162.31 359.223Z" fill="#33A474"/><path d="M1151.36 361.252 1149.95 374.087 1147.43 373.937 1148.44 358.389 1151.36 361.252Z" fill="#33A474"/><path d="M1145.85 355.849 1144.5 373.764 1140.86 373.549 1141.76 351.849 1145.85 355.849Z" fill="#33A474"/><path d="M1060.21 381.436 1053.85 371.286 1060.21 367.565 1062.61 380.579 1060.21 381.436Z" fill="#33A474"/><path d="M1056.04 382.934 1051.59 373.438 1049.59 375.348 1051.81 381.169 1056.04 382.934Z" fill="#33A474"/><path d="M1048.61 381.529 1046.57 376.477 1044.56 377.221 1046.83 381.732 1048.61 381.529Z" fill="#33A474"/><path d="M1173.22 348.58 1181.45 354.579 1190.57 355.004 1193.66 362.725 1179.56 375.585 1168.57 358.063 1173.22 348.58Z" fill="#A0CF7E"/><path d="M1173.48 364.419 1179.09 381.692 1193.66 362.725 1185.03 361.252 1178.77 364.419 1173.48 364.419Z" fill="#86B264"/><path d="M1181.45 354.579 1192.6 351.234 1193.66 362.725 1178.77 364.419 1181.45 354.579Z" fill="#C0DB8E"/><path d="M1178.77 364.419 1179.09 381.692 1168.57 358.063 1178.77 364.419Z" fill="#709D52"/><path d="M1061.24 376.667 1062.61 380.579 1079.84 384.834 1074.35 372.368 1061.24 376.667Z" fill="#68707F"/><path d="M1059.2 370.855 1061.24 376.667 1072.11 379.465 1069.52 373.761 1059.2 370.855Z" fill="#454D5D"/><path d="M1159.57 363.383 1114.79 351.772 1099.88 342.387 1074.35 345.468 1068.33 357.169 1086.18 372.092 1138.76 381.209 1159.57 365.545 1159.57 363.383Z" fill="#71561C"/><path d="M1091.69 358.66 1093.27 370.09 1107.58 368.9 1104.63 354.65 1091.69 358.66Z" fill="#88619A"/><path d="M1091.86 355.834 1102.36 353.688 1103.65 355.563 1091.69 358.66 1091.86 355.834Z" fill="#AB90B8"/><path d="M1134.52 363.282 1140.01 372.092 1130.75 377.119 1120.11 373.869 1118.47 361.022 1134.52 363.282Z" fill="#96637C"/><path d="M1118.94 366.47 1129.49 370.985 1130.34 376.012 1119.72 374.601 1118.94 366.47Z" fill="#734D61"/><path d="M1141.11 365.293 1141.97 370.671 1141.01 371.138 1138.36 366.163 1139.04 365.44 1141.11 365.293Z" fill="#4FA9AA"/><path d="M1142.92 361.252 1140.15 364.573 1143.79 363.746 1142.92 361.252Z" fill="#C3987B"/><path d="M1133.28 371.71 1135.81 365.357 1143.33 362.799 1151.08 368.392 1148.52 369.447 1145.5 367.298 1144.73 365.477 1142.78 365.357 1137.17 367.531 1135.75 369.078 1135.21 372.092 1134.06 373.315 1133.28 371.71Z" fill="#72CBCC"/><path d="M1131.86 367.11 1135.23 364.419 1137.17 364.896 1133.92 370.293 1131.86 367.11Z" fill="#DFBDA5"/><path d="M1137.17 364.896 1137.17 367.531 1135.21 372.092 1133.66 370.219 1137.17 364.896Z" fill="#C3987B"/><path d="M1142.92 361.252 1148.8 363.62 1145.5 367.298 1142.78 365.357 1142.92 361.252Z" fill="#DFBDA5"/><path d="M1119.72 363.383 1124.6 366.095 1130.59 361.022 1122.66 357.983 1119.72 363.383Z" fill="#C3987B"/><path d="M1136.5 346.166 1138.15 362.248 1126.72 365.502 1122.66 348.682 1136.5 346.166Z" fill="#DFBDA5"/><path d="M1135.41 351.833 1130.4 357.541 1126.1 354.579 1127.9 353.414 1129.7 353.168 1131.07 353.761 1131.92 352.464 1133.66 351.698 1135.41 351.833Z" fill="#C3987B"/><path d="M1129.7 353.168 1130.4 357.541 1131.75 357.541 1132.79 356.861 1131.92 352.464 1129.7 353.168Z" fill="#E8CAB6"/><path d="M1130.4 357.541 1131.85 358.396 1132.79 356.861 1130.4 357.541Z" fill="#8B6651"/><path d="M1129.6 359.53 1132.05 359.681 1133.85 358.509 1134.12 359.094 1132.22 360.428 1129.6 360.204 1129.6 359.53Z" fill="#8B6651"/><path d="M1128.83 355.563C1128.83 355.905 1128.56 356.181 1128.21 356.181 1127.87 356.181 1127.6 355.905 1127.6 355.563 1127.6 355.222 1127.87 354.945 1128.21 354.945 1128.56 354.945 1128.83 355.222 1128.83 355.563Z" fill="#232A38"/><path d="M1134.52 354.032C1134.52 354.373 1134.24 354.65 1133.9 354.65 1133.56 354.65 1133.28 354.373 1133.28 354.032 1133.28 353.691 1133.56 353.414 1133.9 353.414 1134.24 353.414 1134.52 353.691 1134.52 354.032Z" fill="#232A38"/><path d="M1126.1 354.579 1129.7 353.168 1128.98 352.464 1126.47 353.522 1126.1 354.579Z" fill="#51596A"/><path d="M1131.92 352.464 1132.12 351.581 1134.84 351.234 1135.41 351.833 1131.92 352.464Z" fill="#51596A"/><path d="M1136.5 346.166 1128.21 351.772 1123.96 350.874 1122.48 349.177 1134.64 345.468 1136.5 346.166Z" fill="#454D5D"/><path d="M1121.44 366.095 1124.14 370.855 1117.5 376.477 1109.98 371.655 1113.88 364.419 1121.44 366.095Z" fill="#359496"/><path d="M1120.68 371.898 1124.14 370.855 1127.43 376.667 1120.87 374.961 1120.68 371.898Z" fill="#DFBDA5"/><path d="M1118.65 369.93 1120.11 370.271 1123.36 360.822 1118.01 362.313 1118.65 369.93Z" fill="#343C4B"/><path d="M1119.22 363.076 1118.65 369.93 1115.1 367.248 1115.06 361.022 1119.22 363.076Z" fill="#404857"/><path d="M1119.22 363.076 1123.36 360.822 1118.65 350.413 1117.04 352.627 1116.86 356.572 1119.22 363.076Z" fill="#404857"/><path d="M1112.43 352.565 1113.79 358.365 1115.72 362.522 1119.22 363.076 1117.09 352.722 1113.2 349.49 1112.43 352.565Z" fill="#343C4B"/><path d="M1096.42 361.713 1099.92 366.47 1103.34 363.411 1100.05 356.956 1097.77 358.162 1096.42 361.713Z" fill="#343C4B"/><path d="M1097.77 352.565 1095.69 360.822 1096.42 361.713 1100.26 357.747 1099.92 354.499 1097.77 352.565Z" fill="#454D5D"/><path d="M1112.43 352.565 1101.3 356.157 1099.19 356.363 1097.77 352.565 1102.96 348.58 1114.04 349.49 1112.43 352.565Z" fill="#51596A"/><path d="M1099.19 356.363 1109.05 349.49 1114.04 349.49 1112.43 352.565 1103.34 355.671 1099.19 356.363Z" fill="#404857"/><path d="M1115.1 367.248 1112.33 371.646 1111.3 369.078 1112.43 367.387 1115.1 367.248Z" fill="#8B6651"/><path d="M1111.3 369.078 1115.1 367.248 1115.72 362.522 1112.43 352.565 1110.74 361.99 1111.3 369.078Z" fill="#C3987B"/><path d="M1114.66 370.09 1116.81 368.54 1120.11 370.271 1120.68 371.898 1116.86 371.898 1114.66 370.09Z" fill="#EFD3C2"/><path d="M1114.66 370.09 1115.29 374.229 1119.02 374.49 1120.68 371.898 1114.66 370.09Z" fill="#DFBDA5"/><path d="M1086.46 355.88 1089.99 361.277 1087.75 365.105 1083.92 362.882 1086.46 355.88Z" fill="#5F5044"/><path d="M1074.88 348.107 1080.36 345.616 1084.88 346.062 1087.98 350.76 1085.49 363.383 1075.18 360.447 1074.88 348.107Z" fill="#74665B"/><path d="M1081.03 353.688 1081.6 355.342 1083.55 355.499 1086.18 353.389 1083.14 357.919 1078.94 357.344 1077.01 352.264 1079.05 355.093 1080.5 355.231 1081.03 353.688Z" fill="#5F5044"/><path d="M1074.88 348.107 1087.98 350.76 1085 346.431 1080.46 345.683 1074.88 348.107Z" fill="#8E7E73"/><path d="M1087.57 326.243 1088.9 320.841 1090.29 320.841 1091.03 319.657 1096.77 316.449 1097.67 317.71 1100.16 316.865 1102.61 317.169 1103.34 318.098 1105.69 317.547 1107.22 319.715 1107.63 321.966 1110.21 323.937 1106.8 335.607 1093.55 337.452 1087.57 326.243Z" fill="#F4D75C"/><path d="M1088.9 320.841 1090.61 331.409 1092.04 329.61 1091.03 319.657 1088.9 320.841Z" fill="#E4AE3A"/><path d="M1096.77 316.449 1093.79 319.878 1095.28 329.472 1097.67 329.321 1098.08 321.908 1097.81 319.463 1100.16 316.865 1096.77 316.449Z" fill="#E4AE3A"/><path d="M1105.69 317.547 1103.02 320.155 1101.45 327.95 1099.93 327.95 1100.67 319.463 1102.61 317.169 1105.69 317.547Z" fill="#E4AE3A"/><path d="M1107.22 319.715 1104.63 326.751 1107.63 327.627 1110.21 323.937 1107.22 319.715Z" fill="#E4AE3A"/><path d="M1108.32 318.264 1110.72 319.063 1113.17 318.261 1114.86 321.588 1117.5 321.031 1113.37 326.751 1109.01 324.629 1108.32 318.264Z" fill="#388199"/><path d="M1112.57 319.715 1114.45 315.216 1115.86 314.574 1115.53 316.449 1111.9 323.556 1112.57 319.715Z" fill="#89909B"/><path d="M1108.32 318.264 1110.47 320.841 1110.91 323.387 1109.24 338.928 1108.14 335.007 1108.32 318.264Z" fill="#7BB7CA"/><path d="M1110.47 320.841 1112.57 319.715 1112.29 326.243 1109.24 338.928 1110.21 323.937 1110.47 320.841Z" fill="#55A2BB"/><path d="M1112.57 319.715 1113.77 323.574 1113.77 327.027 1110.35 337.452 1109.24 338.928 1112.57 319.715Z" fill="#7BB7CA"/><path d="M1113.77 323.574 1117.5 321.031 1110.91 338.144 1109.24 338.928 1113.77 323.574Z" fill="#55A2BB"/><path d="M1114.45 315.216 1115.53 316.449 1117.32 312.959 1117.69 311.643 1116.21 311.022 1114.45 315.216Z" fill="#72CBCC"/><path d="M1116.21 311.022 1120.47 310.33 1120.13 312.037 1119.02 312.913 1117.32 312.959 1116.21 311.022Z" fill="#4FA9AA"/><path d="M1120.47 310.33 1121.84 312.959 1119.72 314.435 1119.02 312.913 1120.47 310.33Z" fill="#359496"/><path d="M1053.11 364.782 1053.85 371.286 1067.96 375.585 1073.59 391.559 1142.87 407.98 1146.01 402.445 1078.57 387.593 1070.99 370.806 1053.11 364.782Z" fill="#96637C"/><path d="M1143.7 403.921 1157.72 395.618 1176.08 391.581 1173.22 399.124 1142.87 407.98 1143.7 403.921Z" fill="#734D61"/><path d="M1147.11 380.579 1142.32 387.952 1142.22 399.401 1157.17 396.449 1169.46 390.151 1168.87 387.482 1173.22 370.271 1156.43 372.968 1147.11 380.579Z" fill="#C29431"/><path d="M1147.11 341.834 1130.34 344.97 1119.72 349.859 1125.01 361.99 1134.05 375.182 1151.07 372.092 1163.8 365.357ZM1123.96 350.874 1146.19 344.693 1159.57 363.38 1135.21 372.092Z" fill="#E4AE3A"/><path d="M1134.06 375.185 1126.08 364.422 1119.72 349.862 1106.11 344.051 1073.31 343.128 1063.94 356.833 1063.97 358.063 1062.61 358.768 1060.41 361.984 1057.61 364.705 1072.76 372.27 1079.26 388.601 1138.07 401.63 1142.22 399.416 1147.11 380.594ZM1088.07 362.313 1072.48 352.719 1076.17 345.616 1091.58 348.107ZM1091.68 363.866 1096.01 348.845 1117.86 351.895 1130.59 375.572Z" fill="#E4AE3A"/><path d="M1119.72 349.859 1103.39 344.128 1094.33 346.163 1088.9 368.38 1093.15 390.717 1127.47 397.832 1134.06 375.185ZM1092.78 363.5 1096.56 349.478 1117.04 352.615 1129.31 374.478Z" fill="#C29431"/><path d="M1088.9 368.392 1088.9 368.392 1063.94 356.833 1062.61 358.774 1089.2 369.93 1089.92 369.407 1088.9 368.392Z" fill="#F4D75C"/><path d="M1130.34 387.952 1130.34 387.952 1128.53 388.331 1129.86 389.591 1143.84 393.161 1144.33 391.276 1130.34 387.952Z" fill="#F4D75C"/><path d="M1073.31 343.125 1119.72 349.859 1147.11 341.834 1104.13 335.837 1073.31 343.125Z" fill="#F4D75C"/><path d="M1101.08 374.029 1099.93 371.307 1094.35 368.54 1092.78 370.8 1101.08 374.029Z" fill="#51596A"/><path d="M1130.34 387.952 1104.77 381.87 1101.08 374.029 1088.9 368.392 1088.9 368.392 1089.2 369.93 1100.07 374.49 1103.18 382.774 1129.86 389.591 1130.34 387.952Z" fill="#E5B244"/><path d="M1134.06 375.182 1163.81 365.357 1173.22 370.271 1147.11 380.579 1134.06 375.182Z" fill="#F4D75C"/><path d="M1145.55 375.585 1150.53 373.869 1155.87 377.119 1153.64 379.081 1151.83 378.715 1145.55 375.585Z" fill="#FFF7AE"/><path d="M1160.28 370.271 1164.57 368.678 1169.58 371.71 1166.95 374.49 1165.84 373.186 1160.28 370.271Z" fill="#FFF7AE"/><path d="M1155.87 377.119 1152.67 390.557 1148.52 392.273 1151.83 378.715 1155.87 377.119Z" fill="#EECE88"/><path d="M1169.58 371.71 1166.34 384.936 1162.58 386.455 1165.84 373.186 1169.58 371.71Z" fill="#EECE88"/><path d="M1157.86 379.764 1162.38 377.719 1162.06 379.118 1157.49 381.209 1157.86 379.764Z" fill="#51596A"/><path d="M1157.12 383.162 1161.6 381.169 1161.27 382.565 1156.75 384.471 1157.12 383.162Z" fill="#51596A"/><path d="M1156.48 386.237 1160.77 384.432 1160.49 385.689 1156.06 387.593 1156.48 386.237Z" fill="#51596A"/><path d="M1060.41 361.99 1053.11 364.782 1069.71 371.286 1073.03 371.655 1073.31 369.93 1058.9 364.21 1060.41 361.99Z" fill="#D1A1B8"/><path d="M1073.31 369.93 1080.58 386.184 1080.58 387.952 1076.7 388.331 1069.71 371.286 1073.31 369.93Z" fill="#B3889D"/><path d="M1080.58 386.184 1142.22 399.401 1168.33 389.591 1168.87 387.482 1176.08 391.581 1143.7 403.921 1076.7 388.331 1080.58 386.184Z" fill="#D1A1B8"/><path d="M1121.69 319.715 1126.34 320.309 1126.78 321.966 1120.73 321.12 1121.69 319.715Z" fill="#4FA9AA"/><path d="M1119.72 319.463 1119.25 323.015 1120.94 323.713 1121.69 319.715 1119.72 319.463Z" fill="#51596A"/><path d="M1128.02 320.524 1127.64 324.401 1125.83 324.835 1126.34 320.309 1128.02 320.524Z" fill="#51596A"/><path d="M1108.83 339.343 1128.94 342.848 1134.06 326.797 1110.21 323.937 1108.83 339.343Z" fill="#8E699F"/><path d="M1128.94 342.848 1134.94 341.834 1138.76 326.243 1133.37 326.243 1132.63 327.627 1128.94 342.848Z" fill="#735283"/><path d="M1110.21 323.937 1132.63 327.627 1138.76 326.243 1119.25 323.015 1110.21 323.937Z" fill="#AB90B8"/><path d="M1115.86 332.762 1115.31 345.056 1098.56 341.594 1099.3 335.465 1099.68 335.296 1099.39 334.783 1099.93 330.278 1115.86 332.762Z" fill="#86B264"/><path d="M1115.31 345.056 1126.78 342.47 1126.55 334.641 1126.18 334.327 1126.53 334.085 1126.42 330.278 1117.11 331.034 1114.53 334.085 1115.31 345.056Z" fill="#709D52"/><path d="M1126.42 330.278 1114.53 334.085 1099.93 330.278 1106.16 327.627 1126.42 330.278Z" fill="#A0CF7E"/><path d="M1099.39 334.783 1114.79 337.667 1114.86 338.722 1099.3 335.465 1099.39 334.783Z" fill="#2D9368"/><path d="M1114.79 337.667 1126.53 334.085 1126.55 334.641 1114.86 338.722 1114.79 337.667Z" fill="#267A56"/><path d="M1110.64 335.837 1112.13 336.228 1111.61 339.066 1110.47 338.722 1110.64 335.837Z" fill="#E6E97C"/><path d="M1109.71 325.736 1133.55 325.379 1127.64 324.401 1110.21 323.937 1109.71 325.736Z" fill="#A0CF7E"/><path d="M1083.76 328.596 1084.62 334.085 1085.03 334.521 1084.73 334.783 1085.59 340.222 1102.36 344.693 1103.34 326.243 1083.76 328.596Z" fill="#96637C"/><path d="M1110.21 323.937 1109.52 343.86 1102.36 344.693 1101.75 327.233 1103.69 325.717 1110.21 323.937Z" fill="#734D61"/><path d="M1083.76 328.596 1087.57 326.243 1110.21 323.937 1101.75 327.233 1083.76 328.596Z" fill="#D1A1B8"/><path d="M1084.62 334.085 1102.02 334.964 1102.36 335.607 1084.73 334.783 1084.62 334.085Z" fill="#734D61"/><path d="M1086.78 333.208 1088.03 333.07 1088.4 335.976 1087.24 335.791 1086.78 333.208Z" fill="#72CBCC"/><path d="M1097.67 333.623 1098.91 333.762 1098.64 336.668 1097.85 336.437 1097.67 333.623Z" fill="#72CBCC"/><path d="M1092.22 322.827 1096.77 322.114 1097.21 323.476 1091.86 324.26 1092.22 322.827Z" fill="#96637C"/><path d="M1098.5 326.197 1098.08 321.908 1096.77 322.114 1097.3 326.105 1098.5 326.197Z" fill="#72CBCC"/><path d="M1091.03 323.015 1092.22 322.827 1092.36 326.428 1091.44 326.612 1091.03 323.015Z" fill="#72CBCC"/><path d="M1091.58 348.107 1098.18 327.504 1097.63 327.212 1094.38 327.793 1088.9 347.673 1091.58 348.107Z" fill="#A0CF7E"/><path d="M1098.18 327.504 1110.21 323.937 1105.49 324.417 1094.38 327.793 1098.18 327.504Z" fill="#C0DB8E"/><path d="M1080.58 346.329 1079.19 341.735 1074.35 343.562 1074.88 348.107 1080.58 346.329Z" fill="#454D5D"/><path d="M1084.05 346.889 1087.57 345.195 1090.2 348.107 1087.98 350.76 1084.05 346.889Z" fill="#454D5D"/><path d="M1079.19 341.735 1074.88 348.107 1073.31 343.125 1079.19 341.735Z" fill="#68707F"/><path d="M1087.57 345.195 1091.58 348.107 1087.98 350.76 1087.57 345.195Z" fill="#68707F"/><path d="M1079.66 350.044C1079.66 350.445 1079.34 350.77 1078.94 350.77 1078.54 350.77 1078.21 350.445 1078.21 350.044 1078.21 349.643 1078.54 349.318 1078.94 349.318 1079.34 349.318 1079.66 349.643 1079.66 350.044Z" fill="#232A38"/><path d="M1084.65 350.979C1084.65 351.379 1084.32 351.704 1083.92 351.704 1083.52 351.704 1083.19 351.379 1083.19 350.979 1083.19 350.578 1083.52 350.253 1083.92 350.253 1084.32 350.253 1084.65 350.578 1084.65 350.979Z" fill="#232A38"/><path d="M1079.84 351.44 1082.86 351.96 1081.03 353.688 1079.84 351.44Z" fill="#232A38"/><path d="M1080.5 355.231 1078.21 358.325 1079.09 361.47 1081.05 362.089 1083.14 357.919 1081.6 355.342 1080.5 355.231Z" fill="#96637C"/><path d="M1081.6 355.342 1080.58 359.109 1080.5 355.231 1081.6 355.342Z" fill="#734D61"/><path d="M1099.19 356.363 1100.07 368.54 1111.3 369.078 1112.43 352.565 1099.19 356.363Z" fill="#DFBDA5"/><path d="M1109.56 357.562 1107.73 357.067 1105.66 357.402 1104.77 358.162 1104.17 357.35 1102.44 356.956 1100.71 357.436 1105.46 361.713 1109.56 357.562Z" fill="#C3987B"/><path d="M1105.66 357.402 1104.17 357.35 1103.81 361.566 1104.64 362.042 1105.46 361.713 1105.66 357.402Z" fill="#E8CAB6"/><path d="M1103.81 361.566 1104.59 362.522 1105.46 361.713 1103.81 361.566Z" fill="#8B6651"/><path d="M1101.93 363.838 1102.76 363.605 1107.14 363.952 1107.58 364.229 1105.97 366.095 1103.55 365.843 1101.93 363.838Z" fill="#8B6651"/><path d="M1102.56 364.419 1107.17 364.782 1107.38 364.044 1104.76 363.605 1102 363.721 1102.56 364.419Z" fill="#FFFFFF"/><path d="M1108.07 364.066 1106.18 366.649 1103.34 366.489 1101.7 363.605 1102.51 363.675 1103.76 365.634 1105.76 365.751 1107.38 364.044 1108.07 364.066Z" fill="#4FA9AA"/><path d="M1101.7 363.605 1104.64 363.26 1108.07 364.066 1104.64 364.232 1101.7 363.605Z" fill="#1E7678"/><path d="M1102.8 358.651C1102.8 359.018 1102.51 359.315 1102.14 359.315 1101.77 359.315 1101.47 359.018 1101.47 358.651 1101.47 358.284 1101.77 357.987 1102.14 357.987 1102.51 357.987 1102.8 358.284 1102.8 358.651Z" fill="#232A38"/><path d="M1108.36 359.032C1108.36 359.399 1108.07 359.696 1107.7 359.696 1107.33 359.696 1107.03 359.399 1107.03 359.032 1107.03 358.665 1107.33 358.368 1107.7 358.368 1108.07 358.368 1108.36 358.665 1108.36 359.032Z" fill="#232A38"/><path d="M1105.66 357.402 1106.29 356.572 1109.04 356.987 1109.56 357.562 1105.66 357.402Z" fill="#404857"/><path d="M1104.17 357.35 1103.73 356.48 1101 356.883 1100.71 357.436 1104.17 357.35Z" fill="#404857"/><path d="M1085.02 417.291 1082.03 408.386 1088.9 406.839 1088.9 417.826 1085.02 417.291Z" fill="#33A474"/><path d="M1088.9 417.826 1085.47 402.119 1089.33 401.003 1091.58 402.202 1093.56 399.779 1099.56 403.503 1101.08 405.455 1103.34 403.866 1108.07 404.318 1109.56 406.842 1112.13 407.448 1115.82 410.298 1113.23 420.169 1109.98 420.726 1105.94 420.169 1105.14 419.336 1103.81 419.877 1099.88 419.336 1099.19 418.398 1097.98 419.074 1095.19 418.69 1093.8 417.826 1092.78 418.358 1088.9 417.826Z" fill="#2B8B62"/><path d="M1093.56 399.779 1095.19 418.69 1092.78 418.358 1089.33 401.003 1093.56 399.779Z" fill="#33A474"/><path d="M1099.56 403.503 1097.98 419.074 1099.88 419.336 1103.34 403.866 1099.56 403.503Z" fill="#33A474"/><path d="M1108.07 404.318 1103.81 419.877 1105.94 420.169 1112.13 407.448 1108.07 404.318Z" fill="#33A474"/><path d="M1115.82 410.298 1109.98 420.726 1113.95 421.273 1117.67 411.722 1115.82 410.298Z" fill="#33A474"/><path d="M1182.02 416.415 1177.73 412.841 1179.17 410.664 1182.51 405.449 1184.72 406.556 1186.26 405.132 1185.42 399.72 1188.66 398.426 1190.85 398.377 1192.44 396.91 1198.4 399.779 1200.4 402.162 1202.21 401.615 1205.11 399.327 1206.15 399.474 1207.31 397.602 1210.14 395.379 1211.39 396.667 1210.76 401.455 1208.42 404.979 1207.12 405.821 1206.08 408.478 1203 413.106 1200.9 411.867 1199.09 413.724 1194.57 414.437 1193.37 413.238 1192.7 414.729 1187.56 415.544 1186.28 414.582 1185.03 415.941 1182.02 416.415Z" fill="#2B8B62"/><path d="M1179.17 410.664 1182.02 416.415 1178.11 417.033 1175.35 411.642 1179.17 410.664Z" fill="#33A474"/><path d="M1182.51 405.449 1185.03 415.941 1187.56 415.544 1186.26 405.132 1182.51 405.449Z" fill="#33A474"/><path d="M1192.44 396.91 1194.57 414.437 1192.7 414.729 1188.66 398.426 1192.44 396.91Z" fill="#33A474"/><path d="M1198.4 399.779 1199.09 413.724 1203 413.106 1202.21 401.615 1198.4 399.779Z" fill="#33A474"/><path d="M1205.11 399.327 1206.08 408.478 1208.42 404.979 1207.31 397.602 1205.11 399.327Z" fill="#33A474"/><path d="M1210.14 395.379 1210.76 401.455 1212.65 398.632 1212.95 393.161 1210.14 395.379Z" fill="#33A474"/><path d="M1156.12 408.598 1163.02 406.99 1166.86 409.73 1160.39 411.805 1156.12 408.598Z" fill="#317186"/><path d="M1160.02 419.886 1159.48 414.167 1161.98 413.161 1160.02 419.886Z" fill="#2B8B62"/><path d="M1156.12 408.598 1159.63 415.784 1161.98 412.193 1161.6 410.535 1156.12 408.598Z" fill="#4B9DB7"/><path d="M1159.63 415.784 1166.86 409.73 1161.6 410.535 1159.63 415.784Z" fill="#388199"/><path d="M1158.41 403.444 1163.09 401.027 1167.54 404.318 1162.58 405.821 1158.41 403.444Z" fill="#317186"/><path d="M1161.6 410.535 1158.41 403.444 1163.25 405.132 1164.24 406.753 1161.6 410.535Z" fill="#4B9DB7"/><path d="M1163.25 405.132 1167.54 404.318 1161.6 410.535 1163.25 405.132Z" fill="#388199"/><path d="M1163.25 405.132 1165.07 399.942 1162.86 399.779 1163.25 405.132Z" fill="#E6B64E"/><path d="M1133.86 424.013 1134.57 417.617 1132.26 417.303 1133.86 424.013Z" fill="#2B8B62"/><path d="M1130.34 416.848 1134.44 419.213 1136.61 415.225 1131.39 412.174 1130.34 416.848Z" fill="#FFF7AE"/><path d="M1121.42 418.315 1123.21 414.004 1121.9 413.066 1121.42 418.315Z" fill="#2B8B62"/><path d="M1120.68 412.66 1122.93 414.659 1125.32 412.795 1123.37 409.932 1120.68 412.66Z" fill="#96637C"/><path d="M1139.09 412.414 1137.89 407.98 1139.7 409.397 1139.09 412.414Z" fill="#2B8B62"/><path d="M1136.46 407.946 1139.7 409.397 1140.86 407.503 1138.16 404.521 1136.46 407.946Z" fill="#F4D75C"/><path d="M1142.79 420.99 1143.11 416.808 1144.79 416.731 1142.79 420.99Z" fill="#2B8B62"/><path d="M1141.74 415.87 1144.19 418.004 1146.54 416.209 1144.86 413.075 1141.74 415.87Z" fill="#4FA9AA"/><path d="M1150.11 421.448 1148.52 415.67 1150.53 414.613 1150.11 421.448Z" fill="#2B8B62"/><path d="M1147.43 415.784 1150.4 416.734 1151.86 414.118 1148.65 412.008 1147.43 415.784Z" fill="#F4D75C"/><path d="M1074.2 407.411 1073.55 412.008 1072.19 405.031 1074.2 407.411Z" fill="#2B8B62"/><path d="M1067.12 400.452 1071.94 398.417 1077.5 400.025 1072.88 403.503 1067.12 400.452Z" fill="#317186"/><path d="M1067.12 400.452 1074.2 407.411 1074.67 403.503 1073.19 402.1 1067.12 400.452Z" fill="#4B9DB7"/><path d="M1074.2 407.411 1077.5 400.025 1073.19 402.1 1074.2 407.411Z" fill="#388199"/><path d="M1067.63 396.295 1071.29 394.631 1075.77 395.812 1072.19 397.602 1067.63 396.295Z" fill="#317186"/><path d="M1073.19 402.1 1067.63 396.295 1072.31 397.196 1073.19 398.417 1073.19 402.1Z" fill="#4B9DB7"/><path d="M1073.19 402.1 1075.77 395.812 1072.31 397.196 1073.19 402.1Z" fill="#388199"/><path d="M1072.31 397.196 1069.34 392.965 1071.29 392.07 1072.31 397.196Z" fill="#E6B64E"/><path d="M1062.68 394.653 1062.72 390.449 1063.97 390.643 1062.68 394.653Z" fill="#2B8B62"/><path d="M1063.72 391.43 1061.66 389.933 1063.83 387.885 1065.65 389.976 1063.72 391.43Z" fill="#F4D75C"/><path d="M1050.35 396.821 1049.74 392.282 1048.83 393.736 1050.35 396.821Z" fill="#2B8B62"/><path d="M1048.83 393.736 1050.87 391.636 1047.76 389.773 1046.35 392.282 1048.83 393.736Z" fill="#F4D75C"/><path d="M1053.15 392.476 1054.37 388.684 1053.03 388.792 1053.15 392.476Z" fill="#2B8B62"/><path d="M1053.06 389.85 1055.71 388.792 1053.43 385.416 1051.28 387.633 1053.06 389.85Z" fill="#9F80AE"/><path d="M1108.07 404.318 1111.51 392.814 1109.79 390.557 1108.07 404.318Z" fill="#2B8B62"/><path d="M1099.56 403.503 1102.14 385.76 1099.56 384.834 1099.56 403.503Z" fill="#2B8B62"/><path d="M1093.56 399.779 1092.78 390.237 1091.63 391.802 1093.56 399.779Z" fill="#2B8B62"/><path d="M1111.51 392.814 1114.53 390.237 1111.3 386.818 1108.14 390.237 1111.51 392.814Z" fill="#94D5D5"/><path d="M1099.56 387.952 1103.34 385.111 1100.26 380.877 1096.77 384.413 1099.56 387.952Z" fill="#94D5D5"/><path d="M1091.63 391.802 1094.47 389.951 1092.37 386.649 1089.16 389.591 1091.63 391.802Z" fill="#94D5D5"/><path d="M1182.51 405.449 1180.69 395.852 1179.09 397.602 1182.51 405.449Z" fill="#2B8B62"/><path d="M1179.67 398.93 1182.51 395.053 1178.36 393.161 1176.61 396.91 1179.67 398.93Z" fill="#94D5D5"/><path d="M1188.66 398.426 1186.7 391.052 1184.79 391.947 1188.66 398.426Z" fill="#2B8B62"/><path d="M1182.8 392.273 1187.34 393.469 1188.17 388.364 1183.65 387.593 1182.8 392.273Z" fill="#94D5D5"/></g></g></g><text font-family="DengXian,DengXian_MSFontService,sans-serif" font-weight="700" font-size="32" transform="translate(919.317 350)">坚觉</text><text font-family="Bahnschrift SemiCondensed,Bahnschrift SemiCondensed_MSFontService,sans-serif" font-weight="700" font-stretch="semi-condensed" font-size="43" transform="translate(917.651 401)">53%</text></g></svg>