<svg width="401" height="185" xmlns="http://www.w3.org/2000/svg" xmlns:xlink="http://www.w3.org/1999/xlink" overflow="hidden"><defs><clipPath id="clip0"><rect x="35" y="257" width="401" height="185"/></clipPath><clipPath id="clip1"><rect x="176" y="302" width="255" height="128"/></clipPath><clipPath id="clip2"><rect x="176" y="302" width="255" height="128"/></clipPath><clipPath id="clip3"><rect x="176" y="302" width="255" height="128"/></clipPath></defs><g clip-path="url(#clip0)" transform="translate(-35 -257)"><rect x="36" y="257" width="399" height="181" fill="#4472C4" fill-opacity="0"/><path d="M36 318.001C36 304.745 46.7455 294 60.0007 294L410.999 294C424.255 294 435 304.745 435 318.001L435 413.999C435 427.255 424.255 438 410.999 438L60.0007 438C46.7455 438 36 427.255 36 413.999Z" fill="#FFFFFF" fill-rule="evenodd"/><path d="M60.0043 294 291 294 255.634 438 60.0043 438C46.7471 438 36 427.255 36 413.999L36 318.001C36 304.745 46.7471 294 60.0043 294Z" fill="#F7E185" fill-rule="evenodd"/><text font-family="DengXian,DengXian_MSFontService,sans-serif" font-weight="700" font-size="32" transform="translate(87.0399 355)">感受</text><text font-family="Bahnschrift SemiCondensed,Bahnschrift SemiCondensed_MSFontService,sans-serif" font-weight="700" font-stretch="semi-condensed" font-size="43" transform="translate(85.8733 406)">57%</text><g clip-path="url(#clip1)"><g clip-path="url(#clip2)"><g clip-path="url(#clip3)"><path d="M1.69894 110.268 102.456 93.4416 153.268 99.1567 155.075 101.181 159.187 101.643 251.994 110.268 177.521 117.514 99.0834 115.413 32.6623 115.123 1.69894 110.268Z" fill="#DDDFE2" transform="matrix(1 0 0 1.00392 176 302)"/><path d="M32.6623 115.123 102.752 103.801 177.521 117.514 97.5311 125.294 32.6623 115.123Z" fill="#E5B244" transform="matrix(1 0 0 1.00392 176 302)"/><path d="M57.4101 114.715 102.127 107.339 149.51 116.458 98.1686 121.782 57.4101 114.715Z" fill="#F4D75C" transform="matrix(1 0 0 1.00392 176 302)"/><path d="M76.8187 115.123 101.56 110.24 130.732 114.925 99.4436 118.215 76.8187 115.123Z" fill="#E5B244" transform="matrix(1 0 0 1.00392 176 302)"/><path d="M30.7594 105.414 37.3894 104.308 50.7769 103.138 49.7186 107.339 36.9622 107.533 30.7594 105.414Z" fill="#1D2432" fill-opacity="0.1" transform="matrix(1 0 0 1.00392 176 302)"/><path d="M222.29 106.925 213.381 106.067 203.614 103.476 199.311 109.28 214.598 109.765 222.29 106.925Z" fill="#1D2432" fill-opacity="0.1" transform="matrix(1 0 0 1.00392 176 302)"/><path d="M164.717 111.46 161.252 112.461 171.835 114.549 174.35 112.904 176.635 114.549 187.419 113.21 191.974 111.017 196.168 113.21 202.196 112.774 202.792 111.269 200.825 111.269 191.091 109.28 180.014 108.821 174.803 110.791 164.717 111.46Z" fill="#1D2432" fill-opacity="0.1" transform="matrix(1 0 0 1.00392 176 302)"/><path d="M173.257 101.369 169.106 104.999 154.948 106.067 152.248 104.748 149.373 105.114 137.537 102.22 138.181 100.269 143.473 99.3576 150.389 98.8348 153.268 99.1567 156.819 100.712 161.252 100.056 173.257 101.369Z" fill="#1D2432" fill-opacity="0.1" transform="matrix(1 0 0 1.00392 176 302)"/><path d="M141.031 112.235 136.992 111.269 130.165 110.587 125.607 111.859 116.331 112.614 104.234 110.648 99.4022 110.667 91.8159 112.799 90.7768 112.802 85.6896 109.915 69.2484 109.105 67.7248 109.459 63.3866 110.16 61.3817 114.061 73.4846 117.504 84.303 116.146 99.4436 118.215 114.702 116.611 118.731 114.004 126.094 115.413 133.929 117.077 140.903 114.804 145.481 113.411 141.031 112.235Z" fill="#1D2432" fill-opacity="0.1" transform="matrix(1 0 0 1.00392 176 302)"/><path d="M31.6519 84.9469 48.2109 83.5476 64.7732 86.1709 46.3176 91.9881 31.6519 84.9469Z" fill="#5A753D" transform="matrix(1 0 0 1.00392 176 302)"/><path d="M34.0935 42.5914 45.9733 30.4852 58.5416 37.5392 53.7763 46.0881 42.4734 52.8647 40.6852 53.2918 34.0935 42.5914Z" fill="#33A474" transform="matrix(1 0 0 1.00392 176 302)"/><path d="M45.9733 30.4852 64.9867 27.0268 58.5416 37.5392 45.9733 30.4852Z" fill="#28835C" transform="matrix(1 0 0 1.00392 176 302)"/><path d="M40.6852 53.2918 40.6852 62.2232 43.7771 90.5441 45.6482 91.0127 44.4274 64.8465 42.8814 58.3249 42.4734 52.8647 51.9594 33.8417 57.8977 30.0772 50.5633 33.0607 40.6852 53.2918Z" fill="#67ACC3" transform="matrix(1 0 0 1.00392 176 302)"/><path d="M44.1851 67.269 42.8814 58.3249 53.7763 46.0881 60.2437 51.2391 67.0522 52.4567 57.4101 63.5237 44.1851 67.269Z" fill="#28835C" transform="matrix(1 0 0 1.00392 176 302)"/><path d="M45.2434 89.5687 44.1851 67.269 58.8317 49.2022 59.7337 50.3434 46.3813 66.6474 48.3767 88.3129 46.1391 91.0127 45.2434 89.5687Z" fill="#4298B4" transform="matrix(1 0 0 1.00392 176 302)"/><path d="M40.6852 72.1682 42.3141 72.0949 44.1851 67.269 40.6852 62.2232 23.7564 61.8598 22.4559 65.6115 32.6623 73.9372 40.6852 72.1682Z" fill="#28835C" transform="matrix(1 0 0 1.00392 176 302)"/><path d="M44.4274 89.2149 43.3691 79.9648 42.3141 72.0949 33.0352 62.6312 31.6519 63.0392 40.6852 72.1682 41.973 88.7559 44.4274 89.2149Z" fill="#4298B4" transform="matrix(1 0 0 1.00392 176 302)"/><path d="M40.6852 62.2232 31.2981 60.8621 28.4771 60.9609 28.305 60.4286 19.9314 59.2142 22.4559 62.2232 29.3728 64.26 40.6852 62.2232Z" fill="#5BB68F" transform="matrix(1 0 0 1.00392 176 302)"/><path d="M29.3728 64.26 23.6767 77.5232 16.1893 66.0673 19.9314 59.2142 29.3728 64.26Z" fill="#33A474" transform="matrix(1 0 0 1.00392 176 302)"/><path d="M31.2981 60.8621 25.0378 61.9427 23.8393 62.6312 23.6895 61.2223 28.305 60.4286 31.2981 60.8621Z" fill="#E6B64E" transform="matrix(1 0 0 1.00392 176 302)"/><path d="M23.6895 61.2223 21.7228 69.3441 25.0378 61.9427 23.6895 61.2223Z" fill="#CC9C34" transform="matrix(1 0 0 1.00392 176 302)"/><path d="M31.6519 84.9469 48.3767 88.3129 50.8183 93.1292 49.7186 107.339 37.3894 104.308 34.9701 96.1414 36.7774 94.452 33.7397 91.9881 31.6519 84.9469Z" fill="#709D52" transform="matrix(1 0 0 1.00392 176 302)"/><path d="M48.3767 88.3129 64.7732 86.1709 62.9818 92.3004 61.4996 94.2289 61.9714 95.7525 59.2397 105.095 49.7186 107.339 48.3767 88.3129Z" fill="#86B264" transform="matrix(1 0 0 1.00392 176 302)"/><path d="M33.7397 91.9881 48.8516 95.0417 50.2063 95.7525 49.0524 97.8945 34.9701 96.1414 33.7397 91.9881Z" fill="#D8A537" transform="matrix(1 0 0 1.00392 176 302)"/><path d="M49.0524 97.8945 61.9714 95.7525 62.9818 92.3004 48.8516 95.0417 49.0524 97.8945Z" fill="#F4D75C" transform="matrix(1 0 0 1.00392 176 302)"/><path d="M40.6852 72.1682 47.8858 71.8462 55.9151 67.9097 60.8685 74.8776 53.3811 79.2317 43.5699 81.7052 40.6852 72.1682Z" fill="#5BB68F" transform="matrix(1 0 0 1.00392 176 302)"/><path d="M60.8685 74.8776 55.9151 87.3279 43.5699 81.7052 60.8685 74.8776Z" fill="#33A474" transform="matrix(1 0 0 1.00392 176 302)"/><path d="M47.8858 71.8462 51.3889 77.6348 52.6479 78.54 53.2281 77.0993 49.7346 70.941 47.8858 71.8462Z" fill="#E6B64E" transform="matrix(1 0 0 1.00392 176 302)"/><path d="M53.2281 77.0993 53.7763 82.0813 51.3889 77.6348 53.2281 77.0993Z" fill="#CC9C34" transform="matrix(1 0 0 1.00392 176 302)"/><path d="M53.7763 46.0881 72.3021 60.9832 69.7393 49.8525 63.1284 48.2938 63.7149 49.2022 61.0534 47.8061 53.7763 46.0881Z" fill="#5BB68F" transform="matrix(1 0 0 1.00392 176 302)"/><path d="M61.0534 47.8061 67.7439 53.5373 64.3971 48.5934 61.0534 47.8061Z" fill="#E6B64E" transform="matrix(1 0 0 1.00392 176 302)"/><path d="M217.693 84.3891 204.316 81.9984 183.383 84.3891 205.852 93.024 217.693 84.3891Z" fill="#5A753D" transform="matrix(1 0 0 1.00392 176 302)"/><path d="M197.788 60.945 200.357 47.5734 189.012 41.7371 181.397 43.7931 179.361 48.5998 187.173 56.6897 197.788 60.945Z" fill="#2D9368" transform="matrix(1 0 0 1.00392 176 302)"/><path d="M207.315 64.7126 216.622 61.7482 222.414 50.6462 215.822 42.8049 207.315 40.8191 201.456 53.9229 207.315 64.7126Z" fill="#309B6E" transform="matrix(1 0 0 1.00392 176 302)"/><path d="M207.315 40.8191 221.681 34.4314 222.414 50.6462 207.315 40.8191Z" fill="#28835C" transform="matrix(1 0 0 1.00392 176 302)"/><path d="M202.792 73.3125 201.702 64.26 194.068 52.2399 181.627 44.3987 181.152 45.0999 193 53.1579 200.277 64.9899 200.825 73.5547 202.792 73.3125Z" fill="#67ACC3" transform="matrix(1 0 0 1.00392 176 302)"/><path d="M200.825 85.3357 202.792 73.3125 207.519 57.0977 219.319 39.8342 209.148 57.8372 204.752 74.3293 202.792 83.0694 200.825 85.3357Z" fill="#67ACC3" transform="matrix(1 0 0 1.00392 176 302)"/><path d="M204.752 74.3293 203.939 69.7106 213.786 67.1893 223.635 75.5724 206.34 75.9167 204.752 74.3293Z" fill="#28835C" transform="matrix(1 0 0 1.00392 176 302)"/><path d="M202.582 87.2132 206.34 75.9167 219.077 72.3977 225.098 74.9573 218.344 70.2812 204.752 74.3293 201.456 82.7284 200.825 88.1121 202.582 87.2132Z" fill="#4298B4" transform="matrix(1 0 0 1.00392 176 302)"/><path d="M213.786 67.1893 226.239 82.7284 228.435 71.9482 223.635 70.3896 222.331 71.0526 220.69 69.4301 213.786 67.1893Z" fill="#5BB68F" transform="matrix(1 0 0 1.00392 176 302)"/><path d="M223.635 70.3896 224.773 75.9167 220.69 69.4301 223.635 70.3896Z" fill="#E6B64E" transform="matrix(1 0 0 1.00392 176 302)"/><path d="M201.456 82.7284 198.894 74.2082 197.59 75.4896 199.869 87.6371 200.825 88.1121 201.702 84.9469 201.456 82.7284Z" fill="#3B88A1" transform="matrix(1 0 0 1.00392 176 302)"/><path d="M189.012 41.7371 175.924 53.2408 174.723 44.8577 179.169 43.8855 179.667 44.6441 181.869 43.299 189.012 41.7371Z" fill="#5BB68F" transform="matrix(1 0 0 1.00392 176 302)"/><path d="M181.869 43.299 178.14 47.9017 179.169 43.8855 181.869 43.299Z" fill="#E6B64E" transform="matrix(1 0 0 1.00392 176 302)"/><path d="M183.383 84.3891 202.582 87.2132 204.752 91.9817 199.311 109.28 187.559 107.02 185.407 95.3604 187.419 93.024 184.397 89.8971 183.383 84.3891Z" fill="#86B264" transform="matrix(1 0 0 1.00392 176 302)"/><path d="M202.582 87.2132 217.693 84.3891 216.622 89.7632 212.402 92.7403 215.516 95.3317 213.381 106.067 199.311 109.28 202.582 87.2132Z" fill="#709D52" transform="matrix(1 0 0 1.00392 176 302)"/><path d="M201.807 92.4502 184.397 89.8971 185.407 95.3604 201.109 97.1582 202.798 94.5954 201.807 92.4502Z" fill="#F4D75C" transform="matrix(1 0 0 1.00392 176 302)"/><path d="M201.807 92.4502 216.622 89.7632 215.516 95.3317 201.109 97.1582 201.807 92.4502Z" fill="#D8A537" transform="matrix(1 0 0 1.00392 176 302)"/><path d="M202.792 73.3125 195.725 68.2284 194.482 68.1328 193.599 66.6984 184.397 70.0071 190.852 73.0479 202.792 73.3125Z" fill="#5BB68F" transform="matrix(1 0 0 1.00392 176 302)"/><path d="M202.792 73.3125 184.397 70.0071 183.208 77.6348 190.852 88.1121 201.456 82.7284 202.792 73.3125Z" fill="#33A474" transform="matrix(1 0 0 1.00392 176 302)"/><path d="M193.599 66.6984 191.091 71.2087 191.935 72.675 192.888 71.5339 195.725 68.2284 193.599 66.6984Z" fill="#E6B64E" transform="matrix(1 0 0 1.00392 176 302)"/><path d="M192.888 71.5339 192.334 81.6765 191.091 71.2087 192.888 71.5339Z" fill="#CC9C34" transform="matrix(1 0 0 1.00392 176 302)"/><path d="M142.631 51.0733 149.733 49.4668 161.864 50.6462 154.431 57.0977 147.846 56.4474 142.631 51.0733Z" fill="#5A753D" transform="matrix(1 0 0 1.00392 176 302)"/><path d="M168.271 39.7832 171.947 35.1422 170.27 33.5899 165.906 40.2709 168.271 39.7832Z" fill="#ABAFB8" transform="matrix(1 0 0 1.00392 176 302)"/><path d="M157.434 39.8916 167.315 40.9913 168.271 39.7832 159.936 38.0109 157.434 39.8916Z" fill="#89909B" transform="matrix(1 0 0 1.00392 176 302)"/><path d="M135.577 41.0837 129.311 34.4314 130.665 33.7397 138.344 41.2972 135.577 41.0837Z" fill="#9A9FA9" transform="matrix(1 0 0 1.00392 176 302)"/><path d="M147.935 41.0837 137.279 42.8049 135.577 41.0837 146.383 39.8342 147.935 41.0837Z" fill="#BBBFC6" transform="matrix(1 0 0 1.00392 176 302)"/><path d="M151.773 40.8191 152.994 36.3439 159.04 28.6939 158.055 28.0436 151.129 36.0984 149.819 40.8191 151.773 40.8191Z" fill="#BBBFC6" transform="matrix(1 0 0 1.00392 176 302)"/><path d="M151.773 40.8191 140.629 32.3499 140.209 33.252 151.448 44.6441 151.773 40.8191Z" fill="#9A9FA9" transform="matrix(1 0 0 1.00392 176 302)"/><path d="M151.129 45.2976 140.46 36.4268 140.209 33.252 152.557 43.9939 151.129 45.2976Z" fill="#89909B" transform="matrix(1 0 0 1.00392 176 302)"/><path d="M155.435 43.5413 166.241 32.5189 164.338 32.0312 157.794 36.9463 153.628 42.1993 153.628 43.9939 155.435 43.5413Z" fill="#ABAFB8" transform="matrix(1 0 0 1.00392 176 302)"/><path d="M151.773 40.8191 164.338 31.0558 164.338 32.0312 153.628 42.1993 152.557 42.7635 151.773 40.8191Z" fill="#89909B" transform="matrix(1 0 0 1.00392 176 302)"/><path d="M151.362 53.8337 154.157 44.1788 153.628 42.1993 151.773 40.8191 148.735 53.703 151.362 53.8337Z" fill="#ABAFB8" transform="matrix(1 0 0 1.00392 176 302)"/><path d="M155.435 43.5413 153.628 42.1993 149.819 54.3309 152.098 53.5978 155.435 43.5413Z" fill="#89909B" transform="matrix(1 0 0 1.00392 176 302)"/><path d="M151.129 36.0984 145.589 27.6356 147.54 28.5313 152.994 36.3439 151.129 36.0984Z" fill="#89909B" transform="matrix(1 0 0 1.00392 176 302)"/><path d="M149.15 102.395 149.373 105.114 154.948 106.067 155.964 101.901 149.15 102.395Z" fill="#787F8D" transform="matrix(1 0 0 1.00392 176 302)"/><path d="M161.252 100.056 161.01 104.005 154.948 106.067 154.581 103.737 156.207 101.369 161.252 100.056Z" fill="#5F6878" transform="matrix(1 0 0 1.00392 176 302)"/><path d="M153.268 99.1567 161.252 100.056 154.581 103.737 149.15 102.395 153.268 99.1567Z" fill="#ABAFB8" transform="matrix(1 0 0 1.00392 176 302)"/><path d="M152.557 101.694 152.917 78.1001 154.581 81.3482 155.254 101.57 152.557 101.694Z" fill="#89909B" transform="matrix(1 0 0 1.00392 176 302)"/><path d="M146.176 73.9213 154.581 81.3482 155.254 74.8776 148.659 73.9627 146.176 73.9213Z" fill="#9471A4" transform="matrix(1 0 0 1.00392 176 302)"/><path d="M154.581 81.3482 161.252 73.2934 152.994 75.9167 154.581 81.3482Z" fill="#815C92" transform="matrix(1 0 0 1.00392 176 302)"/><path d="M133.652 66.3351 155.435 70.0071 154.581 73.5547 152.994 75.9167 134.133 71.4606 133.652 66.3351Z" fill="#B3889D" transform="matrix(1 0 0 1.00392 176 302)"/><path d="M152.748 71.8462 159.585 69.2452 175.924 68.2858 175.029 72.1331 152.994 75.9167 152.748 71.8462Z" fill="#96637C" transform="matrix(1 0 0 1.00392 176 302)"/><path d="M133.652 66.3351 153.3 63.9731 175.924 68.2858 152.748 71.8462 133.652 66.3351Z" fill="#D1A1B8" transform="matrix(1 0 0 1.00392 176 302)"/><path d="M140.76 60.9832 155.435 59.4564 155.435 63.9731 152.098 67.1893 142.631 65.2545 140.76 60.9832Z" fill="#709D52" transform="matrix(1 0 0 1.00392 176 302)"/><path d="M153.239 61.4104 157.915 58.6436 164.048 62.1371 162.304 65.6912 152.098 67.1893 153.239 61.4104Z" fill="#648E43" transform="matrix(1 0 0 1.00392 176 302)"/><path d="M139.597 58.3249 144.544 54.2481 147.865 53.9229 151.773 56.1223 154.581 58.7233 153.239 61.4104 147.087 61.1841 139.597 58.3249Z" fill="#A0CF7E" transform="matrix(1 0 0 1.00392 176 302)"/><path d="M151.773 56.1223 157.121 53.9229 159.668 54.4106 165.364 59.4564 160.602 61.7482 153.239 61.4104 151.773 56.1223Z" fill="#86B264" transform="matrix(1 0 0 1.00392 176 302)"/><path d="M142.631 51.0733 152.098 53.5978 153.239 54.5732 151.773 56.1223 144.544 54.2481 142.631 51.0733Z" fill="#709D52" transform="matrix(1 0 0 1.00392 176 302)"/><path d="M152.098 53.5978 161.864 50.6462 159.668 54.4106 151.773 56.1223 152.098 53.5978Z" fill="#648E43" transform="matrix(1 0 0 1.00392 176 302)"/><path d="M139.597 58.3249 153.239 61.4104 153.905 62.9149 152.719 64.0433 140.76 60.9832 139.597 58.3249Z" fill="#F4D75C" transform="matrix(1 0 0 1.00392 176 302)"/><path d="M153.239 61.4104 165.364 59.4564 164.048 62.1371 152.719 64.0433 153.239 61.4104Z" fill="#D8A537" transform="matrix(1 0 0 1.00392 176 302)"/><path d="M114.54 26.5359 123.634 33.5899 131.752 31.7857 140.46 31.9897 147.087 26.4148 170.981 30.6287 181.152 28.7767 178.873 19.9442 167.627 18.6022 160.602 13.719 158.055 9.40631 148.098 2.12287 131.752 9.44775 135.007 11.8479 132.613 15.4275 114.54 26.5359Z" fill="#47AD82" transform="matrix(1 0 0 1.00392 176 302)"/><path d="M114.54 26.5359 130.531 27.6356 137.126 27.3934 140.97 24.3557 149.433 21.6941 158.569 26.4148 170.085 26.4148 178.873 19.9442 184.327 29.835 171.947 35.1422 158.055 28.4261 147.54 28.5313 140.46 36.4268 135.854 32.3499 131.37 34.4314 122.231 36.9081 114.54 26.5359Z" fill="#2D9368" transform="matrix(1 0 0 1.00392 176 302)"/><path d="M131.752 9.44775 145.589 7.61494 142.631 12.4982 132.613 15.4275 131.752 9.44775Z" fill="#2D9368" transform="matrix(1 0 0 1.00392 176 302)"/><path d="M161.252 8.5935 152.994 5.70244 145.589 7.61494 142.631 12.4982 151.617 15.8355 160.602 13.719 161.252 8.5935Z" fill="#28835C" transform="matrix(1 0 0 1.00392 176 302)"/><path d="M131.37 34.4314 130.531 27.6356 135.854 22.9978 140.97 24.3557 140.46 36.4268 131.37 34.4314Z" fill="#28835C" transform="matrix(1 0 0 1.00392 176 302)"/><path d="M149.433 21.6941 147.54 28.5313 171.947 35.1422 170.085 26.4148 149.433 21.6941Z" fill="#28835C" transform="matrix(1 0 0 1.00392 176 302)"/><path d="M132.613 15.4275 130.531 27.6356 140.97 24.3557 132.613 15.4275Z" fill="#70BF9D" transform="matrix(1 0 0 1.00392 176 302)"/><path d="M142.631 12.4982 149.433 21.6941 160.602 13.719 142.631 12.4982Z" fill="#70BF9D" transform="matrix(1 0 0 1.00392 176 302)"/><path d="M170.085 26.4148 160.602 13.719 178.873 19.9442 170.085 26.4148Z" fill="#70BF9D" transform="matrix(1 0 0 1.00392 176 302)"/><path d="M148.098 2.12287 145.589 7.61494 161.252 8.5935 148.098 2.12287Z" fill="#70BF9D" transform="matrix(1 0 0 1.00392 176 302)"/><path d="M77.673 112.598 81.5394 112.174 78.4348 107.275 77.673 112.598Z" fill="#9471A4" transform="matrix(1 0 0 1.00392 176 302)"/><path d="M99.4436 113.759 102.921 115.002 106.973 113.029 104.595 112.34 102.561 111.751 99.4436 113.759Z" fill="#359496" transform="matrix(1 0 0 1.00392 176 302)"/><path d="M60.2437 101.662 54.6911 93.9101 56.7184 91.9689 61.9714 95.7525 62.169 97.9455 60.2437 101.662Z" fill="#9F80AE" transform="matrix(1 0 0 1.00392 176 302)"/><path d="M61.9714 95.7525 60.2437 101.662 63.0647 100.021 64.7732 96.0808 61.9714 95.7525Z" fill="#AB90B8" transform="matrix(1 0 0 1.00392 176 302)"/><path d="M68.8054 99.0611 61.9714 95.7525 64.1229 94.452 72.9746 97.3813 68.8054 99.0611Z" fill="#9F80AE" transform="matrix(1 0 0 1.00392 176 302)"/><path d="M79.1393 94.2289 74.7437 94.2289 68.8054 99.0611 69.0062 102.115 74.817 104.489 79.1393 94.2289Z" fill="#B3889D" transform="matrix(1 0 0 1.00392 176 302)"/><path d="M67.7248 109.459 66.4434 111.706 68.3942 114.004 71.1418 113.523 71.4191 110.587 69.5704 109.309 67.7248 109.459Z" fill="#9471A4" transform="matrix(1 0 0 1.00392 176 302)"/><path d="M69.2484 106.51 67.7248 109.459 69.2484 110.925 71.4191 110.587 72.3021 106.698 69.2484 106.51Z" fill="#735283" transform="matrix(1 0 0 1.00392 176 302)"/><path d="M73.4846 114.473 69.2484 106.51 74.6704 103.737 77.1853 112.764 73.4846 114.473Z" fill="#B3889D" transform="matrix(1 0 0 1.00392 176 302)"/><path d="M84.1946 94.4807 82.4032 90.6557 87.6403 89.2149 86.6458 94.2289 87.0984 95.3859 84.1946 94.4807Z" fill="#9471A4" transform="matrix(1 0 0 1.00392 176 302)"/><path d="M84.1946 94.4807 87.6403 89.2149 87.6403 94.6146 86.0976 95.6154 84.1946 94.4807Z" fill="#7A578A" transform="matrix(1 0 0 1.00392 176 302)"/><path d="M72.9746 102.115 69.0062 102.115 69.2484 106.51 74.9859 106.861 72.9746 102.115Z" fill="#9471A4" transform="matrix(1 0 0 1.00392 176 302)"/><path d="M69.2484 106.51 74.6226 103.476 75.3525 107.275 69.2484 106.51Z" fill="#7A578A" transform="matrix(1 0 0 1.00392 176 302)"/><path d="M74.6831 108.694 73.4846 114.473 76.8187 115.123 80.8892 108.286 74.6831 108.694Z" fill="#734D61" transform="matrix(1 0 0 1.00392 176 302)"/><path d="M78.4348 109.376 84.303 116.146 86.4609 114.291 85.4601 112.758 84.6919 111.562 79.8086 106.861 78.4348 109.376Z" fill="#96637C" transform="matrix(1 0 0 1.00392 176 302)"/><path d="M91.8351 102.379 95.2521 110.587 92.9316 112.174 88.7814 105.886 88.4754 103.476 91.8351 102.379Z" fill="#96637C" transform="matrix(1 0 0 1.00392 176 302)"/><path d="M72.9746 102.115 79.1393 94.2289 86.7892 95.7525 90.1042 101.857 88.7814 105.886 78.4348 109.376 74.6831 108.694 72.9746 102.115Z" fill="#96637C" transform="matrix(1 0 0 1.00392 176 302)"/><path d="M79.1393 94.2289 82.7379 102.07 88.7814 105.886 91.8351 102.379 87.6403 94.6146 83.8759 95.3859 79.1393 94.2289Z" fill="#B3889D" transform="matrix(1 0 0 1.00392 176 302)"/><path d="M82.7379 102.07 75.7191 102.379 78.4348 109.376 81.396 109.915 88.7814 105.886 89.8811 101.063 85.0584 96.7916 82.7379 102.07Z" fill="#735283" transform="matrix(1 0 0 1.00392 176 302)"/><path d="M81.396 109.915 82.2662 105.78 84.0512 105.535 85.4856 104.117 88.7814 105.886 89.0364 109.497 84.6919 111.562 81.396 109.915Z" fill="#9F80AE" transform="matrix(1 0 0 1.00392 176 302)"/><path d="M82.2662 105.78 85.4856 104.117 84.7843 106.437 82.2662 105.78Z" fill="#3D4554" transform="matrix(1 0 0 1.00392 176 302)"/><path d="M84.7843 106.437 84.8959 108.005 86.0976 107.594 84.7843 106.437Z" fill="#9F80AE" transform="matrix(1 0 0 1.00392 176 302)"/><path d="M81.396 109.915 88.7814 105.886 85.731 108.977 81.396 109.915Z" fill="#FFFFFF" transform="matrix(1 0 0 1.00392 176 302)"/><path d="M87.3789 102.743C87.3789 103.148 87.0507 103.476 86.6458 103.476 86.2409 103.476 85.9127 103.148 85.9127 102.743 85.9127 102.338 86.2409 102.01 86.6458 102.01 87.0507 102.01 87.3789 102.338 87.3789 102.743Z" fill="#232A38" transform="matrix(1 0 0 1.00392 176 302)"/><path d="M81.2749 105.78C81.2749 106.185 80.9466 106.513 80.5417 106.513 80.1369 106.513 79.8086 106.185 79.8086 105.78 79.8086 105.375 80.1368 105.047 80.5417 105.047 80.9466 105.047 81.2749 105.375 81.2749 105.78Z" fill="#232A38" transform="matrix(1 0 0 1.00392 176 302)"/><path d="M95.2521 110.587 99.4436 108.815 99.4436 111.884 97.5311 114.715 94.8855 113.395 94.3978 111.767 95.2521 110.587Z" fill="#735283" transform="matrix(1 0 0 1.00392 176 302)"/><path d="M85.4601 112.758 95.2521 110.587 94.8855 113.395 84.303 116.146 85.4601 112.758Z" fill="#B3889D" transform="matrix(1 0 0 1.00392 176 302)"/><path d="M79.1393 94.2289 85.0584 96.7916 87.6403 94.6146 79.1393 94.2289Z" fill="#D1A1B8" transform="matrix(1 0 0 1.00392 176 302)"/><path d="M54.6911 93.9101 64.7732 88.7559 64.7732 86.5374 55.9024 91.035 54.6911 93.9101Z" fill="#AB90B8" transform="matrix(1 0 0 1.00392 176 302)"/><path d="M64.7732 88.7559 65.9143 85.7438 64.0401 80.0254 60.8685 81.8072 64.7732 88.7559Z" fill="#9F80AE" transform="matrix(1 0 0 1.00392 176 302)"/><path d="M104.595 112.34 102.752 103.801 101.053 112.85 102.854 113.523 104.595 112.34Z" fill="#68707F" transform="matrix(1 0 0 1.00392 176 302)"/><path d="M99.4436 108.815 104.234 110.67 102.191 113.274 97.5311 114.715 99.4436 108.815Z" fill="#9F80AE" transform="matrix(1 0 0 1.00392 176 302)"/><path d="M112.098 103.606 111.183 106.252 112.324 106.389 114.702 106.211 114.329 105.277 112.098 103.606Z" fill="#8E699F" transform="matrix(1 0 0 1.00392 176 302)"/><path d="M116.331 107.221 113.089 108.286 112.48 107.632 113.969 106.482 115.684 106.389 116.331 107.221Z" fill="#8E699F" transform="matrix(1 0 0 1.00392 176 302)"/><path d="M113.969 106.482 109.283 107.967 108.875 107.314 113.628 104.751 113.969 106.482Z" fill="#735283" transform="matrix(1 0 0 1.00392 176 302)"/><path d="M116.984 103.932 112.098 103.606 113.969 106.482 116.331 107.221 117.408 105.58 117.918 104.623 116.984 103.932Z" fill="#9F80AE" transform="matrix(1 0 0 1.00392 176 302)"/><path d="M139.402 87.4937 141.617 80.9338 143.294 84.0544 140.581 88.9567 139.402 87.4937Z" fill="#9F80AE" transform="matrix(1 0 0 1.00392 176 302)"/><path d="M143.294 84.0544 142.739 80.1879 138.344 77.4435 137.126 78.744 143.294 84.0544Z" fill="#AB90B8" transform="matrix(1 0 0 1.00392 176 302)"/><path d="M138.344 77.4435 136.269 76.9941 133.362 80.9338 136.473 82.1227 138.344 77.4435Z" fill="#9F80AE" transform="matrix(1 0 0 1.00392 176 302)"/><path d="M148.19 102.395 143.473 99.3576 140.868 99.7209 146.125 105.079 148.19 102.395Z" fill="#AB90B8" transform="matrix(1 0 0 1.00392 176 302)"/><path d="M143.533 106.192 148.19 102.395 147.514 106.861 141.031 108.926 143.533 106.192Z" fill="#9F80AE" transform="matrix(1 0 0 1.00392 176 302)"/><path d="M122.598 101.369 116.984 103.932 117.408 105.58 123.694 104.435 124 102.379 122.598 101.369Z" fill="#96637C" transform="matrix(1 0 0 1.00392 176 302)"/><path d="M129.189 96.7916 122.598 101.369 123.694 104.435 125.756 103.476 132.613 101.002 129.189 96.7916Z" fill="#734D61" transform="matrix(1 0 0 1.00392 176 302)"/><path d="M132.24 113.134 131.06 115.123 128.087 114.431 129.438 112.174 130.981 111.218 132.24 113.134Z" fill="#735283" transform="matrix(1 0 0 1.00392 176 302)"/><path d="M131.06 115.123 126.732 114.352 129.438 112.174 131.06 115.123Z" fill="#AB90B8" transform="matrix(1 0 0 1.00392 176 302)"/><path d="M134.618 113.593 134.987 115.123 138.181 114.371 137.776 112.461 135.842 111.562 134.618 113.593Z" fill="#735283" transform="matrix(1 0 0 1.00392 176 302)"/><path d="M134.987 115.123 140.04 114.683 137.776 112.461 134.987 115.123Z" fill="#AB90B8" transform="matrix(1 0 0 1.00392 176 302)"/><path d="M130.448 100.712 129.189 103.737 132.24 112.598 134.509 112.904 137.537 106.51 136.635 100.056 130.448 100.712Z" fill="#88619A" transform="matrix(1 0 0 1.00392 176 302)"/><path d="M130.665 108.028 137.368 108.662 134.618 113.593 132.24 113.134 130.665 108.028Z" fill="#9F80AE" transform="matrix(1 0 0 1.00392 176 302)"/><path d="M139.402 100.795 143.533 106.192 138.181 107.221 135.66 102.115 136.96 100.269 139.402 100.795Z" fill="#734D61" transform="matrix(1 0 0 1.00392 176 302)"/><path d="M142.373 90.3816 142.631 89.7887 146.169 86.1709 149.51 89.862 146.89 90.7481 145.334 92.4502 142.373 90.3816Z" fill="#9471A4" transform="matrix(1 0 0 1.00392 176 302)"/><path d="M142.631 89.7887 149.51 89.862 145.334 92.4502 143.106 91.7044 142.631 89.7887Z" fill="#7A578A" transform="matrix(1 0 0 1.00392 176 302)"/><path d="M128.638 81.7147 130.665 86.4801 128.705 87.3662 123.452 83.2416 128.638 81.7147Z" fill="#9471A4" transform="matrix(1 0 0 1.00392 176 302)"/><path d="M123.452 83.2416 130.665 86.4801 128.517 87.6371 127.302 87.3184 123.452 83.2416Z" fill="#7A578A" transform="matrix(1 0 0 1.00392 176 302)"/><path d="M137.537 84.7684 128.517 88.3129 127.908 93.4575 130.448 100.712 133.327 100.199 135.66 102.115 143.473 99.3576 145.334 92.4502 137.537 84.7684Z" fill="#96637C" transform="matrix(1 0 0 1.00392 176 302)"/><path d="M137.537 84.7684 134.114 95.0226 130.448 100.712 125.16 94.2289 127.302 87.3184 137.537 84.7684Z" fill="#B3889D" transform="matrix(1 0 0 1.00392 176 302)"/><path d="M135.386 91.2039 131.22 88.3129 126.929 93.7763 129.438 96.8362 137.866 99.5711 142.089 98.3631 140.754 91.1753 135.386 91.2039Z" fill="#735283" transform="matrix(1 0 0 1.00392 176 302)"/><path d="M132.893 95.0226 129.438 96.8362 130.448 100.712 135.66 102.115 137.866 99.5711 135.842 95.7525 132.893 95.0226Z" fill="#9F80AE" transform="matrix(1 0 0 1.00392 176 302)"/><path d="M132.893 95.0226 135.842 95.7525 133.98 96.9733 132.893 95.0226Z" fill="#3D4554" transform="matrix(1 0 0 1.00392 176 302)"/><path d="M133.98 96.9733 134.133 98.5671 133.056 98.2356 133.98 96.9733Z" fill="#9F80AE" transform="matrix(1 0 0 1.00392 176 302)"/><path d="M130.732 96.1573 133.652 98.1654 137.126 98.175 136.027 99.7209 130.856 98.2611 130.732 96.1573Z" fill="#FFFFFF" transform="matrix(1 0 0 1.00392 176 302)"/><path d="M136.96 95.0417 138.325 95.0417 139.402 96.0808 138.994 96.4251 138.098 95.6122 137.002 95.6505 136.96 95.0417Z" fill="#232A38" transform="matrix(1 0 0 1.00392 176 302)"/><path d="M132.613 93.8559 131.532 93.024 130.047 93.1866 130.155 93.7093 131.363 93.6105 132.208 94.3149 132.613 93.8559Z" fill="#232A38" transform="matrix(1 0 0 1.00392 176 302)"/><path d="M135.66 102.115 138.181 102.679 140.234 106.297 137.776 112.461 134.618 113.593 135.66 102.115Z" fill="#734D61" transform="matrix(1 0 0 1.00392 176 302)"/><path d="M135.66 102.115 141.391 103.393 140.234 106.297 135.66 102.115Z" fill="#96637C" transform="matrix(1 0 0 1.00392 176 302)"/><path d="M130.448 100.712 132.24 113.134 129.438 112.174 127.841 108.4 127.908 107.32 126.732 105.78 125.756 103.476 128.536 102.778 130.448 100.712Z" fill="#734D61" transform="matrix(1 0 0 1.00392 176 302)"/><path d="M130.448 100.712 128.938 104.748 125.756 103.476 130.448 100.712Z" fill="#96637C" transform="matrix(1 0 0 1.00392 176 302)"/><path d="M143.533 106.192 140.868 110.791 131.682 109.105 130.448 107.4 131.239 106.192 143.533 106.192Z" fill="#B3889D" transform="matrix(1 0 0 1.00392 176 302)"/><path d="M131.239 106.192 128.938 104.748 128.389 107.492 129.553 109.293 131.682 109.105 131.239 106.192Z" fill="#9471A4" transform="matrix(1 0 0 1.00392 176 302)"/><path d="M128.938 104.748 126.732 105.78 127.841 108.4 129.553 109.293 128.938 104.748Z" fill="#AB90B8" transform="matrix(1 0 0 1.00392 176 302)"/><path d="M134.987 115.123 141.031 112.235 140.903 114.804 134.987 115.123Z" fill="#735283" transform="matrix(1 0 0 1.00392 176 302)"/><path d="M131.06 115.123 125.607 111.859 126.094 115.413 131.06 115.123Z" fill="#735283" transform="matrix(1 0 0 1.00392 176 302)"/><path d="M194.068 93.4065 198.584 91.9817 197.188 96.2976 194.068 93.4065Z" fill="#317186" transform="matrix(1 0 0 1.00392 176 302)"/><path d="M201.109 97.1582 194.068 93.4065 195.046 100.712 201.109 97.1582Z" fill="#4298B4" transform="matrix(1 0 0 1.00392 176 302)"/><path d="M191.489 99.7815 201.109 97.1582 198.358 101.796 190.852 102.115 191.489 99.7815Z" fill="#317186" transform="matrix(1 0 0 1.00392 176 302)"/><path d="M201.456 107.635 202.553 108.821 203.614 111.269 200.825 111.269 198.039 108.327 201.456 107.635Z" fill="#359496" transform="matrix(1 0 0 1.00392 176 302)"/><path d="M167.439 109.765 164.717 111.46 165.167 112.774 169.425 112.774 168.539 110.115 167.439 109.765Z" fill="#388199" transform="matrix(1 0 0 1.00392 176 302)"/><path d="M169.534 99.3576 167.439 109.765 169.425 112.774 174.35 103.24 169.534 99.3576Z" fill="#4FA9AA" transform="matrix(1 0 0 1.00392 176 302)"/><path d="M193.523 108.735 199.706 105.764 201.456 107.635 196.168 113.21 193.523 108.735Z" fill="#1E7678" transform="matrix(1 0 0 1.00392 176 302)"/><path d="M175.924 109.602 177.815 106.498 184.327 107.02 187.419 110.24 187.419 113.21 175.924 109.602Z" fill="#185E60" transform="matrix(1 0 0 1.00392 176 302)"/><path d="M170.123 81.3482 164.306 82.8941 158.365 83.6272 176.756 105.235 184.327 107.02 187.419 104.442 186.44 100.712 181.627 96.1573 177.442 88.7942 177.464 83.3722 170.123 81.3482Z" fill="#359496" transform="matrix(1 0 0 1.00392 176 302)"/><path d="M163.439 83.3212 166.241 84.1914 173.665 86.1709 177.464 83.3722 170.248 79.9648 163.439 83.3212Z" fill="#4FA9AA" transform="matrix(1 0 0 1.00392 176 302)"/><path d="M158.365 83.6272 160.806 82.1164 162.84 81.7147 166.241 84.1914 164.921 88.9567 163.002 88.3129 158.365 83.6272Z" fill="#8DC1D2" transform="matrix(1 0 0 1.00392 176 302)"/><path d="M158.365 83.6272 173.257 95.7334 175.944 98.0316 175.456 101.694 177.442 105.073 179.686 104.234 184.327 107.02 175.924 109.602 158.365 83.6272Z" fill="#1E7678" transform="matrix(1 0 0 1.00392 176 302)"/><path d="M158.365 83.6272 162.84 81.7147 160.927 80.3728 158.365 83.6272Z" fill="#4B5464" transform="matrix(1 0 0 1.00392 176 302)"/><path d="M168.762 82.7284 169.412 83.5922 170.837 83.9587 170.41 84.5293 169.027 84.1213 168.233 83.1651 168.762 82.7284Z" fill="#3D4554" transform="matrix(1 0 0 1.00392 176 302)"/><path d="M175.456 101.694 181.627 96.1573 178.019 94.3691 173.257 95.7334 175.456 101.694Z" fill="#4FA9AA" transform="matrix(1 0 0 1.00392 176 302)"/><path d="M177.464 83.3722 173.665 86.1709 173.257 95.7334 181.627 96.1573 177.464 83.3722Z" fill="#317186" transform="matrix(1 0 0 1.00392 176 302)"/><path d="M186.44 100.712 192.28 102.054 191.996 111.929 187.823 111.135 184.327 107.02 186.44 100.712Z" fill="#4FA9AA" transform="matrix(1 0 0 1.00392 176 302)"/><path d="M192.28 102.054 196.168 113.21 187.823 111.135 184.327 107.02 192.28 102.054Z" fill="#359496" transform="matrix(1 0 0 1.00392 176 302)"/><path d="M184.327 107.02 196.168 113.21 187.419 113.21 184.327 107.02Z" fill="#1E7678" transform="matrix(1 0 0 1.00392 176 302)"/><path d="M174.35 111.636 171.507 113.21 171.835 114.549 176.635 114.549 175.924 111.827 174.35 111.636Z" fill="#388199" transform="matrix(1 0 0 1.00392 176 302)"/><path d="M175.456 101.694 179.686 104.234 176.635 114.549 174.35 111.636 175.456 101.694Z" fill="#4FA9AA" transform="matrix(1 0 0 1.00392 176 302)"/><path d="M200.825 111.269 202.553 108.821 205.444 111.948 202.196 112.774 200.825 111.269Z" fill="#388199" transform="matrix(1 0 0 1.00392 176 302)"/><path d="M92.6893 85.5812 102.21 85.1126 109.841 85.4569 110.106 86.6777 112.771 85.9924 118.17 87.1048 107.658 95.3668 96.7566 98.8667 88.2778 93.6583 92.2909 90.729 92.6893 85.5812Z" fill="#404857" transform="matrix(1 0 0 1.00392 176 302)"/><path d="M78.2212 72.0917 75.0943 70.0071 73.5834 72.0917 74.9859 74.3293 78.2212 72.0917Z" fill="#835940" transform="matrix(1 0 0 1.00392 176 302)"/><path d="M81.8837 74.3293 78.5273 70.0071 74.9859 74.3293 78.8938 75.8593 80.4812 76.1207 81.8837 74.3293Z" fill="#A77E62" transform="matrix(1 0 0 1.00392 176 302)"/><path d="M81.8837 74.3293 79.9935 67.9097 75.3525 68.5504 75.9518 69.6883 78.1065 70.5202 78.5751 73.5356 80.9083 76.3151 81.8837 74.3293Z" fill="#C09C84" transform="matrix(1 0 0 1.00392 176 302)"/><path d="M74.9859 74.3293 71.6167 71.8494 72.9141 68.9998 75.3525 68.5504 74.9859 74.3293Z" fill="#C09C84" transform="matrix(1 0 0 1.00392 176 302)"/><path d="M124.325 68.9265 128.517 67.5909 126.929 72.4232 125.282 70.992 124.325 68.9265Z" fill="#835940" transform="matrix(1 0 0 1.00392 176 302)"/><path d="M120.338 70.5202 124.975 67.6356 126.929 72.4232 122.231 73.5547 120.338 72.7611 120.338 70.5202Z" fill="#A77E62" transform="matrix(1 0 0 1.00392 176 302)"/><path d="M120.338 70.5202 122.9 65.2545 127.5 66.0673 126.687 67.3168 124.975 67.6356 123.92 70.5202 120.765 71.8462 120.338 70.5202Z" fill="#C09C84" transform="matrix(1 0 0 1.00392 176 302)"/><path d="M126.929 72.4232 129.005 71.8462 131.08 68.2189 127.5 66.0673 126.929 72.4232Z" fill="#C09C84" transform="matrix(1 0 0 1.00392 176 302)"/><path d="M109.29 65.6115 115.148 72.6399 116.066 76.9112 114.112 79.2317 111.183 77.5041 109.29 73.6791 109.29 65.6115Z" fill="#359496" transform="matrix(1 0 0 1.00392 176 302)"/><path d="M85.731 67.9097 83.4711 79.4166 87.0984 83.8089 90.1042 79.3401 90.1042 73.3731 85.731 67.9097Z" fill="#359496" transform="matrix(1 0 0 1.00392 176 302)"/><path d="M105.752 87.1048 109.048 91.0127 112.771 85.9924 109.841 85.4569 107.017 84.0544 105.752 87.1048Z" fill="#4FA9AA" transform="matrix(1 0 0 1.00392 176 302)"/><path d="M99.1121 86.6777 97.0912 91.8606 92.6893 85.5812 95.9023 84.3604 99.1121 86.6777Z" fill="#4FA9AA" transform="matrix(1 0 0 1.00392 176 302)"/><path d="M91.8351 75.2664 99.1121 86.6777 105.752 87.1048 106.973 80.3919 106.421 75.3876 100.62 74.5939 91.8351 75.2664Z" fill="#C6E0E8" transform="matrix(1 0 0 1.00392 176 302)"/><path d="M94.0727 64.8465 93.7858 73.1914 96.7215 76.3151 104.308 75.5884 107.658 70.0166 104.276 64.7254 94.0727 64.8465Z" fill="#F5F9FB" transform="matrix(1 0 0 1.00392 176 302)"/><path d="M102.854 63.9731 109.29 65.6115 111.183 77.5041 107.967 82.1164 104.308 75.5884 102.854 63.9731Z" fill="#4FA9AA" transform="matrix(1 0 0 1.00392 176 302)"/><path d="M102.637 60.9832 106.421 63.3834 102.127 66.0673 102.637 60.9832Z" fill="#A0CBD9" transform="matrix(1 0 0 1.00392 176 302)"/><path d="M99.1121 65.6115 101.171 71.8462 102.127 66.0673 99.9313 63.9731 99.1121 65.6115Z" fill="#C09C84" transform="matrix(1 0 0 1.00392 176 302)"/><path d="M107.256 36.8507 112.146 53.1292 102.943 57.3623 101.477 63.3834 94.8058 60.3712 85.0393 53.0464 87.1558 44.3381 89.2755 36.9463 98.9623 32.8026 107.256 36.8507Z" fill="#C09C84" transform="matrix(1 0 0 1.00392 176 302)"/><path d="M89.2755 36.9463 98.5479 55.9789 112.146 53.1292 104.808 58.3249 102.127 66.0673 99.1121 65.6115 92.2909 62.7937 89.8174 59.9377 88.9472 57.1583 87.0825 56.7789 84.0607 53.2918 84.8767 50.3625 84.303 48.0006 84.4688 44.3381 89.2755 36.9463Z" fill="#A77E62" transform="matrix(1 0 0 1.00392 176 302)"/><path d="M106.848 40.4111 102.21 46.5152 95.9246 42.0623 98.2642 40.7171 99.1121 41.0327 100.075 41.3897 101.844 42.0623 103.004 40.7777 103.635 40.3378 104.225 39.9234 106.848 40.4111Z" fill="#A77E62" transform="matrix(1 0 0 1.00392 176 302)"/><path d="M100.075 41.3897 102.21 46.5152 103.747 46.7192 104.834 46.0881 103.004 40.7777 100.075 41.3897Z" fill="#C9AD9B" transform="matrix(1 0 0 1.00392 176 302)"/><path d="M102.21 46.5152 103.871 47.5479 104.834 46.0881 102.21 46.5152Z" fill="#835940" transform="matrix(1 0 0 1.00392 176 302)"/><path d="M112.146 53.1292 95.2935 56.4666 104.808 58.3249 112.146 53.1292Z" fill="#835940" transform="matrix(1 0 0 1.00392 176 302)"/><path d="M87.0825 56.7789 90.0437 54.8377 89.8174 59.9377 87.0825 56.7789Z" fill="#835940" transform="matrix(1 0 0 1.00392 176 302)"/><path d="M85.2816 53.1292 87.2769 51.5419 88.9153 54.2544 85.2816 53.1292Z" fill="#835940" transform="matrix(1 0 0 1.00392 176 302)"/><path d="M84.0607 53.2918 86.3016 50.4039 84.303 48.0006 84.0607 53.2918Z" fill="#835940" transform="matrix(1 0 0 1.00392 176 302)"/><path d="M100.786 49.3042 104.531 49.5083 106.686 48.2874 106.973 49.0588 104.834 50.6462 101.385 50.1999 100.786 49.3042Z" fill="#835940" transform="matrix(1 0 0 1.00392 176 302)"/><path d="M97.0434 43.4839 98.5001 43.8855 99.5233 43.2193 99.9313 43.8855 98.4874 44.6664 96.7566 44.1756 97.0434 43.4839Z" fill="#232A38" transform="matrix(1 0 0 1.00392 176 302)"/><path d="M104.652 42.5085 106.217 42.7762 107.377 41.9857 107.658 42.4862 106.469 43.5413 104.652 43.2193 104.652 42.5085Z" fill="#232A38" transform="matrix(1 0 0 1.00392 176 302)"/><path d="M95.9246 42.0623 99.1121 41.0327 98.3439 39.9234 95.7111 41.2367 95.9246 42.0623Z" fill="#51596A" transform="matrix(1 0 0 1.00392 176 302)"/><path d="M103.635 40.3378 106.848 40.4111 106.513 39.5282 103.877 39.2541 103.635 40.3378Z" fill="#51596A" transform="matrix(1 0 0 1.00392 176 302)"/><path d="M94.0727 64.8465 92.2909 62.7937 98.1017 61.8598 99.1121 65.6115 94.0727 64.8465Z" fill="#A0CBD9" transform="matrix(1 0 0 1.00392 176 302)"/><path d="M94.0727 64.8465 85.731 67.9097 90.1042 79.3401 96.7566 83.8089 96.7215 76.3151 94.0727 64.8465Z" fill="#4FA9AA" transform="matrix(1 0 0 1.00392 176 302)"/><path d="M96.7215 76.3151 90.1042 79.3401 92.6893 85.5812 99.1121 86.6777 96.7215 76.3151Z" fill="#359496" transform="matrix(1 0 0 1.00392 176 302)"/><path d="M104.308 75.5884 111.183 77.5041 109.841 85.4569 105.752 87.1048 104.308 75.5884Z" fill="#359496" transform="matrix(1 0 0 1.00392 176 302)"/><path d="M115.148 72.6399 120.338 70.5202 122.231 73.5547 114.112 79.2317 115.148 72.6399Z" fill="#4FA9AA" transform="matrix(1 0 0 1.00392 176 302)"/><path d="M87.0984 83.8089 81.8837 74.3293 78.8938 75.8593 81.0294 82.9547 87.0984 83.8089Z" fill="#4FA9AA" transform="matrix(1 0 0 1.00392 176 302)"/><path d="M92.6893 85.5812 111.652 93.8272 110.198 97.4036 88.2778 93.6583 92.6893 85.5812Z" fill="#51596A" transform="matrix(1 0 0 1.00392 176 302)"/><path d="M107.664 96.9255 113.746 101.158 116.984 95.4433 112.771 94.7962 107.664 96.9255Z" fill="#C09C84" transform="matrix(1 0 0 1.00392 176 302)"/><path d="M101.385 93.4958 96.7024 94.044 93.2822 96.7343 95.5804 101.423 102.217 97.8945 103.613 96.2625 101.385 93.4958Z" fill="#C09C84" transform="matrix(1 0 0 1.00392 176 302)"/><path d="M118.17 87.1048 120.688 95.4943 102.217 97.8945 101.385 93.4958 118.17 87.1048Z" fill="#5F6878" transform="matrix(1 0 0 1.00392 176 302)"/><path d="M113.746 101.158 114.725 92.82 117.683 95.8832 113.746 101.158Z" fill="#A77E62" transform="matrix(1 0 0 1.00392 176 302)"/><path d="M93.2822 96.7343 94.9939 102.778 99.0834 102.331 93.2822 96.7343Z" fill="#A77E62" transform="matrix(1 0 0 1.00392 176 302)"/></g></g></g></g></svg>