<svg width="1361" height="762" xmlns="http://www.w3.org/2000/svg" xmlns:xlink="http://www.w3.org/1999/xlink" overflow="hidden"><defs><clipPath id="clip0"><rect x="3467" y="1662" width="1361" height="762"/></clipPath><clipPath id="clip1"><rect x="4140" y="1705" width="688" height="688"/></clipPath><clipPath id="clip2"><rect x="4140" y="1705" width="688" height="688"/></clipPath><clipPath id="clip3"><rect x="4140" y="1705" width="688" height="688"/></clipPath></defs><g clip-path="url(#clip0)" transform="translate(-3467 -1662)"><path d="M3467 1789C3467 1718.86 3523.86 1662 3594 1662L4325 1662C4395.14 1662 4452 1718.86 4452 1789L4452 2297C4452 2367.14 4395.14 2424 4325 2424L3594 2424C3523.86 2424 3467 2367.14 3467 2297Z" fill="#79CCBF" fill-rule="evenodd"/><g clip-path="url(#clip1)"><g clip-path="url(#clip2)"><g clip-path="url(#clip3)"><path d="M613.914 242.807C635.218 188.383 608.48 105.665 559.834 75.8652 538.056 62.4956 494.616 49.3836 440.72 102.711L440.72 102.775C440.373 102.56 440.115 102.258 439.726 102.042 422.907 92.3397 403.631 91.6486 388.18 100.145 388.18 100.145 247.802 174.496 242.024 177.514 229 184.328 211.071 198.818 205.895 209.169 204.299 212.36 71.8584 441.405 71.8584 441.405 54.9532 470.687 65.0001 508.25 94.1531 525.113L245.861 612.659C259.975 620.853 276.45 623.01 292.232 618.784 308.06 614.513 321.29 604.378 329.485 590.147 329.485 590.147 460.598 363.82 463.532 357.997 470.161 344.757 473.623 323.69 473.396 311.464 473.321 305.772 471.036 243.195 469.342 196.618 489.009 208.436 525.363 244.489 507.897 345.535 495.617 416.65 502.56 465.252 528.48 490.093 551.639 512.218 580.522 506.223 581.742 505.964 594.323 501.394 602.312 494.061 606.28 484.272 615.11 462.578 602.096 435.021 596.533 423.203 565.439 357.394 580.878 321.166 602.215 271.012L613.914 242.807ZM438.638 329.017 438.432 330.528 434.853 341.438 300.816 573.587C297.02 580.143 290.931 584.842 283.653 586.783 276.45 588.724 268.903 587.732 262.433 583.981L110.714 496.433C97.3356 488.671 92.7738 471.42 100.537 457.966L234.574 225.815C234.532 225.837 242.252 217.277 242.252 217.277 243.373 216.369 257.463 206.839 257.463 206.839L403.889 129.298C410.314 125.805 418.034 127.746 423.198 130.72 429.98 134.602 434.25 140.727 434.378 146.722L435.069 165.568C427.9 165.654 420.827 166.301 414.152 168.111 411.609 165.524 408.751 163.066 405.441 161.167 385.646 149.74 360.245 156.511 348.816 176.306 337.389 196.101 344.203 221.503 363.943 232.93 383.78 244.359 409.182 237.588 420.578 217.793L420.611 217.793C425.969 208.522 427.178 198.042 425.053 188.337 428.513 187.734 432.137 187.432 435.846 187.388L440.286 312.066C440.287 311.551 438.638 329.017 438.638 329.017ZM385.246 199.423C389.484 203.821 396.461 203.95 400.86 199.723 401.818 198.818 402.984 198.043 404.061 197.223 404.017 200.456 403.242 203.735 401.474 206.754 396.115 215.983 384.266 219.174 374.994 213.826 365.765 208.478 362.574 196.619 367.922 187.347 372.709 179.067 382.627 176.049 391.338 179.24 389.355 180.705 387.329 182.085 385.56 183.81 381.161 188.016 381.032 195.024 385.246 199.423ZM593.344 234.743 581.915 262.344C568.89 292.964 556.902 321.126 556.902 354.763 556.902 377.405 562.326 402.548 576.557 432.65 579.758 439.42 587.22 455.248 587.22 467.798 587.22 470.731 586.831 473.533 585.829 475.949 584.805 478.492 582.594 482.202 575.576 484.79 575.521 484.659 557.667 487.68 543.533 473.922 529.691 460.466 516.104 427.95 529.691 349.287 550.467 228.749 499.588 187.52 476.73 175.358 474.056 173.936 471.254 173.072 468.45 171.951 467.89 156.296 467.501 145.729 467.501 145.729 467.242 135.724 463.263 126.064 457.021 117.698 481.648 93.5905 514.897 74.1836 548.267 94.6676 578.465 113.213 599.165 160.221 599.154 200.975 599.154 213.093 597.301 224.65 593.344 234.743Z" fill="#27323A" transform="matrix(1.00146 0 0 1 4140 1705)"/><path d="M425.054 188.338C427.178 198.042 425.97 208.522 420.611 217.794L420.578 217.794C409.182 237.589 383.781 244.359 363.944 232.93 344.203 221.503 337.389 196.101 348.816 176.306 360.245 156.511 385.647 149.741 405.442 161.168 408.752 163.067 411.609 165.524 414.153 168.112 420.828 166.301 427.9 165.654 435.07 165.568L434.379 146.723C434.251 140.728 429.98 134.603 423.199 130.721 418.034 127.746 410.315 125.806 403.89 129.299L257.463 206.839C257.463 206.839 243.373 216.369 242.252 217.277 242.252 217.277 234.532 225.838 234.574 225.816L100.537 457.966C92.7738 471.42 97.3356 488.672 110.714 496.433L262.433 583.981C268.902 587.732 276.45 588.724 283.653 586.783 290.931 584.842 297.02 580.143 300.816 573.587L434.853 341.437 438.433 330.527 438.638 329.016C438.638 329.016 440.288 311.551 440.288 312.067L435.847 187.389C432.137 187.433 428.514 187.735 425.054 188.338ZM395.759 342.881 283.275 537.728C280.224 543.01 273.485 544.801 268.203 541.761L144.396 470.298C141.853 468.842 140 466.426 139.254 463.592 138.496 460.768 138.892 457.758 140.354 455.225L252.828 260.425C255.88 255.119 262.628 253.33 267.912 256.371L391.727 327.809C394.256 329.281 396.103 331.69 396.869 334.514 397.625 337.341 397.225 340.359 395.759 342.881Z" fill="#79CCBF" transform="matrix(1.00146 0 0 1 4140 1705)"/><path d="M352.245 330.527 250.801 506.223 269.681 517.114 371.123 341.415Z" fill="#FFFFFF" transform="matrix(1.00146 0 0 1 4140 1705)"/><path d="M266.434 281.018 165 456.714 250.801 506.223 352.245 330.527Z" fill="#F4CE73" transform="matrix(1.00146 0 0 1 4140 1705)"/><path d="M391.727 327.809 267.912 256.371C262.628 253.33 255.88 255.118 252.828 260.425L140.354 455.226C138.892 457.759 138.496 460.768 139.254 463.593 140 466.427 141.853 468.842 144.396 470.299L268.203 541.761C273.485 544.801 280.223 543.01 283.275 537.728L395.759 342.881C397.226 340.35 397.625 337.34 396.87 334.514 396.103 331.69 394.256 329.282 391.727 327.809ZM250.801 506.223 165 456.714 266.434 281.018 352.245 330.527 371.123 341.415 269.681 517.114 250.801 506.223Z" fill="#27323A" transform="matrix(1.00146 0 0 1 4140 1705)"/><path d="M391.339 179.239C382.628 176.048 372.709 179.066 367.922 187.347 362.575 196.618 365.765 208.478 374.995 213.825 384.266 219.173 396.115 215.983 401.474 206.753 403.243 203.735 404.018 200.455 404.062 197.223 402.984 198.042 401.819 198.817 400.86 199.722 396.462 203.948 389.484 203.82 385.247 199.422 381.032 195.024 381.162 188.015 385.56 183.809 387.329 182.085 389.356 180.705 391.339 179.239Z" fill="#FFFFFF" transform="matrix(1.00146 0 0 1 4140 1705)"/></g></g></g><text font-family="Alimama FangYuanTi VF SemiBold,Alimama FangYuanTi VF SemiBold_MSFontService,sans-serif" font-weight="600" font-size="202" transform="matrix(1 0 0 1 3792.19 2122)">#<tspan font-size="202" x="133.49" y="0">我</tspan></text></g></svg>