<svg width="985" height="762" xmlns="http://www.w3.org/2000/svg" xmlns:xlink="http://www.w3.org/1999/xlink" overflow="hidden"><defs><clipPath id="clip0"><rect x="1276" y="1661" width="985" height="762"/></clipPath></defs><g clip-path="url(#clip0)" transform="translate(-1276 -1661)"><path d="M1276 1788C1276 1717.86 1332.86 1661 1403 1661L2134 1661C2204.14 1661 2261 1717.86 2261 1788L2261 2296C2261 2366.14 2204.14 2423 2134 2423L1403 2423C1332.86 2423 1276 2366.14 1276 2296Z" fill="#39B5F5" fill-rule="evenodd"/><text font-family="Microsoft YaHei,Microsoft YaHei_MSFontService,sans-serif" font-weight="400" font-size="83" transform="matrix(1 0 0 1 1381.24 2182)">步行<tspan font-size="83" x="165" y="0">-</tspan><tspan font-size="83" x="200.521" y="0">慢跑</tspan>-<tspan font-size="83" x="401.042" y="0">骑</tspan>行-<tspan font-size="83" x="601.563" y="0">旅行</tspan><tspan font-family="Alimama FangYuanTi VF SemiBold,Alimama FangYuanTi VF SemiBold_MSFontService,sans-serif" font-weight="600" font-size="110" x="94.5863" y="-176">#</tspan><tspan font-family="Alimama FangYuanTi VF SemiBold,Alimama FangYuanTi VF SemiBold_MSFontService,sans-serif" font-weight="600" font-size="110" x="167.347" y="-176">又菜又</tspan><tspan font-family="Alimama FangYuanTi VF SemiBold,Alimama FangYuanTi VF SemiBold_MSFontService,sans-serif" font-weight="600" font-size="110" x="497.347" y="-176">瘾</tspan><tspan font-family="Alimama FangYuanTi VF SemiBold,Alimama FangYuanTi VF SemiBold_MSFontService,sans-serif" font-weight="600" font-size="110" x="607.347" y="-176">#</tspan></text></g></svg>